M48
; DRILL file {KiCad (5.1.10)-1} date 10/12/21 19:50:52
; FORMAT={-:-/ absolute / inch / decimal}
; #@! TF.CreationDate,2021-10-12T19:50:52-04:00
; #@! TF.GenerationSoftware,Kicad,Pcbnew,(5.1.10)-1
FMAT,2
INCH
T1C0.0157
T2C0.0315
T3C0.0394
T4C0.0400
T5C0.0433
T6C0.0701
T7C0.1200
%
G90
G05
T1
X1.5Y0.4
T2
X1.6Y0.75
X1.6787Y0.75
X1.9Y0.75
X1.9787Y0.75
T3
X0.1Y1.7
X0.1Y1.6
X0.1Y1.5
X0.1Y0.4
X0.1Y0.3
X1.7Y1.75
X1.7Y1.65
X1.7Y1.55
X1.85Y1.75
X1.85Y1.65
X1.85Y1.55
X2.05Y1.65
X2.05Y1.55
X2.2Y1.65
X2.2Y1.55
X2.35Y1.65
X2.35Y1.55
X2.5Y1.65
X2.5Y1.55
X2.6Y1.15
X2.6Y1.05
X2.6Y0.75
X2.6Y0.65
X2.6Y0.55
T4
X0.45Y1.7
X0.45Y1.6
X0.45Y1.5
X0.45Y1.2
X0.45Y1.1
X0.74Y2.0
X0.84Y2.0
X0.94Y2.0
X1.04Y2.0
X1.1Y0.1
X1.14Y2.0
X1.15Y1.7
X1.15Y1.6
X1.15Y1.5
X1.15Y1.2
X1.15Y1.1
X1.2Y0.1
X1.24Y2.0
X1.3Y0.1
X1.34Y2.0
X1.35Y1.0
X1.4Y0.1
X1.44Y2.0
X1.5Y0.25
X1.5Y0.1
X1.54Y2.0
X1.6Y0.1
X1.64Y2.0
X1.7Y0.1
X1.8Y2.0
X1.8Y0.1
X1.9Y2.0
X2.0Y2.0
X2.0Y0.1
X2.1Y2.0
X2.1Y0.1
X2.2Y2.0
X2.2Y0.1
X2.3Y2.0
X2.3Y0.1
X2.4Y2.0
X2.4Y0.1
X2.5Y2.0
X2.5Y0.1
T5
X0.5Y0.55
X0.5Y0.3
X0.8Y0.55
X0.8Y0.3
T6
X0.6Y0.9
X0.6Y0.7661
X0.9906Y0.9
X0.9906Y0.7661
T7
X0.55Y0.1
X0.6Y2.0
X2.6Y1.4
X2.6Y0.3
T3
G00X0.1138Y0.7894
M15
G01X0.1138Y0.7106
M16
G05
G00X0.1925Y0.565
M15
G01X0.2713Y0.565
M16
G05
G00X0.35Y0.7894
M15
G01X0.35Y0.7106
M16
G05
T0
M30
