%TF.GenerationSoftware,KiCad,Pcbnew,(5.1.10)-1*%
%TF.CreationDate,2021-10-12T20:12:19-04:00*%
%TF.ProjectId,monkey_arduino_shield,6d6f6e6b-6579-45f6-9172-6475696e6f5f,rev?*%
%TF.SameCoordinates,PX69db1f0PY7882d48*%
%TF.FileFunction,Soldermask,Bot*%
%TF.FilePolarity,Negative*%
%FSLAX46Y46*%
G04 Gerber Fmt 4.6, Leading zero omitted, Abs format (unit mm)*
G04 Created by KiCad (PCBNEW (5.1.10)-1) date 2021-10-12 20:12:19*
%MOMM*%
%LPD*%
G01*
G04 APERTURE LIST*
%ADD10R,3.500000X3.500000*%
%ADD11O,2.200000X2.200000*%
%ADD12R,2.200000X2.200000*%
%ADD13C,1.879600*%
%ADD14O,1.700000X1.700000*%
%ADD15R,1.700000X1.700000*%
%ADD16C,2.780000*%
%ADD17C,1.600000*%
%ADD18R,1.600000X1.600000*%
%ADD19O,1.727200X2.032000*%
%ADD20C,4.064000*%
G04 APERTURE END LIST*
%TO.C,J2*%
G36*
G01*
X4140000Y13475000D02*
X4140000Y15225000D01*
G75*
G02*
X5015000Y16100000I875000J0D01*
G01*
X6765000Y16100000D01*
G75*
G02*
X7640000Y15225000I0J-875000D01*
G01*
X7640000Y13475000D01*
G75*
G02*
X6765000Y12600000I-875000J0D01*
G01*
X5015000Y12600000D01*
G75*
G02*
X4140000Y13475000I0J875000D01*
G01*
G37*
G36*
G01*
X1390000Y18050000D02*
X1390000Y20050000D01*
G75*
G02*
X2140000Y20800000I750000J0D01*
G01*
X3640000Y20800000D01*
G75*
G02*
X4390000Y20050000I0J-750000D01*
G01*
X4390000Y18050000D01*
G75*
G02*
X3640000Y17300000I-750000J0D01*
G01*
X2140000Y17300000D01*
G75*
G02*
X1390000Y18050000I0J750000D01*
G01*
G37*
D10*
X8890000Y19050000D03*
%TD*%
D11*
%TO.C,FB1*%
X12700000Y13970000D03*
D12*
X20320000Y13970000D03*
%TD*%
D11*
%TO.C,D1*%
X12700000Y7620000D03*
D12*
X20320000Y7620000D03*
%TD*%
D13*
%TO.C,U1*%
X29210000Y27940000D03*
X29210000Y30480000D03*
X29210000Y40640000D03*
X29210000Y38100000D03*
X29210000Y43180000D03*
X11430000Y30480000D03*
X11430000Y27940000D03*
X11430000Y38100000D03*
X11430000Y40640000D03*
X11430000Y43180000D03*
%TD*%
D14*
%TO.C,J11*%
X52070000Y39370000D03*
D15*
X52070000Y41910000D03*
%TD*%
D14*
%TO.C,J10*%
X55880000Y39370000D03*
D15*
X55880000Y41910000D03*
%TD*%
D14*
%TO.C,J9*%
X59690000Y39370000D03*
D15*
X59690000Y41910000D03*
%TD*%
D14*
%TO.C,J8*%
X63500000Y39370000D03*
D15*
X63500000Y41910000D03*
%TD*%
D14*
%TO.C,J7*%
X2540000Y10160000D03*
D15*
X2540000Y7620000D03*
%TD*%
D14*
%TO.C,J6*%
X2540000Y43180000D03*
X2540000Y40640000D03*
D15*
X2540000Y38100000D03*
%TD*%
D14*
%TO.C,J5*%
X66040000Y13970000D03*
X66040000Y16510000D03*
D15*
X66040000Y19050000D03*
%TD*%
D14*
%TO.C,J4*%
X46990000Y39370000D03*
X46990000Y41910000D03*
D15*
X46990000Y44450000D03*
%TD*%
D14*
%TO.C,J3*%
X43180000Y39370000D03*
X43180000Y41910000D03*
D15*
X43180000Y44450000D03*
%TD*%
D14*
%TO.C,J1*%
X66040000Y26670000D03*
D15*
X66040000Y29210000D03*
%TD*%
D16*
%TO.C,F1*%
X25160000Y19460000D03*
X25160000Y22860000D03*
X15240000Y19460000D03*
X15240000Y22860000D03*
%TD*%
D17*
%TO.C,C4*%
X50260000Y19050000D03*
D18*
X48260000Y19050000D03*
%TD*%
D17*
%TO.C,C3*%
X42640000Y19050000D03*
D18*
X40640000Y19050000D03*
%TD*%
D19*
%TO.C,P1*%
X27940000Y2540000D03*
X30480000Y2540000D03*
X33020000Y2540000D03*
X35560000Y2540000D03*
X38100000Y2540000D03*
X40640000Y2540000D03*
X43180000Y2540000D03*
X45720000Y2540000D03*
%TD*%
%TO.C,P2*%
X50800000Y2540000D03*
X53340000Y2540000D03*
X55880000Y2540000D03*
X58420000Y2540000D03*
X60960000Y2540000D03*
X63500000Y2540000D03*
%TD*%
%TO.C,P3*%
X18796000Y50800000D03*
X21336000Y50800000D03*
X23876000Y50800000D03*
X26416000Y50800000D03*
X28956000Y50800000D03*
X31496000Y50800000D03*
X34036000Y50800000D03*
X36576000Y50800000D03*
X39116000Y50800000D03*
X41656000Y50800000D03*
%TD*%
%TO.C,P4*%
X45720000Y50800000D03*
X48260000Y50800000D03*
X50800000Y50800000D03*
X53340000Y50800000D03*
X55880000Y50800000D03*
X58420000Y50800000D03*
X60960000Y50800000D03*
X63500000Y50800000D03*
%TD*%
D20*
%TO.C,P5*%
X13970000Y2540000D03*
%TD*%
%TO.C,P6*%
X66040000Y7620000D03*
%TD*%
%TO.C,P7*%
X15240000Y50800000D03*
%TD*%
%TO.C,P8*%
X66040000Y35560000D03*
%TD*%
M02*
