%TF.GenerationSoftware,KiCad,Pcbnew,(5.1.10)-1*%
%TF.CreationDate,2021-10-12T20:12:19-04:00*%
%TF.ProjectId,monkey_arduino_shield,6d6f6e6b-6579-45f6-9172-6475696e6f5f,rev?*%
%TF.SameCoordinates,PX69db1f0PY7882d48*%
%TF.FileFunction,Copper,L2,Bot*%
%TF.FilePolarity,Positive*%
%FSLAX46Y46*%
G04 Gerber Fmt 4.6, Leading zero omitted, Abs format (unit mm)*
G04 Created by KiCad (PCBNEW (5.1.10)-1) date 2021-10-12 20:12:19*
%MOMM*%
%LPD*%
G01*
G04 APERTURE LIST*
%TA.AperFunction,ComponentPad*%
%ADD10R,3.500000X3.500000*%
%TD*%
%TA.AperFunction,ComponentPad*%
%ADD11O,2.200000X2.200000*%
%TD*%
%TA.AperFunction,ComponentPad*%
%ADD12R,2.200000X2.200000*%
%TD*%
%TA.AperFunction,ComponentPad*%
%ADD13C,1.879600*%
%TD*%
%TA.AperFunction,ComponentPad*%
%ADD14O,1.700000X1.700000*%
%TD*%
%TA.AperFunction,ComponentPad*%
%ADD15R,1.700000X1.700000*%
%TD*%
%TA.AperFunction,ComponentPad*%
%ADD16C,2.780000*%
%TD*%
%TA.AperFunction,ComponentPad*%
%ADD17C,1.600000*%
%TD*%
%TA.AperFunction,ComponentPad*%
%ADD18R,1.600000X1.600000*%
%TD*%
%TA.AperFunction,ComponentPad*%
%ADD19O,1.727200X2.032000*%
%TD*%
%TA.AperFunction,ComponentPad*%
%ADD20C,4.064000*%
%TD*%
%TA.AperFunction,ViaPad*%
%ADD21C,1.524000*%
%TD*%
%TA.AperFunction,ViaPad*%
%ADD22C,0.600000*%
%TD*%
%TA.AperFunction,Conductor*%
%ADD23C,0.889000*%
%TD*%
%TA.AperFunction,Conductor*%
%ADD24C,0.254000*%
%TD*%
%TA.AperFunction,Conductor*%
%ADD25C,0.100000*%
%TD*%
G04 APERTURE END LIST*
%TO.P,J2,3*%
%TO.N,N/C*%
%TA.AperFunction,ComponentPad*%
G36*
G01*
X4140000Y13475000D02*
X4140000Y15225000D01*
G75*
G02*
X5015000Y16100000I875000J0D01*
G01*
X6765000Y16100000D01*
G75*
G02*
X7640000Y15225000I0J-875000D01*
G01*
X7640000Y13475000D01*
G75*
G02*
X6765000Y12600000I-875000J0D01*
G01*
X5015000Y12600000D01*
G75*
G02*
X4140000Y13475000I0J875000D01*
G01*
G37*
%TD.AperFunction*%
%TO.P,J2,2*%
%TO.N,GND*%
%TA.AperFunction,ComponentPad*%
G36*
G01*
X1390000Y18050000D02*
X1390000Y20050000D01*
G75*
G02*
X2140000Y20800000I750000J0D01*
G01*
X3640000Y20800000D01*
G75*
G02*
X4390000Y20050000I0J-750000D01*
G01*
X4390000Y18050000D01*
G75*
G02*
X3640000Y17300000I-750000J0D01*
G01*
X2140000Y17300000D01*
G75*
G02*
X1390000Y18050000I0J750000D01*
G01*
G37*
%TD.AperFunction*%
D10*
%TO.P,J2,1*%
%TO.N,Net-(J2-Pad1)*%
X8890000Y19050000D03*
%TD*%
D11*
%TO.P,FB1,2*%
%TO.N,Net-(D1-Pad1)*%
X12700000Y13970000D03*
D12*
%TO.P,FB1,1*%
%TO.N,Net-(F1-Pad1)*%
X20320000Y13970000D03*
%TD*%
D11*
%TO.P,D1,2*%
%TO.N,Net-(D1-Pad2)*%
X12700000Y7620000D03*
D12*
%TO.P,D1,1*%
%TO.N,Net-(D1-Pad1)*%
X20320000Y7620000D03*
%TD*%
D13*
%TO.P,U1,1*%
%TO.N,Net-(J1-Pad2)*%
X29210000Y27940000D03*
%TO.P,U1,2*%
%TO.N,GND*%
X29210000Y30480000D03*
%TO.P,U1,4*%
%TO.N,+5V*%
X29210000Y40640000D03*
%TO.P,U1,3*%
%TO.N,GND*%
X29210000Y38100000D03*
%TO.P,U1,5*%
%TO.N,N/C*%
X29210000Y43180000D03*
%TO.P,U1,7*%
%TO.N,GND*%
X11430000Y30480000D03*
%TO.P,U1,6*%
%TO.N,/A1*%
X11430000Y27940000D03*
%TO.P,U1,8*%
%TO.N,Net-(J6-Pad1)*%
X11430000Y38100000D03*
%TO.P,U1,9*%
%TO.N,Net-(J6-Pad2)*%
X11430000Y40640000D03*
%TO.P,U1,10*%
%TO.N,Net-(J6-Pad3)*%
X11430000Y43180000D03*
%TD*%
D14*
%TO.P,J11,2*%
%TO.N,GND*%
X52070000Y39370000D03*
D15*
%TO.P,J11,1*%
%TO.N,/3(\u002A\u002A)*%
X52070000Y41910000D03*
%TD*%
D14*
%TO.P,J10,2*%
%TO.N,GND*%
X55880000Y39370000D03*
D15*
%TO.P,J10,1*%
%TO.N,/2*%
X55880000Y41910000D03*
%TD*%
D14*
%TO.P,J9,2*%
%TO.N,GND*%
X59690000Y39370000D03*
D15*
%TO.P,J9,1*%
%TO.N,/1(Tx)*%
X59690000Y41910000D03*
%TD*%
D14*
%TO.P,J8,2*%
%TO.N,GND*%
X63500000Y39370000D03*
D15*
%TO.P,J8,1*%
%TO.N,/0(Rx)*%
X63500000Y41910000D03*
%TD*%
D14*
%TO.P,J7,2*%
%TO.N,Net-(J2-Pad1)*%
X2540000Y10160000D03*
D15*
%TO.P,J7,1*%
%TO.N,Net-(D1-Pad2)*%
X2540000Y7620000D03*
%TD*%
D14*
%TO.P,J6,3*%
%TO.N,Net-(J6-Pad3)*%
X2540000Y43180000D03*
%TO.P,J6,2*%
%TO.N,Net-(J6-Pad2)*%
X2540000Y40640000D03*
D15*
%TO.P,J6,1*%
%TO.N,Net-(J6-Pad1)*%
X2540000Y38100000D03*
%TD*%
D14*
%TO.P,J5,3*%
%TO.N,/A0*%
X66040000Y13970000D03*
%TO.P,J5,2*%
%TO.N,GND*%
X66040000Y16510000D03*
D15*
%TO.P,J5,1*%
%TO.N,+3V3*%
X66040000Y19050000D03*
%TD*%
D14*
%TO.P,J4,3*%
%TO.N,/Vin*%
X46990000Y39370000D03*
%TO.P,J4,2*%
%TO.N,/5(\u002A\u002A)*%
X46990000Y41910000D03*
D15*
%TO.P,J4,1*%
%TO.N,GND*%
X46990000Y44450000D03*
%TD*%
D14*
%TO.P,J3,3*%
%TO.N,/Vin*%
X43180000Y39370000D03*
%TO.P,J3,2*%
%TO.N,/6(\u002A\u002A)*%
X43180000Y41910000D03*
D15*
%TO.P,J3,1*%
%TO.N,GND*%
X43180000Y44450000D03*
%TD*%
D14*
%TO.P,J1,2*%
%TO.N,Net-(J1-Pad2)*%
X66040000Y26670000D03*
D15*
%TO.P,J1,1*%
%TO.N,GND*%
X66040000Y29210000D03*
%TD*%
D16*
%TO.P,F1,2*%
%TO.N,Net-(C3-Pad1)*%
X25160000Y19460000D03*
X25160000Y22860000D03*
%TO.P,F1,1*%
%TO.N,Net-(F1-Pad1)*%
X15240000Y19460000D03*
X15240000Y22860000D03*
%TD*%
D17*
%TO.P,C4,2*%
%TO.N,GND*%
X50260000Y19050000D03*
D18*
%TO.P,C4,1*%
%TO.N,/Vin*%
X48260000Y19050000D03*
%TD*%
D17*
%TO.P,C3,2*%
%TO.N,GND*%
X42640000Y19050000D03*
D18*
%TO.P,C3,1*%
%TO.N,Net-(C3-Pad1)*%
X40640000Y19050000D03*
%TD*%
D19*
%TO.P,P1,1*%
%TO.N,N/C*%
X27940000Y2540000D03*
%TO.P,P1,2*%
X30480000Y2540000D03*
%TO.P,P1,3*%
X33020000Y2540000D03*
%TO.P,P1,4*%
%TO.N,+3V3*%
X35560000Y2540000D03*
%TO.P,P1,5*%
%TO.N,+5V*%
X38100000Y2540000D03*
%TO.P,P1,6*%
%TO.N,GND*%
X40640000Y2540000D03*
%TO.P,P1,7*%
X43180000Y2540000D03*
%TO.P,P1,8*%
%TO.N,/Vin*%
X45720000Y2540000D03*
%TD*%
%TO.P,P2,1*%
%TO.N,/A0*%
X50800000Y2540000D03*
%TO.P,P2,2*%
%TO.N,/A1*%
X53340000Y2540000D03*
%TO.P,P2,3*%
%TO.N,N/C*%
X55880000Y2540000D03*
%TO.P,P2,4*%
X58420000Y2540000D03*
%TO.P,P2,5*%
X60960000Y2540000D03*
%TO.P,P2,6*%
X63500000Y2540000D03*
%TD*%
%TO.P,P3,1*%
%TO.N,N/C*%
X18796000Y50800000D03*
%TO.P,P3,2*%
X21336000Y50800000D03*
%TO.P,P3,3*%
X23876000Y50800000D03*
%TO.P,P3,4*%
%TO.N,GND*%
X26416000Y50800000D03*
%TO.P,P3,5*%
%TO.N,N/C*%
X28956000Y50800000D03*
%TO.P,P3,6*%
X31496000Y50800000D03*
%TO.P,P3,7*%
X34036000Y50800000D03*
%TO.P,P3,8*%
X36576000Y50800000D03*
%TO.P,P3,9*%
X39116000Y50800000D03*
%TO.P,P3,10*%
X41656000Y50800000D03*
%TD*%
%TO.P,P4,1*%
%TO.N,N/C*%
X45720000Y50800000D03*
%TO.P,P4,2*%
%TO.N,/6(\u002A\u002A)*%
X48260000Y50800000D03*
%TO.P,P4,3*%
%TO.N,/5(\u002A\u002A)*%
X50800000Y50800000D03*
%TO.P,P4,4*%
%TO.N,N/C*%
X53340000Y50800000D03*
%TO.P,P4,5*%
%TO.N,/3(\u002A\u002A)*%
X55880000Y50800000D03*
%TO.P,P4,6*%
%TO.N,/2*%
X58420000Y50800000D03*
%TO.P,P4,7*%
%TO.N,/1(Tx)*%
X60960000Y50800000D03*
%TO.P,P4,8*%
%TO.N,/0(Rx)*%
X63500000Y50800000D03*
%TD*%
D20*
%TO.P,P5,1*%
%TO.N,N/C*%
X13970000Y2540000D03*
%TD*%
%TO.P,P6,1*%
%TO.N,N/C*%
X66040000Y7620000D03*
%TD*%
%TO.P,P7,1*%
%TO.N,N/C*%
X15240000Y50800000D03*
%TD*%
%TO.P,P8,1*%
%TO.N,N/C*%
X66040000Y35560000D03*
%TD*%
D21*
%TO.N,+5V*%
X38100000Y6350000D03*
X34290000Y25400000D03*
D22*
%TO.N,+3V3*%
X38100000Y10160000D03*
%TD*%
D23*
%TO.N,+5V*%
X38100000Y6350000D02*
X38100000Y7620000D01*
X38100000Y7620000D02*
X34290000Y11430000D01*
X34290000Y11430000D02*
X34290000Y25400000D01*
X34290000Y25400000D02*
X34290000Y25400000D01*
D24*
%TO.N,/A1*%
X12759077Y27940000D02*
X11430000Y27940000D01*
X52070000Y5080000D02*
X35560000Y5080000D01*
X53340000Y3810000D02*
X52070000Y5080000D01*
X53340000Y2540000D02*
X53340000Y3810000D01*
X35560000Y5139077D02*
X12759077Y27940000D01*
%TO.N,+3V3*%
X57150000Y10160000D02*
X66040000Y19050000D01*
X38100000Y10160000D02*
X57150000Y10160000D01*
%TO.N,Net-(J1-Pad2)*%
X64770000Y27940000D02*
X66040000Y26670000D01*
X29210000Y27940000D02*
X64770000Y27940000D01*
%TD*%
%TO.N,GND*%
X13168406Y52500113D02*
X12876536Y52063298D01*
X12675492Y51577935D01*
X12573000Y51062677D01*
X12573000Y50537323D01*
X12675492Y50022065D01*
X12876536Y49536702D01*
X13168406Y49099887D01*
X13539887Y48728406D01*
X13976702Y48436536D01*
X14462065Y48235492D01*
X14977323Y48133000D01*
X15502677Y48133000D01*
X16017935Y48235492D01*
X16503298Y48436536D01*
X16940113Y48728406D01*
X17311594Y49099887D01*
X17603464Y49536702D01*
X17659001Y49670781D01*
X17731203Y49582803D01*
X17959395Y49395531D01*
X18219737Y49256375D01*
X18502224Y49170684D01*
X18796000Y49141749D01*
X19089777Y49170684D01*
X19372264Y49256375D01*
X19632606Y49395531D01*
X19860797Y49582803D01*
X20048069Y49810994D01*
X20066000Y49844541D01*
X20083931Y49810994D01*
X20271203Y49582803D01*
X20499395Y49395531D01*
X20759737Y49256375D01*
X21042224Y49170684D01*
X21336000Y49141749D01*
X21629777Y49170684D01*
X21912264Y49256375D01*
X22172606Y49395531D01*
X22400797Y49582803D01*
X22588069Y49810994D01*
X22606000Y49844541D01*
X22623931Y49810994D01*
X22811203Y49582803D01*
X23039395Y49395531D01*
X23299737Y49256375D01*
X23582224Y49170684D01*
X23876000Y49141749D01*
X24169777Y49170684D01*
X24452264Y49256375D01*
X24712606Y49395531D01*
X24940797Y49582803D01*
X25128069Y49810994D01*
X25149424Y49850947D01*
X25297514Y49648271D01*
X25513965Y49449267D01*
X25765081Y49296314D01*
X26041211Y49195291D01*
X26056974Y49192642D01*
X26289000Y49313783D01*
X26289000Y50673000D01*
X26269000Y50673000D01*
X26269000Y50927000D01*
X26289000Y50927000D01*
X26289000Y52286217D01*
X26543000Y52286217D01*
X26543000Y50927000D01*
X26563000Y50927000D01*
X26563000Y50673000D01*
X26543000Y50673000D01*
X26543000Y49313783D01*
X26775026Y49192642D01*
X26790789Y49195291D01*
X27066919Y49296314D01*
X27318035Y49449267D01*
X27534486Y49648271D01*
X27682576Y49850947D01*
X27703931Y49810994D01*
X27891203Y49582803D01*
X28119395Y49395531D01*
X28379737Y49256375D01*
X28662224Y49170684D01*
X28956000Y49141749D01*
X29249777Y49170684D01*
X29532264Y49256375D01*
X29792606Y49395531D01*
X30020797Y49582803D01*
X30208069Y49810994D01*
X30226000Y49844541D01*
X30243931Y49810994D01*
X30431203Y49582803D01*
X30659395Y49395531D01*
X30919737Y49256375D01*
X31202224Y49170684D01*
X31496000Y49141749D01*
X31789777Y49170684D01*
X32072264Y49256375D01*
X32332606Y49395531D01*
X32560797Y49582803D01*
X32748069Y49810994D01*
X32766000Y49844541D01*
X32783931Y49810994D01*
X32971203Y49582803D01*
X33199395Y49395531D01*
X33459737Y49256375D01*
X33742224Y49170684D01*
X34036000Y49141749D01*
X34329777Y49170684D01*
X34612264Y49256375D01*
X34872606Y49395531D01*
X35100797Y49582803D01*
X35288069Y49810994D01*
X35306000Y49844541D01*
X35323931Y49810994D01*
X35511203Y49582803D01*
X35739395Y49395531D01*
X35999737Y49256375D01*
X36282224Y49170684D01*
X36576000Y49141749D01*
X36869777Y49170684D01*
X37152264Y49256375D01*
X37412606Y49395531D01*
X37640797Y49582803D01*
X37828069Y49810994D01*
X37846000Y49844541D01*
X37863931Y49810994D01*
X38051203Y49582803D01*
X38279395Y49395531D01*
X38539737Y49256375D01*
X38822224Y49170684D01*
X39116000Y49141749D01*
X39409777Y49170684D01*
X39692264Y49256375D01*
X39952606Y49395531D01*
X40180797Y49582803D01*
X40368069Y49810994D01*
X40386000Y49844541D01*
X40403931Y49810994D01*
X40591203Y49582803D01*
X40819395Y49395531D01*
X41079737Y49256375D01*
X41362224Y49170684D01*
X41656000Y49141749D01*
X41949777Y49170684D01*
X42232264Y49256375D01*
X42492606Y49395531D01*
X42720797Y49582803D01*
X42908069Y49810994D01*
X43047225Y50071337D01*
X43132916Y50353824D01*
X43154600Y50573982D01*
X43154600Y51026018D01*
X44221400Y51026018D01*
X44221400Y50573981D01*
X44243084Y50353823D01*
X44328775Y50071336D01*
X44467931Y49810994D01*
X44655203Y49582803D01*
X44883395Y49395531D01*
X45143737Y49256375D01*
X45426224Y49170684D01*
X45720000Y49141749D01*
X46013777Y49170684D01*
X46296264Y49256375D01*
X46556606Y49395531D01*
X46784797Y49582803D01*
X46972069Y49810994D01*
X46990000Y49844541D01*
X47007931Y49810994D01*
X47195203Y49582803D01*
X47423395Y49395531D01*
X47683737Y49256375D01*
X47966224Y49170684D01*
X48260000Y49141749D01*
X48553777Y49170684D01*
X48836264Y49256375D01*
X49096606Y49395531D01*
X49324797Y49582803D01*
X49512069Y49810994D01*
X49530000Y49844541D01*
X49547931Y49810994D01*
X49735203Y49582803D01*
X49963395Y49395531D01*
X50223737Y49256375D01*
X50506224Y49170684D01*
X50800000Y49141749D01*
X51093777Y49170684D01*
X51376264Y49256375D01*
X51636606Y49395531D01*
X51864797Y49582803D01*
X52052069Y49810994D01*
X52070000Y49844541D01*
X52087931Y49810994D01*
X52275203Y49582803D01*
X52503395Y49395531D01*
X52763737Y49256375D01*
X53046224Y49170684D01*
X53340000Y49141749D01*
X53633777Y49170684D01*
X53916264Y49256375D01*
X54176606Y49395531D01*
X54404797Y49582803D01*
X54592069Y49810994D01*
X54610000Y49844541D01*
X54627931Y49810994D01*
X54815203Y49582803D01*
X55043395Y49395531D01*
X55303737Y49256375D01*
X55586224Y49170684D01*
X55880000Y49141749D01*
X56173777Y49170684D01*
X56456264Y49256375D01*
X56716606Y49395531D01*
X56944797Y49582803D01*
X57132069Y49810994D01*
X57150000Y49844541D01*
X57167931Y49810994D01*
X57355203Y49582803D01*
X57583395Y49395531D01*
X57843737Y49256375D01*
X58126224Y49170684D01*
X58420000Y49141749D01*
X58713777Y49170684D01*
X58996264Y49256375D01*
X59256606Y49395531D01*
X59484797Y49582803D01*
X59672069Y49810994D01*
X59690000Y49844541D01*
X59707931Y49810994D01*
X59895203Y49582803D01*
X60123395Y49395531D01*
X60383737Y49256375D01*
X60666224Y49170684D01*
X60960000Y49141749D01*
X61253777Y49170684D01*
X61536264Y49256375D01*
X61796606Y49395531D01*
X62024797Y49582803D01*
X62212069Y49810994D01*
X62230000Y49844541D01*
X62247931Y49810994D01*
X62435203Y49582803D01*
X62663395Y49395531D01*
X62923737Y49256375D01*
X63206224Y49170684D01*
X63500000Y49141749D01*
X63793777Y49170684D01*
X64076264Y49256375D01*
X64336606Y49395531D01*
X64564797Y49582803D01*
X64752069Y49810994D01*
X64891225Y50071337D01*
X64976916Y50353824D01*
X64998600Y50573982D01*
X64998600Y51026019D01*
X64976916Y51246177D01*
X64891225Y51528664D01*
X64752069Y51789006D01*
X64564797Y52017197D01*
X64336605Y52204469D01*
X64076263Y52343625D01*
X63793776Y52429316D01*
X63500000Y52458251D01*
X63206223Y52429316D01*
X62923736Y52343625D01*
X62663394Y52204469D01*
X62435203Y52017197D01*
X62247931Y51789005D01*
X62230000Y51755459D01*
X62212069Y51789006D01*
X62024797Y52017197D01*
X61796605Y52204469D01*
X61536263Y52343625D01*
X61253776Y52429316D01*
X60960000Y52458251D01*
X60666223Y52429316D01*
X60383736Y52343625D01*
X60123394Y52204469D01*
X59895203Y52017197D01*
X59707931Y51789005D01*
X59690000Y51755459D01*
X59672069Y51789006D01*
X59484797Y52017197D01*
X59256605Y52204469D01*
X58996263Y52343625D01*
X58713776Y52429316D01*
X58420000Y52458251D01*
X58126223Y52429316D01*
X57843736Y52343625D01*
X57583394Y52204469D01*
X57355203Y52017197D01*
X57167931Y51789005D01*
X57150000Y51755459D01*
X57132069Y51789006D01*
X56944797Y52017197D01*
X56716605Y52204469D01*
X56456263Y52343625D01*
X56173776Y52429316D01*
X55880000Y52458251D01*
X55586223Y52429316D01*
X55303736Y52343625D01*
X55043394Y52204469D01*
X54815203Y52017197D01*
X54627931Y51789005D01*
X54610000Y51755459D01*
X54592069Y51789006D01*
X54404797Y52017197D01*
X54176605Y52204469D01*
X53916263Y52343625D01*
X53633776Y52429316D01*
X53340000Y52458251D01*
X53046223Y52429316D01*
X52763736Y52343625D01*
X52503394Y52204469D01*
X52275203Y52017197D01*
X52087931Y51789005D01*
X52070000Y51755459D01*
X52052069Y51789006D01*
X51864797Y52017197D01*
X51636605Y52204469D01*
X51376263Y52343625D01*
X51093776Y52429316D01*
X50800000Y52458251D01*
X50506223Y52429316D01*
X50223736Y52343625D01*
X49963394Y52204469D01*
X49735203Y52017197D01*
X49547931Y51789005D01*
X49530000Y51755459D01*
X49512069Y51789006D01*
X49324797Y52017197D01*
X49096605Y52204469D01*
X48836263Y52343625D01*
X48553776Y52429316D01*
X48260000Y52458251D01*
X47966223Y52429316D01*
X47683736Y52343625D01*
X47423394Y52204469D01*
X47195203Y52017197D01*
X47007931Y51789005D01*
X46990000Y51755459D01*
X46972069Y51789006D01*
X46784797Y52017197D01*
X46556605Y52204469D01*
X46296263Y52343625D01*
X46013776Y52429316D01*
X45720000Y52458251D01*
X45426223Y52429316D01*
X45143736Y52343625D01*
X44883394Y52204469D01*
X44655203Y52017197D01*
X44467931Y51789005D01*
X44328775Y51528663D01*
X44243084Y51246176D01*
X44221400Y51026018D01*
X43154600Y51026018D01*
X43154600Y51026019D01*
X43132916Y51246177D01*
X43047225Y51528664D01*
X42908069Y51789006D01*
X42720797Y52017197D01*
X42492605Y52204469D01*
X42232263Y52343625D01*
X41949776Y52429316D01*
X41656000Y52458251D01*
X41362223Y52429316D01*
X41079736Y52343625D01*
X40819394Y52204469D01*
X40591203Y52017197D01*
X40403931Y51789005D01*
X40386000Y51755459D01*
X40368069Y51789006D01*
X40180797Y52017197D01*
X39952605Y52204469D01*
X39692263Y52343625D01*
X39409776Y52429316D01*
X39116000Y52458251D01*
X38822223Y52429316D01*
X38539736Y52343625D01*
X38279394Y52204469D01*
X38051203Y52017197D01*
X37863931Y51789005D01*
X37846000Y51755459D01*
X37828069Y51789006D01*
X37640797Y52017197D01*
X37412605Y52204469D01*
X37152263Y52343625D01*
X36869776Y52429316D01*
X36576000Y52458251D01*
X36282223Y52429316D01*
X35999736Y52343625D01*
X35739394Y52204469D01*
X35511203Y52017197D01*
X35323931Y51789005D01*
X35306000Y51755459D01*
X35288069Y51789006D01*
X35100797Y52017197D01*
X34872605Y52204469D01*
X34612263Y52343625D01*
X34329776Y52429316D01*
X34036000Y52458251D01*
X33742223Y52429316D01*
X33459736Y52343625D01*
X33199394Y52204469D01*
X32971203Y52017197D01*
X32783931Y51789005D01*
X32766000Y51755459D01*
X32748069Y51789006D01*
X32560797Y52017197D01*
X32332605Y52204469D01*
X32072263Y52343625D01*
X31789776Y52429316D01*
X31496000Y52458251D01*
X31202223Y52429316D01*
X30919736Y52343625D01*
X30659394Y52204469D01*
X30431203Y52017197D01*
X30243931Y51789005D01*
X30226000Y51755459D01*
X30208069Y51789006D01*
X30020797Y52017197D01*
X29792605Y52204469D01*
X29532263Y52343625D01*
X29249776Y52429316D01*
X28956000Y52458251D01*
X28662223Y52429316D01*
X28379736Y52343625D01*
X28119394Y52204469D01*
X27891203Y52017197D01*
X27703931Y51789005D01*
X27682576Y51749053D01*
X27534486Y51951729D01*
X27318035Y52150733D01*
X27066919Y52303686D01*
X26790789Y52404709D01*
X26775026Y52407358D01*
X26543000Y52286217D01*
X26289000Y52286217D01*
X26056974Y52407358D01*
X26041211Y52404709D01*
X25765081Y52303686D01*
X25513965Y52150733D01*
X25297514Y51951729D01*
X25149424Y51749053D01*
X25128069Y51789006D01*
X24940797Y52017197D01*
X24712605Y52204469D01*
X24452263Y52343625D01*
X24169776Y52429316D01*
X23876000Y52458251D01*
X23582223Y52429316D01*
X23299736Y52343625D01*
X23039394Y52204469D01*
X22811203Y52017197D01*
X22623931Y51789005D01*
X22606000Y51755459D01*
X22588069Y51789006D01*
X22400797Y52017197D01*
X22172605Y52204469D01*
X21912263Y52343625D01*
X21629776Y52429316D01*
X21336000Y52458251D01*
X21042223Y52429316D01*
X20759736Y52343625D01*
X20499394Y52204469D01*
X20271203Y52017197D01*
X20083931Y51789005D01*
X20066000Y51755459D01*
X20048069Y51789006D01*
X19860797Y52017197D01*
X19632605Y52204469D01*
X19372263Y52343625D01*
X19089776Y52429316D01*
X18796000Y52458251D01*
X18502223Y52429316D01*
X18219736Y52343625D01*
X17959394Y52204469D01*
X17731203Y52017197D01*
X17659001Y51929219D01*
X17603464Y52063298D01*
X17311594Y52500113D01*
X17181707Y52630000D01*
X67870001Y52630000D01*
X67870000Y40351124D01*
X67870001Y40351114D01*
X67870000Y37811124D01*
X67870001Y37811114D01*
X67870001Y37501706D01*
X67740113Y37631594D01*
X67303298Y37923464D01*
X66817935Y38124508D01*
X66302677Y38227000D01*
X65777323Y38227000D01*
X65262065Y38124508D01*
X64776702Y37923464D01*
X64339887Y37631594D01*
X63968406Y37260113D01*
X63676536Y36823298D01*
X63475492Y36337935D01*
X63373000Y35822677D01*
X63373000Y35297323D01*
X63475492Y34782065D01*
X63676536Y34296702D01*
X63968406Y33859887D01*
X64339887Y33488406D01*
X64776702Y33196536D01*
X65262065Y32995492D01*
X65777323Y32893000D01*
X66302677Y32893000D01*
X66817935Y32995492D01*
X67303298Y33196536D01*
X67740113Y33488406D01*
X67870001Y33618294D01*
X67870000Y9561707D01*
X67740113Y9691594D01*
X67303298Y9983464D01*
X66817935Y10184508D01*
X66302677Y10287000D01*
X65777323Y10287000D01*
X65262065Y10184508D01*
X64776702Y9983464D01*
X64339887Y9691594D01*
X63968406Y9320113D01*
X63676536Y8883298D01*
X63475492Y8397935D01*
X63373000Y7882677D01*
X63373000Y7357323D01*
X63475492Y6842065D01*
X63676536Y6356702D01*
X63968406Y5919887D01*
X64339887Y5548406D01*
X64776702Y5256536D01*
X65262065Y5055492D01*
X65777323Y4953000D01*
X66302677Y4953000D01*
X66817935Y5055492D01*
X67303298Y5256536D01*
X67740113Y5548406D01*
X67870000Y5678293D01*
X67870000Y5045124D01*
X67870001Y5045114D01*
X67870000Y710000D01*
X15911707Y710000D01*
X16041594Y839887D01*
X16333464Y1276702D01*
X16534508Y1762065D01*
X16637000Y2277323D01*
X16637000Y2766018D01*
X26441400Y2766018D01*
X26441400Y2313981D01*
X26463084Y2093823D01*
X26548775Y1811336D01*
X26687931Y1550994D01*
X26875203Y1322803D01*
X27103395Y1135531D01*
X27363737Y996375D01*
X27646224Y910684D01*
X27940000Y881749D01*
X28233777Y910684D01*
X28516264Y996375D01*
X28776606Y1135531D01*
X29004797Y1322803D01*
X29192069Y1550994D01*
X29210000Y1584541D01*
X29227931Y1550994D01*
X29415203Y1322803D01*
X29643395Y1135531D01*
X29903737Y996375D01*
X30186224Y910684D01*
X30480000Y881749D01*
X30773777Y910684D01*
X31056264Y996375D01*
X31316606Y1135531D01*
X31544797Y1322803D01*
X31732069Y1550994D01*
X31750000Y1584541D01*
X31767931Y1550994D01*
X31955203Y1322803D01*
X32183395Y1135531D01*
X32443737Y996375D01*
X32726224Y910684D01*
X33020000Y881749D01*
X33313777Y910684D01*
X33596264Y996375D01*
X33856606Y1135531D01*
X34084797Y1322803D01*
X34272069Y1550994D01*
X34290000Y1584541D01*
X34307931Y1550994D01*
X34495203Y1322803D01*
X34723395Y1135531D01*
X34983737Y996375D01*
X35266224Y910684D01*
X35560000Y881749D01*
X35853777Y910684D01*
X36136264Y996375D01*
X36396606Y1135531D01*
X36624797Y1322803D01*
X36812069Y1550994D01*
X36830000Y1584541D01*
X36847931Y1550994D01*
X37035203Y1322803D01*
X37263395Y1135531D01*
X37523737Y996375D01*
X37806224Y910684D01*
X38100000Y881749D01*
X38393777Y910684D01*
X38676264Y996375D01*
X38936606Y1135531D01*
X39164797Y1322803D01*
X39352069Y1550994D01*
X39373424Y1590947D01*
X39521514Y1388271D01*
X39737965Y1189267D01*
X39989081Y1036314D01*
X40265211Y935291D01*
X40280974Y932642D01*
X40513000Y1053783D01*
X40513000Y2413000D01*
X40767000Y2413000D01*
X40767000Y1053783D01*
X40999026Y932642D01*
X41014789Y935291D01*
X41290919Y1036314D01*
X41542035Y1189267D01*
X41758486Y1388271D01*
X41910000Y1595633D01*
X42061514Y1388271D01*
X42277965Y1189267D01*
X42529081Y1036314D01*
X42805211Y935291D01*
X42820974Y932642D01*
X43053000Y1053783D01*
X43053000Y2413000D01*
X40767000Y2413000D01*
X40513000Y2413000D01*
X40493000Y2413000D01*
X40493000Y2667000D01*
X40513000Y2667000D01*
X40513000Y4026217D01*
X40767000Y4026217D01*
X40767000Y2667000D01*
X43053000Y2667000D01*
X43053000Y4026217D01*
X43307000Y4026217D01*
X43307000Y2667000D01*
X43327000Y2667000D01*
X43327000Y2413000D01*
X43307000Y2413000D01*
X43307000Y1053783D01*
X43539026Y932642D01*
X43554789Y935291D01*
X43830919Y1036314D01*
X44082035Y1189267D01*
X44298486Y1388271D01*
X44446576Y1590947D01*
X44467931Y1550994D01*
X44655203Y1322803D01*
X44883395Y1135531D01*
X45143737Y996375D01*
X45426224Y910684D01*
X45720000Y881749D01*
X46013777Y910684D01*
X46296264Y996375D01*
X46556606Y1135531D01*
X46784797Y1322803D01*
X46972069Y1550994D01*
X47111225Y1811337D01*
X47196916Y2093824D01*
X47218600Y2313982D01*
X47218600Y2766019D01*
X47196916Y2986177D01*
X47111225Y3268664D01*
X46972069Y3529006D01*
X46784797Y3757197D01*
X46556605Y3944469D01*
X46296263Y4083625D01*
X46013776Y4169316D01*
X45720000Y4198251D01*
X45426223Y4169316D01*
X45143736Y4083625D01*
X44883394Y3944469D01*
X44655203Y3757197D01*
X44467931Y3529005D01*
X44446576Y3489053D01*
X44298486Y3691729D01*
X44082035Y3890733D01*
X43830919Y4043686D01*
X43554789Y4144709D01*
X43539026Y4147358D01*
X43307000Y4026217D01*
X43053000Y4026217D01*
X42820974Y4147358D01*
X42805211Y4144709D01*
X42529081Y4043686D01*
X42277965Y3890733D01*
X42061514Y3691729D01*
X41910000Y3484367D01*
X41758486Y3691729D01*
X41542035Y3890733D01*
X41290919Y4043686D01*
X41014789Y4144709D01*
X40999026Y4147358D01*
X40767000Y4026217D01*
X40513000Y4026217D01*
X40280974Y4147358D01*
X40265211Y4144709D01*
X39989081Y4043686D01*
X39737965Y3890733D01*
X39521514Y3691729D01*
X39373424Y3489053D01*
X39352069Y3529006D01*
X39164797Y3757197D01*
X38936605Y3944469D01*
X38676263Y4083625D01*
X38393776Y4169316D01*
X38100000Y4198251D01*
X37806223Y4169316D01*
X37523736Y4083625D01*
X37263394Y3944469D01*
X37035203Y3757197D01*
X36847931Y3529005D01*
X36830000Y3495459D01*
X36812069Y3529006D01*
X36624797Y3757197D01*
X36396605Y3944469D01*
X36136263Y4083625D01*
X35853776Y4169316D01*
X35560000Y4198251D01*
X35266223Y4169316D01*
X34983736Y4083625D01*
X34723394Y3944469D01*
X34495203Y3757197D01*
X34307931Y3529005D01*
X34290000Y3495459D01*
X34272069Y3529006D01*
X34084797Y3757197D01*
X33856605Y3944469D01*
X33596263Y4083625D01*
X33313776Y4169316D01*
X33020000Y4198251D01*
X32726223Y4169316D01*
X32443736Y4083625D01*
X32183394Y3944469D01*
X31955203Y3757197D01*
X31767931Y3529005D01*
X31750000Y3495459D01*
X31732069Y3529006D01*
X31544797Y3757197D01*
X31316605Y3944469D01*
X31056263Y4083625D01*
X30773776Y4169316D01*
X30480000Y4198251D01*
X30186223Y4169316D01*
X29903736Y4083625D01*
X29643394Y3944469D01*
X29415203Y3757197D01*
X29227931Y3529005D01*
X29210000Y3495459D01*
X29192069Y3529006D01*
X29004797Y3757197D01*
X28776605Y3944469D01*
X28516263Y4083625D01*
X28233776Y4169316D01*
X27940000Y4198251D01*
X27646223Y4169316D01*
X27363736Y4083625D01*
X27103394Y3944469D01*
X26875203Y3757197D01*
X26687931Y3529005D01*
X26548775Y3268663D01*
X26463084Y2986176D01*
X26441400Y2766018D01*
X16637000Y2766018D01*
X16637000Y2802677D01*
X16534508Y3317935D01*
X16333464Y3803298D01*
X16041594Y4240113D01*
X15670113Y4611594D01*
X15233298Y4903464D01*
X14747935Y5104508D01*
X14232677Y5207000D01*
X13707323Y5207000D01*
X13192065Y5104508D01*
X12706702Y4903464D01*
X12269887Y4611594D01*
X11898406Y4240113D01*
X11606536Y3803298D01*
X11405492Y3317935D01*
X11303000Y2802677D01*
X11303000Y2277323D01*
X11405492Y1762065D01*
X11606536Y1276702D01*
X11898406Y839887D01*
X12028293Y710000D01*
X710000Y710000D01*
X710000Y8470000D01*
X1051928Y8470000D01*
X1051928Y6770000D01*
X1064188Y6645518D01*
X1100498Y6525820D01*
X1159463Y6415506D01*
X1238815Y6318815D01*
X1335506Y6239463D01*
X1445820Y6180498D01*
X1565518Y6144188D01*
X1690000Y6131928D01*
X3390000Y6131928D01*
X3514482Y6144188D01*
X3634180Y6180498D01*
X3744494Y6239463D01*
X3841185Y6318815D01*
X3920537Y6415506D01*
X3979502Y6525820D01*
X4015812Y6645518D01*
X4028072Y6770000D01*
X4028072Y7790883D01*
X10965000Y7790883D01*
X10965000Y7449117D01*
X11031675Y7113919D01*
X11162463Y6798169D01*
X11352337Y6514002D01*
X11594002Y6272337D01*
X11878169Y6082463D01*
X12193919Y5951675D01*
X12529117Y5885000D01*
X12870883Y5885000D01*
X13206081Y5951675D01*
X13521831Y6082463D01*
X13805998Y6272337D01*
X14047663Y6514002D01*
X14237537Y6798169D01*
X14368325Y7113919D01*
X14435000Y7449117D01*
X14435000Y7790883D01*
X14368325Y8126081D01*
X14237537Y8441831D01*
X14051671Y8720000D01*
X18581928Y8720000D01*
X18581928Y6520000D01*
X18594188Y6395518D01*
X18630498Y6275820D01*
X18689463Y6165506D01*
X18768815Y6068815D01*
X18865506Y5989463D01*
X18975820Y5930498D01*
X19095518Y5894188D01*
X19220000Y5881928D01*
X21420000Y5881928D01*
X21544482Y5894188D01*
X21664180Y5930498D01*
X21774494Y5989463D01*
X21871185Y6068815D01*
X21950537Y6165506D01*
X22009502Y6275820D01*
X22045812Y6395518D01*
X22058072Y6520000D01*
X22058072Y8720000D01*
X22045812Y8844482D01*
X22009502Y8964180D01*
X21950537Y9074494D01*
X21871185Y9171185D01*
X21774494Y9250537D01*
X21664180Y9309502D01*
X21544482Y9345812D01*
X21420000Y9358072D01*
X19220000Y9358072D01*
X19095518Y9345812D01*
X18975820Y9309502D01*
X18865506Y9250537D01*
X18768815Y9171185D01*
X18689463Y9074494D01*
X18630498Y8964180D01*
X18594188Y8844482D01*
X18581928Y8720000D01*
X14051671Y8720000D01*
X14047663Y8725998D01*
X13805998Y8967663D01*
X13521831Y9157537D01*
X13206081Y9288325D01*
X12870883Y9355000D01*
X12529117Y9355000D01*
X12193919Y9288325D01*
X11878169Y9157537D01*
X11594002Y8967663D01*
X11352337Y8725998D01*
X11162463Y8441831D01*
X11031675Y8126081D01*
X10965000Y7790883D01*
X4028072Y7790883D01*
X4028072Y8470000D01*
X4015812Y8594482D01*
X3979502Y8714180D01*
X3920537Y8824494D01*
X3841185Y8921185D01*
X3744494Y9000537D01*
X3634180Y9059502D01*
X3561620Y9081513D01*
X3693475Y9213368D01*
X3855990Y9456589D01*
X3967932Y9726842D01*
X4025000Y10013740D01*
X4025000Y10306260D01*
X3967932Y10593158D01*
X3855990Y10863411D01*
X3693475Y11106632D01*
X3486632Y11313475D01*
X3243411Y11475990D01*
X2973158Y11587932D01*
X2686260Y11645000D01*
X2393740Y11645000D01*
X2106842Y11587932D01*
X1836589Y11475990D01*
X1593368Y11313475D01*
X1386525Y11106632D01*
X1224010Y10863411D01*
X1112068Y10593158D01*
X1055000Y10306260D01*
X1055000Y10013740D01*
X1112068Y9726842D01*
X1224010Y9456589D01*
X1386525Y9213368D01*
X1518380Y9081513D01*
X1445820Y9059502D01*
X1335506Y9000537D01*
X1238815Y8921185D01*
X1159463Y8824494D01*
X1100498Y8714180D01*
X1064188Y8594482D01*
X1051928Y8470000D01*
X710000Y8470000D01*
X710000Y15225000D01*
X3501928Y15225000D01*
X3501928Y13475000D01*
X3531001Y13179814D01*
X3617104Y12895972D01*
X3756927Y12634382D01*
X3945097Y12405097D01*
X4174382Y12216927D01*
X4435972Y12077104D01*
X4719814Y11991001D01*
X5015000Y11961928D01*
X6765000Y11961928D01*
X7060186Y11991001D01*
X7344028Y12077104D01*
X7605618Y12216927D01*
X7834903Y12405097D01*
X8023073Y12634382D01*
X8162896Y12895972D01*
X8248999Y13179814D01*
X8278072Y13475000D01*
X8278072Y14140883D01*
X10965000Y14140883D01*
X10965000Y13799117D01*
X11031675Y13463919D01*
X11162463Y13148169D01*
X11352337Y12864002D01*
X11594002Y12622337D01*
X11878169Y12432463D01*
X12193919Y12301675D01*
X12529117Y12235000D01*
X12870883Y12235000D01*
X13206081Y12301675D01*
X13521831Y12432463D01*
X13805998Y12622337D01*
X14047663Y12864002D01*
X14237537Y13148169D01*
X14368325Y13463919D01*
X14435000Y13799117D01*
X14435000Y14140883D01*
X14368325Y14476081D01*
X14237537Y14791831D01*
X14051671Y15070000D01*
X18581928Y15070000D01*
X18581928Y12870000D01*
X18594188Y12745518D01*
X18630498Y12625820D01*
X18689463Y12515506D01*
X18768815Y12418815D01*
X18865506Y12339463D01*
X18975820Y12280498D01*
X19095518Y12244188D01*
X19220000Y12231928D01*
X21420000Y12231928D01*
X21544482Y12244188D01*
X21664180Y12280498D01*
X21774494Y12339463D01*
X21871185Y12418815D01*
X21950537Y12515506D01*
X22009502Y12625820D01*
X22045812Y12745518D01*
X22058072Y12870000D01*
X22058072Y15070000D01*
X22045812Y15194482D01*
X22009502Y15314180D01*
X21950537Y15424494D01*
X21871185Y15521185D01*
X21774494Y15600537D01*
X21664180Y15659502D01*
X21544482Y15695812D01*
X21420000Y15708072D01*
X19220000Y15708072D01*
X19095518Y15695812D01*
X18975820Y15659502D01*
X18865506Y15600537D01*
X18768815Y15521185D01*
X18689463Y15424494D01*
X18630498Y15314180D01*
X18594188Y15194482D01*
X18581928Y15070000D01*
X14051671Y15070000D01*
X14047663Y15075998D01*
X13805998Y15317663D01*
X13521831Y15507537D01*
X13206081Y15638325D01*
X12870883Y15705000D01*
X12529117Y15705000D01*
X12193919Y15638325D01*
X11878169Y15507537D01*
X11594002Y15317663D01*
X11352337Y15075998D01*
X11162463Y14791831D01*
X11031675Y14476081D01*
X10965000Y14140883D01*
X8278072Y14140883D01*
X8278072Y15225000D01*
X8248999Y15520186D01*
X8162896Y15804028D01*
X8023073Y16065618D01*
X7834903Y16294903D01*
X7605618Y16483073D01*
X7344028Y16622896D01*
X7215357Y16661928D01*
X10640000Y16661928D01*
X10764482Y16674188D01*
X10884180Y16710498D01*
X10994494Y16769463D01*
X11091185Y16848815D01*
X11170537Y16945506D01*
X11229502Y17055820D01*
X11265812Y17175518D01*
X11278072Y17300000D01*
X11278072Y20800000D01*
X11265812Y20924482D01*
X11229502Y21044180D01*
X11170537Y21154494D01*
X11091185Y21251185D01*
X10994494Y21330537D01*
X10884180Y21389502D01*
X10764482Y21425812D01*
X10640000Y21438072D01*
X7140000Y21438072D01*
X7015518Y21425812D01*
X6895820Y21389502D01*
X6785506Y21330537D01*
X6688815Y21251185D01*
X6609463Y21154494D01*
X6550498Y21044180D01*
X6514188Y20924482D01*
X6501928Y20800000D01*
X6501928Y17300000D01*
X6514188Y17175518D01*
X6550498Y17055820D01*
X6609463Y16945506D01*
X6688815Y16848815D01*
X6785506Y16769463D01*
X6862131Y16728506D01*
X6765000Y16738072D01*
X5015000Y16738072D01*
X4719814Y16708999D01*
X4435972Y16622896D01*
X4174382Y16483073D01*
X3945097Y16294903D01*
X3756927Y16065618D01*
X3617104Y15804028D01*
X3531001Y15520186D01*
X3501928Y15225000D01*
X710000Y15225000D01*
X710000Y17300000D01*
X751928Y17300000D01*
X764188Y17175518D01*
X800498Y17055820D01*
X859463Y16945506D01*
X938815Y16848815D01*
X1035506Y16769463D01*
X1145820Y16710498D01*
X1265518Y16674188D01*
X1390000Y16661928D01*
X2604250Y16665000D01*
X2763000Y16823750D01*
X2763000Y18923000D01*
X3017000Y18923000D01*
X3017000Y16823750D01*
X3175750Y16665000D01*
X4390000Y16661928D01*
X4514482Y16674188D01*
X4634180Y16710498D01*
X4744494Y16769463D01*
X4841185Y16848815D01*
X4920537Y16945506D01*
X4979502Y17055820D01*
X5015812Y17175518D01*
X5028072Y17300000D01*
X5025000Y18764250D01*
X4866250Y18923000D01*
X3017000Y18923000D01*
X2763000Y18923000D01*
X913750Y18923000D01*
X755000Y18764250D01*
X751928Y17300000D01*
X710000Y17300000D01*
X710000Y20800000D01*
X751928Y20800000D01*
X755000Y19335750D01*
X913750Y19177000D01*
X2763000Y19177000D01*
X2763000Y21276250D01*
X3017000Y21276250D01*
X3017000Y19177000D01*
X4866250Y19177000D01*
X5025000Y19335750D01*
X5028072Y20800000D01*
X5015812Y20924482D01*
X4979502Y21044180D01*
X4920537Y21154494D01*
X4841185Y21251185D01*
X4744494Y21330537D01*
X4634180Y21389502D01*
X4514482Y21425812D01*
X4390000Y21438072D01*
X3175750Y21435000D01*
X3017000Y21276250D01*
X2763000Y21276250D01*
X2604250Y21435000D01*
X1390000Y21438072D01*
X1265518Y21425812D01*
X1145820Y21389502D01*
X1035506Y21330537D01*
X938815Y21251185D01*
X859463Y21154494D01*
X800498Y21044180D01*
X764188Y20924482D01*
X751928Y20800000D01*
X710000Y20800000D01*
X710000Y28095104D01*
X9855200Y28095104D01*
X9855200Y27784896D01*
X9915718Y27480648D01*
X10034430Y27194052D01*
X10206773Y26936123D01*
X10426123Y26716773D01*
X10684052Y26544430D01*
X10970648Y26425718D01*
X11274896Y26365200D01*
X11585104Y26365200D01*
X11889352Y26425718D01*
X12175948Y26544430D01*
X12433877Y26716773D01*
X12653227Y26936123D01*
X12666083Y26955364D01*
X14786902Y24834545D01*
X14649329Y24807180D01*
X14280803Y24654532D01*
X13949138Y24432920D01*
X13667080Y24150862D01*
X13445468Y23819197D01*
X13292820Y23450671D01*
X13215000Y23059445D01*
X13215000Y22660555D01*
X13292820Y22269329D01*
X13445468Y21900803D01*
X13667080Y21569138D01*
X13949138Y21287080D01*
X14139326Y21160000D01*
X13949138Y21032920D01*
X13667080Y20750862D01*
X13445468Y20419197D01*
X13292820Y20050671D01*
X13215000Y19659445D01*
X13215000Y19260555D01*
X13292820Y18869329D01*
X13445468Y18500803D01*
X13667080Y18169138D01*
X13949138Y17887080D01*
X14280803Y17665468D01*
X14649329Y17512820D01*
X15040555Y17435000D01*
X15439445Y17435000D01*
X15830671Y17512820D01*
X16199197Y17665468D01*
X16530862Y17887080D01*
X16812920Y18169138D01*
X17034532Y18500803D01*
X17187180Y18869329D01*
X17265000Y19260555D01*
X17265000Y19659445D01*
X17187180Y20050671D01*
X17034532Y20419197D01*
X16812920Y20750862D01*
X16530862Y21032920D01*
X16340674Y21160000D01*
X16530862Y21287080D01*
X16812920Y21569138D01*
X17034532Y21900803D01*
X17187180Y22269329D01*
X17214545Y22406902D01*
X34873423Y4748024D01*
X34923355Y4654608D01*
X35018578Y4538578D01*
X35134608Y4443355D01*
X35266985Y4372598D01*
X35410622Y4329026D01*
X35522574Y4318000D01*
X51754370Y4318000D01*
X52297156Y3775213D01*
X52275203Y3757197D01*
X52087931Y3529005D01*
X52070000Y3495459D01*
X52052069Y3529006D01*
X51864797Y3757197D01*
X51636605Y3944469D01*
X51376263Y4083625D01*
X51093776Y4169316D01*
X50800000Y4198251D01*
X50506223Y4169316D01*
X50223736Y4083625D01*
X49963394Y3944469D01*
X49735203Y3757197D01*
X49547931Y3529005D01*
X49408775Y3268663D01*
X49323084Y2986176D01*
X49301400Y2766018D01*
X49301400Y2313981D01*
X49323084Y2093823D01*
X49408775Y1811336D01*
X49547931Y1550994D01*
X49735203Y1322803D01*
X49963395Y1135531D01*
X50223737Y996375D01*
X50506224Y910684D01*
X50800000Y881749D01*
X51093777Y910684D01*
X51376264Y996375D01*
X51636606Y1135531D01*
X51864797Y1322803D01*
X52052069Y1550994D01*
X52070000Y1584541D01*
X52087931Y1550994D01*
X52275203Y1322803D01*
X52503395Y1135531D01*
X52763737Y996375D01*
X53046224Y910684D01*
X53340000Y881749D01*
X53633777Y910684D01*
X53916264Y996375D01*
X54176606Y1135531D01*
X54404797Y1322803D01*
X54592069Y1550994D01*
X54610000Y1584541D01*
X54627931Y1550994D01*
X54815203Y1322803D01*
X55043395Y1135531D01*
X55303737Y996375D01*
X55586224Y910684D01*
X55880000Y881749D01*
X56173777Y910684D01*
X56456264Y996375D01*
X56716606Y1135531D01*
X56944797Y1322803D01*
X57132069Y1550994D01*
X57150000Y1584541D01*
X57167931Y1550994D01*
X57355203Y1322803D01*
X57583395Y1135531D01*
X57843737Y996375D01*
X58126224Y910684D01*
X58420000Y881749D01*
X58713777Y910684D01*
X58996264Y996375D01*
X59256606Y1135531D01*
X59484797Y1322803D01*
X59672069Y1550994D01*
X59690000Y1584541D01*
X59707931Y1550994D01*
X59895203Y1322803D01*
X60123395Y1135531D01*
X60383737Y996375D01*
X60666224Y910684D01*
X60960000Y881749D01*
X61253777Y910684D01*
X61536264Y996375D01*
X61796606Y1135531D01*
X62024797Y1322803D01*
X62212069Y1550994D01*
X62230000Y1584541D01*
X62247931Y1550994D01*
X62435203Y1322803D01*
X62663395Y1135531D01*
X62923737Y996375D01*
X63206224Y910684D01*
X63500000Y881749D01*
X63793777Y910684D01*
X64076264Y996375D01*
X64336606Y1135531D01*
X64564797Y1322803D01*
X64752069Y1550994D01*
X64891225Y1811337D01*
X64976916Y2093824D01*
X64998600Y2313982D01*
X64998600Y2766019D01*
X64976916Y2986177D01*
X64891225Y3268664D01*
X64752069Y3529006D01*
X64564797Y3757197D01*
X64336605Y3944469D01*
X64076263Y4083625D01*
X63793776Y4169316D01*
X63500000Y4198251D01*
X63206223Y4169316D01*
X62923736Y4083625D01*
X62663394Y3944469D01*
X62435203Y3757197D01*
X62247931Y3529005D01*
X62230000Y3495459D01*
X62212069Y3529006D01*
X62024797Y3757197D01*
X61796605Y3944469D01*
X61536263Y4083625D01*
X61253776Y4169316D01*
X60960000Y4198251D01*
X60666223Y4169316D01*
X60383736Y4083625D01*
X60123394Y3944469D01*
X59895203Y3757197D01*
X59707931Y3529005D01*
X59690000Y3495459D01*
X59672069Y3529006D01*
X59484797Y3757197D01*
X59256605Y3944469D01*
X58996263Y4083625D01*
X58713776Y4169316D01*
X58420000Y4198251D01*
X58126223Y4169316D01*
X57843736Y4083625D01*
X57583394Y3944469D01*
X57355203Y3757197D01*
X57167931Y3529005D01*
X57150000Y3495459D01*
X57132069Y3529006D01*
X56944797Y3757197D01*
X56716605Y3944469D01*
X56456263Y4083625D01*
X56173776Y4169316D01*
X55880000Y4198251D01*
X55586223Y4169316D01*
X55303736Y4083625D01*
X55043394Y3944469D01*
X54815203Y3757197D01*
X54627931Y3529005D01*
X54610000Y3495459D01*
X54592069Y3529006D01*
X54404797Y3757197D01*
X54176605Y3944469D01*
X54079800Y3996212D01*
X54047402Y4103015D01*
X53976645Y4235392D01*
X53881422Y4351422D01*
X53852352Y4375279D01*
X52635284Y5592346D01*
X52611422Y5621422D01*
X52495392Y5716645D01*
X52363015Y5787402D01*
X52219378Y5830974D01*
X52107426Y5842000D01*
X52107423Y5842000D01*
X52070000Y5845686D01*
X52032577Y5842000D01*
X39401681Y5842000D01*
X39443314Y5942510D01*
X39497000Y6212408D01*
X39497000Y6487592D01*
X39443314Y6757490D01*
X39338005Y7011727D01*
X39185120Y7240535D01*
X39179500Y7246155D01*
X39179500Y7566971D01*
X39184723Y7620000D01*
X39163880Y7831619D01*
X39102153Y8035105D01*
X39102153Y8035106D01*
X39001914Y8222640D01*
X38867015Y8387015D01*
X38825826Y8420818D01*
X38021644Y9225000D01*
X38192089Y9225000D01*
X38372729Y9260932D01*
X38542889Y9331414D01*
X38642542Y9398000D01*
X57112577Y9398000D01*
X57150000Y9394314D01*
X57187423Y9398000D01*
X57187426Y9398000D01*
X57299378Y9409026D01*
X57443015Y9452598D01*
X57575392Y9523355D01*
X57691422Y9618578D01*
X57715284Y9647654D01*
X64555000Y16487370D01*
X64555000Y16382998D01*
X64719844Y16382998D01*
X64598524Y16153110D01*
X64643175Y16005901D01*
X64768359Y15743080D01*
X64942412Y15509731D01*
X65158645Y15314822D01*
X65275534Y15245195D01*
X65093368Y15123475D01*
X64886525Y14916632D01*
X64724010Y14673411D01*
X64612068Y14403158D01*
X64555000Y14116260D01*
X64555000Y13823740D01*
X64612068Y13536842D01*
X64724010Y13266589D01*
X64886525Y13023368D01*
X65093368Y12816525D01*
X65336589Y12654010D01*
X65606842Y12542068D01*
X65893740Y12485000D01*
X66186260Y12485000D01*
X66473158Y12542068D01*
X66743411Y12654010D01*
X66986632Y12816525D01*
X67193475Y13023368D01*
X67355990Y13266589D01*
X67467932Y13536842D01*
X67525000Y13823740D01*
X67525000Y14116260D01*
X67467932Y14403158D01*
X67355990Y14673411D01*
X67193475Y14916632D01*
X66986632Y15123475D01*
X66804466Y15245195D01*
X66921355Y15314822D01*
X67137588Y15509731D01*
X67311641Y15743080D01*
X67436825Y16005901D01*
X67481476Y16153110D01*
X67360155Y16383000D01*
X66167000Y16383000D01*
X66167000Y16363000D01*
X65913000Y16363000D01*
X65913000Y16383000D01*
X65893000Y16383000D01*
X65893000Y16637000D01*
X65913000Y16637000D01*
X65913000Y16657000D01*
X66167000Y16657000D01*
X66167000Y16637000D01*
X67360155Y16637000D01*
X67481476Y16866890D01*
X67436825Y17014099D01*
X67311641Y17276920D01*
X67137588Y17510269D01*
X67053534Y17586034D01*
X67134180Y17610498D01*
X67244494Y17669463D01*
X67341185Y17748815D01*
X67420537Y17845506D01*
X67479502Y17955820D01*
X67515812Y18075518D01*
X67528072Y18200000D01*
X67528072Y19900000D01*
X67515812Y20024482D01*
X67479502Y20144180D01*
X67420537Y20254494D01*
X67341185Y20351185D01*
X67244494Y20430537D01*
X67134180Y20489502D01*
X67014482Y20525812D01*
X66890000Y20538072D01*
X65190000Y20538072D01*
X65065518Y20525812D01*
X64945820Y20489502D01*
X64835506Y20430537D01*
X64738815Y20351185D01*
X64659463Y20254494D01*
X64600498Y20144180D01*
X64564188Y20024482D01*
X64551928Y19900000D01*
X64551928Y18639558D01*
X56834370Y10922000D01*
X38642542Y10922000D01*
X38542889Y10988586D01*
X38372729Y11059068D01*
X38192089Y11095000D01*
X38007911Y11095000D01*
X37827271Y11059068D01*
X37657111Y10988586D01*
X37503972Y10886262D01*
X37373738Y10756028D01*
X37271414Y10602889D01*
X37200932Y10432729D01*
X37165000Y10252089D01*
X37165000Y10081643D01*
X35369500Y11877142D01*
X35369500Y19850000D01*
X39201928Y19850000D01*
X39201928Y18250000D01*
X39214188Y18125518D01*
X39250498Y18005820D01*
X39309463Y17895506D01*
X39388815Y17798815D01*
X39485506Y17719463D01*
X39595820Y17660498D01*
X39715518Y17624188D01*
X39840000Y17611928D01*
X41440000Y17611928D01*
X41564482Y17624188D01*
X41684180Y17660498D01*
X41794494Y17719463D01*
X41891185Y17798815D01*
X41901807Y17811758D01*
X42153996Y17692429D01*
X42428184Y17623700D01*
X42710512Y17609783D01*
X42990130Y17651213D01*
X43256292Y17746397D01*
X43381514Y17813329D01*
X43453097Y18057298D01*
X42640000Y18870395D01*
X42625858Y18856252D01*
X42446253Y19035857D01*
X42460395Y19050000D01*
X42819605Y19050000D01*
X43632702Y18236903D01*
X43876671Y18308486D01*
X43997571Y18563996D01*
X44066300Y18838184D01*
X44080217Y19120512D01*
X44038787Y19400130D01*
X43943603Y19666292D01*
X43876671Y19791514D01*
X43677340Y19850000D01*
X46821928Y19850000D01*
X46821928Y18250000D01*
X46834188Y18125518D01*
X46870498Y18005820D01*
X46929463Y17895506D01*
X47008815Y17798815D01*
X47105506Y17719463D01*
X47215820Y17660498D01*
X47335518Y17624188D01*
X47460000Y17611928D01*
X49060000Y17611928D01*
X49184482Y17624188D01*
X49304180Y17660498D01*
X49414494Y17719463D01*
X49511185Y17798815D01*
X49521807Y17811758D01*
X49773996Y17692429D01*
X50048184Y17623700D01*
X50330512Y17609783D01*
X50610130Y17651213D01*
X50876292Y17746397D01*
X51001514Y17813329D01*
X51073097Y18057298D01*
X50260000Y18870395D01*
X50245858Y18856252D01*
X50066253Y19035857D01*
X50080395Y19050000D01*
X50439605Y19050000D01*
X51252702Y18236903D01*
X51496671Y18308486D01*
X51617571Y18563996D01*
X51686300Y18838184D01*
X51700217Y19120512D01*
X51658787Y19400130D01*
X51563603Y19666292D01*
X51496671Y19791514D01*
X51252702Y19863097D01*
X50439605Y19050000D01*
X50080395Y19050000D01*
X50066253Y19064142D01*
X50245858Y19243747D01*
X50260000Y19229605D01*
X51073097Y20042702D01*
X51001514Y20286671D01*
X50746004Y20407571D01*
X50471816Y20476300D01*
X50189488Y20490217D01*
X49909870Y20448787D01*
X49643708Y20353603D01*
X49521691Y20288384D01*
X49511185Y20301185D01*
X49414494Y20380537D01*
X49304180Y20439502D01*
X49184482Y20475812D01*
X49060000Y20488072D01*
X47460000Y20488072D01*
X47335518Y20475812D01*
X47215820Y20439502D01*
X47105506Y20380537D01*
X47008815Y20301185D01*
X46929463Y20204494D01*
X46870498Y20094180D01*
X46834188Y19974482D01*
X46821928Y19850000D01*
X43677340Y19850000D01*
X43632702Y19863097D01*
X42819605Y19050000D01*
X42460395Y19050000D01*
X42446253Y19064142D01*
X42625858Y19243747D01*
X42640000Y19229605D01*
X43453097Y20042702D01*
X43381514Y20286671D01*
X43126004Y20407571D01*
X42851816Y20476300D01*
X42569488Y20490217D01*
X42289870Y20448787D01*
X42023708Y20353603D01*
X41901691Y20288384D01*
X41891185Y20301185D01*
X41794494Y20380537D01*
X41684180Y20439502D01*
X41564482Y20475812D01*
X41440000Y20488072D01*
X39840000Y20488072D01*
X39715518Y20475812D01*
X39595820Y20439502D01*
X39485506Y20380537D01*
X39388815Y20301185D01*
X39309463Y20204494D01*
X39250498Y20094180D01*
X39214188Y19974482D01*
X39201928Y19850000D01*
X35369500Y19850000D01*
X35369500Y24503845D01*
X35375120Y24509465D01*
X35528005Y24738273D01*
X35633314Y24992510D01*
X35687000Y25262408D01*
X35687000Y25537592D01*
X35633314Y25807490D01*
X35528005Y26061727D01*
X35375120Y26290535D01*
X35180535Y26485120D01*
X34951727Y26638005D01*
X34697490Y26743314D01*
X34427592Y26797000D01*
X34152408Y26797000D01*
X33882510Y26743314D01*
X33628273Y26638005D01*
X33399465Y26485120D01*
X33204880Y26290535D01*
X33051995Y26061727D01*
X32946686Y25807490D01*
X32893000Y25537592D01*
X32893000Y25262408D01*
X32946686Y24992510D01*
X33051995Y24738273D01*
X33204880Y24509465D01*
X33210501Y24503844D01*
X33210500Y11483029D01*
X33205277Y11430000D01*
X33210500Y11376972D01*
X33226120Y11218382D01*
X33287847Y11014895D01*
X33388086Y10827360D01*
X33522985Y10662985D01*
X33564184Y10629173D01*
X36990023Y7203334D01*
X36861995Y7011727D01*
X36756686Y6757490D01*
X36703000Y6487592D01*
X36703000Y6212408D01*
X36756686Y5942510D01*
X36798319Y5842000D01*
X35934707Y5842000D01*
X23930885Y17845822D01*
X24200803Y17665468D01*
X24569329Y17512820D01*
X24960555Y17435000D01*
X25359445Y17435000D01*
X25750671Y17512820D01*
X26119197Y17665468D01*
X26450862Y17887080D01*
X26732920Y18169138D01*
X26954532Y18500803D01*
X27107180Y18869329D01*
X27185000Y19260555D01*
X27185000Y19659445D01*
X27107180Y20050671D01*
X26954532Y20419197D01*
X26732920Y20750862D01*
X26450862Y21032920D01*
X26260674Y21160000D01*
X26450862Y21287080D01*
X26732920Y21569138D01*
X26954532Y21900803D01*
X27107180Y22269329D01*
X27185000Y22660555D01*
X27185000Y23059445D01*
X27107180Y23450671D01*
X26954532Y23819197D01*
X26732920Y24150862D01*
X26450862Y24432920D01*
X26119197Y24654532D01*
X25750671Y24807180D01*
X25359445Y24885000D01*
X24960555Y24885000D01*
X24569329Y24807180D01*
X24200803Y24654532D01*
X23869138Y24432920D01*
X23587080Y24150862D01*
X23365468Y23819197D01*
X23212820Y23450671D01*
X23135000Y23059445D01*
X23135000Y22660555D01*
X23212820Y22269329D01*
X23365468Y21900803D01*
X23587080Y21569138D01*
X23869138Y21287080D01*
X24059326Y21160000D01*
X23869138Y21032920D01*
X23587080Y20750862D01*
X23365468Y20419197D01*
X23212820Y20050671D01*
X23135000Y19659445D01*
X23135000Y19260555D01*
X23212820Y18869329D01*
X23365468Y18500803D01*
X23545822Y18230885D01*
X13681603Y28095104D01*
X27635200Y28095104D01*
X27635200Y27784896D01*
X27695718Y27480648D01*
X27814430Y27194052D01*
X27986773Y26936123D01*
X28206123Y26716773D01*
X28464052Y26544430D01*
X28750648Y26425718D01*
X29054896Y26365200D01*
X29365104Y26365200D01*
X29669352Y26425718D01*
X29955948Y26544430D01*
X30213877Y26716773D01*
X30433227Y26936123D01*
X30594844Y27178000D01*
X64454370Y27178000D01*
X64598321Y27034049D01*
X64555000Y26816260D01*
X64555000Y26523740D01*
X64612068Y26236842D01*
X64724010Y25966589D01*
X64886525Y25723368D01*
X65093368Y25516525D01*
X65336589Y25354010D01*
X65606842Y25242068D01*
X65893740Y25185000D01*
X66186260Y25185000D01*
X66473158Y25242068D01*
X66743411Y25354010D01*
X66986632Y25516525D01*
X67193475Y25723368D01*
X67355990Y25966589D01*
X67467932Y26236842D01*
X67525000Y26523740D01*
X67525000Y26816260D01*
X67467932Y27103158D01*
X67355990Y27373411D01*
X67193475Y27616632D01*
X67061620Y27748487D01*
X67134180Y27770498D01*
X67244494Y27829463D01*
X67341185Y27908815D01*
X67420537Y28005506D01*
X67479502Y28115820D01*
X67515812Y28235518D01*
X67528072Y28360000D01*
X67525000Y28924250D01*
X67366250Y29083000D01*
X66167000Y29083000D01*
X66167000Y29063000D01*
X65913000Y29063000D01*
X65913000Y29083000D01*
X64713750Y29083000D01*
X64555000Y28924250D01*
X64553790Y28702000D01*
X30594844Y28702000D01*
X30433227Y28943877D01*
X30213877Y29163227D01*
X30077286Y29254495D01*
X30122871Y29387524D01*
X29210000Y30300395D01*
X28297129Y29387524D01*
X28342714Y29254495D01*
X28206123Y29163227D01*
X27986773Y28943877D01*
X27814430Y28685948D01*
X27695718Y28399352D01*
X27635200Y28095104D01*
X13681603Y28095104D01*
X13324361Y28452346D01*
X13300499Y28481422D01*
X13184469Y28576645D01*
X13052092Y28647402D01*
X12908455Y28690974D01*
X12816136Y28700066D01*
X12653227Y28943877D01*
X12433877Y29163227D01*
X12297286Y29254495D01*
X12342871Y29387524D01*
X11430000Y30300395D01*
X10517129Y29387524D01*
X10562714Y29254495D01*
X10426123Y29163227D01*
X10206773Y28943877D01*
X10034430Y28685948D01*
X9915718Y28399352D01*
X9855200Y28095104D01*
X710000Y28095104D01*
X710000Y30415023D01*
X9848916Y30415023D01*
X9891973Y30107816D01*
X9994135Y29814914D01*
X10079277Y29655623D01*
X10337524Y29567129D01*
X11250395Y30480000D01*
X11609605Y30480000D01*
X12522476Y29567129D01*
X12780723Y29655623D01*
X12915597Y29934976D01*
X12993381Y30235275D01*
X13003655Y30415023D01*
X27628916Y30415023D01*
X27671973Y30107816D01*
X27774135Y29814914D01*
X27859277Y29655623D01*
X28117524Y29567129D01*
X29030395Y30480000D01*
X29389605Y30480000D01*
X30302476Y29567129D01*
X30560723Y29655623D01*
X30695597Y29934976D01*
X30727980Y30060000D01*
X64551928Y30060000D01*
X64555000Y29495750D01*
X64713750Y29337000D01*
X65913000Y29337000D01*
X65913000Y30536250D01*
X66167000Y30536250D01*
X66167000Y29337000D01*
X67366250Y29337000D01*
X67525000Y29495750D01*
X67528072Y30060000D01*
X67515812Y30184482D01*
X67479502Y30304180D01*
X67420537Y30414494D01*
X67341185Y30511185D01*
X67244494Y30590537D01*
X67134180Y30649502D01*
X67014482Y30685812D01*
X66890000Y30698072D01*
X66325750Y30695000D01*
X66167000Y30536250D01*
X65913000Y30536250D01*
X65754250Y30695000D01*
X65190000Y30698072D01*
X65065518Y30685812D01*
X64945820Y30649502D01*
X64835506Y30590537D01*
X64738815Y30511185D01*
X64659463Y30414494D01*
X64600498Y30304180D01*
X64564188Y30184482D01*
X64551928Y30060000D01*
X30727980Y30060000D01*
X30773381Y30235275D01*
X30791084Y30544977D01*
X30748027Y30852184D01*
X30645865Y31145086D01*
X30560723Y31304377D01*
X30302476Y31392871D01*
X29389605Y30480000D01*
X29030395Y30480000D01*
X28117524Y31392871D01*
X27859277Y31304377D01*
X27724403Y31025024D01*
X27646619Y30724725D01*
X27628916Y30415023D01*
X13003655Y30415023D01*
X13011084Y30544977D01*
X12968027Y30852184D01*
X12865865Y31145086D01*
X12780723Y31304377D01*
X12522476Y31392871D01*
X11609605Y30480000D01*
X11250395Y30480000D01*
X10337524Y31392871D01*
X10079277Y31304377D01*
X9944403Y31025024D01*
X9866619Y30724725D01*
X9848916Y30415023D01*
X710000Y30415023D01*
X710000Y31572476D01*
X10517129Y31572476D01*
X11430000Y30659605D01*
X12342871Y31572476D01*
X28297129Y31572476D01*
X29210000Y30659605D01*
X30122871Y31572476D01*
X30034377Y31830723D01*
X29755024Y31965597D01*
X29454725Y32043381D01*
X29145023Y32061084D01*
X28837816Y32018027D01*
X28544914Y31915865D01*
X28385623Y31830723D01*
X28297129Y31572476D01*
X12342871Y31572476D01*
X12254377Y31830723D01*
X11975024Y31965597D01*
X11674725Y32043381D01*
X11365023Y32061084D01*
X11057816Y32018027D01*
X10764914Y31915865D01*
X10605623Y31830723D01*
X10517129Y31572476D01*
X710000Y31572476D01*
X710000Y38950000D01*
X1051928Y38950000D01*
X1051928Y37250000D01*
X1064188Y37125518D01*
X1100498Y37005820D01*
X1159463Y36895506D01*
X1238815Y36798815D01*
X1335506Y36719463D01*
X1445820Y36660498D01*
X1565518Y36624188D01*
X1690000Y36611928D01*
X3390000Y36611928D01*
X3514482Y36624188D01*
X3634180Y36660498D01*
X3744494Y36719463D01*
X3841185Y36798815D01*
X3920537Y36895506D01*
X3979502Y37005820D01*
X4015812Y37125518D01*
X4028072Y37250000D01*
X4028072Y38950000D01*
X4015812Y39074482D01*
X3979502Y39194180D01*
X3920537Y39304494D01*
X3841185Y39401185D01*
X3744494Y39480537D01*
X3634180Y39539502D01*
X3561620Y39561513D01*
X3693475Y39693368D01*
X3855990Y39936589D01*
X3967932Y40206842D01*
X4025000Y40493740D01*
X4025000Y40786260D01*
X3967932Y41073158D01*
X3855990Y41343411D01*
X3693475Y41586632D01*
X3486632Y41793475D01*
X3312240Y41910000D01*
X3486632Y42026525D01*
X3693475Y42233368D01*
X3855990Y42476589D01*
X3967932Y42746842D01*
X4025000Y43033740D01*
X4025000Y43326260D01*
X4023241Y43335104D01*
X9855200Y43335104D01*
X9855200Y43024896D01*
X9915718Y42720648D01*
X10034430Y42434052D01*
X10206773Y42176123D01*
X10426123Y41956773D01*
X10496124Y41910000D01*
X10426123Y41863227D01*
X10206773Y41643877D01*
X10034430Y41385948D01*
X9915718Y41099352D01*
X9855200Y40795104D01*
X9855200Y40484896D01*
X9915718Y40180648D01*
X10034430Y39894052D01*
X10206773Y39636123D01*
X10426123Y39416773D01*
X10496124Y39370000D01*
X10426123Y39323227D01*
X10206773Y39103877D01*
X10034430Y38845948D01*
X9915718Y38559352D01*
X9855200Y38255104D01*
X9855200Y37944896D01*
X9915718Y37640648D01*
X10034430Y37354052D01*
X10206773Y37096123D01*
X10426123Y36876773D01*
X10684052Y36704430D01*
X10970648Y36585718D01*
X11274896Y36525200D01*
X11585104Y36525200D01*
X11889352Y36585718D01*
X12175948Y36704430D01*
X12433877Y36876773D01*
X12564628Y37007524D01*
X28297129Y37007524D01*
X28385623Y36749277D01*
X28664976Y36614403D01*
X28965275Y36536619D01*
X29274977Y36518916D01*
X29582184Y36561973D01*
X29875086Y36664135D01*
X30034377Y36749277D01*
X30122871Y37007524D01*
X29210000Y37920395D01*
X28297129Y37007524D01*
X12564628Y37007524D01*
X12653227Y37096123D01*
X12825570Y37354052D01*
X12944282Y37640648D01*
X13004800Y37944896D01*
X13004800Y38035023D01*
X27628916Y38035023D01*
X27671973Y37727816D01*
X27774135Y37434914D01*
X27859277Y37275623D01*
X28117524Y37187129D01*
X29030395Y38100000D01*
X29389605Y38100000D01*
X30302476Y37187129D01*
X30560723Y37275623D01*
X30695597Y37554976D01*
X30773381Y37855275D01*
X30791084Y38164977D01*
X30748027Y38472184D01*
X30645865Y38765086D01*
X30560723Y38924377D01*
X30302476Y39012871D01*
X29389605Y38100000D01*
X29030395Y38100000D01*
X28117524Y39012871D01*
X27859277Y38924377D01*
X27724403Y38645024D01*
X27646619Y38344725D01*
X27628916Y38035023D01*
X13004800Y38035023D01*
X13004800Y38255104D01*
X12944282Y38559352D01*
X12825570Y38845948D01*
X12653227Y39103877D01*
X12433877Y39323227D01*
X12363876Y39370000D01*
X12433877Y39416773D01*
X12653227Y39636123D01*
X12825570Y39894052D01*
X12944282Y40180648D01*
X13004800Y40484896D01*
X13004800Y40795104D01*
X12944282Y41099352D01*
X12825570Y41385948D01*
X12653227Y41643877D01*
X12433877Y41863227D01*
X12363876Y41910000D01*
X12433877Y41956773D01*
X12653227Y42176123D01*
X12825570Y42434052D01*
X12944282Y42720648D01*
X13004800Y43024896D01*
X13004800Y43335104D01*
X27635200Y43335104D01*
X27635200Y43024896D01*
X27695718Y42720648D01*
X27814430Y42434052D01*
X27986773Y42176123D01*
X28206123Y41956773D01*
X28276124Y41910000D01*
X28206123Y41863227D01*
X27986773Y41643877D01*
X27814430Y41385948D01*
X27695718Y41099352D01*
X27635200Y40795104D01*
X27635200Y40484896D01*
X27695718Y40180648D01*
X27814430Y39894052D01*
X27986773Y39636123D01*
X28206123Y39416773D01*
X28342714Y39325505D01*
X28297129Y39192476D01*
X29210000Y38279605D01*
X30122871Y39192476D01*
X30077286Y39325505D01*
X30213877Y39416773D01*
X30433227Y39636123D01*
X30605570Y39894052D01*
X30724282Y40180648D01*
X30784800Y40484896D01*
X30784800Y40795104D01*
X30724282Y41099352D01*
X30605570Y41385948D01*
X30433227Y41643877D01*
X30213877Y41863227D01*
X30143876Y41910000D01*
X30213877Y41956773D01*
X30433227Y42176123D01*
X30605570Y42434052D01*
X30724282Y42720648D01*
X30784800Y43024896D01*
X30784800Y43335104D01*
X30732110Y43600000D01*
X41691928Y43600000D01*
X41704188Y43475518D01*
X41740498Y43355820D01*
X41799463Y43245506D01*
X41878815Y43148815D01*
X41975506Y43069463D01*
X42085820Y43010498D01*
X42158380Y42988487D01*
X42026525Y42856632D01*
X41864010Y42613411D01*
X41752068Y42343158D01*
X41695000Y42056260D01*
X41695000Y41763740D01*
X41752068Y41476842D01*
X41864010Y41206589D01*
X42026525Y40963368D01*
X42233368Y40756525D01*
X42407760Y40640000D01*
X42233368Y40523475D01*
X42026525Y40316632D01*
X41864010Y40073411D01*
X41752068Y39803158D01*
X41695000Y39516260D01*
X41695000Y39223740D01*
X41752068Y38936842D01*
X41864010Y38666589D01*
X42026525Y38423368D01*
X42233368Y38216525D01*
X42476589Y38054010D01*
X42746842Y37942068D01*
X43033740Y37885000D01*
X43326260Y37885000D01*
X43613158Y37942068D01*
X43883411Y38054010D01*
X44126632Y38216525D01*
X44333475Y38423368D01*
X44495990Y38666589D01*
X44607932Y38936842D01*
X44665000Y39223740D01*
X44665000Y39516260D01*
X44607932Y39803158D01*
X44495990Y40073411D01*
X44333475Y40316632D01*
X44126632Y40523475D01*
X43952240Y40640000D01*
X44126632Y40756525D01*
X44333475Y40963368D01*
X44495990Y41206589D01*
X44607932Y41476842D01*
X44665000Y41763740D01*
X44665000Y42056260D01*
X44607932Y42343158D01*
X44495990Y42613411D01*
X44333475Y42856632D01*
X44201620Y42988487D01*
X44274180Y43010498D01*
X44384494Y43069463D01*
X44481185Y43148815D01*
X44560537Y43245506D01*
X44619502Y43355820D01*
X44655812Y43475518D01*
X44668072Y43600000D01*
X45501928Y43600000D01*
X45514188Y43475518D01*
X45550498Y43355820D01*
X45609463Y43245506D01*
X45688815Y43148815D01*
X45785506Y43069463D01*
X45895820Y43010498D01*
X45968380Y42988487D01*
X45836525Y42856632D01*
X45674010Y42613411D01*
X45562068Y42343158D01*
X45505000Y42056260D01*
X45505000Y41763740D01*
X45562068Y41476842D01*
X45674010Y41206589D01*
X45836525Y40963368D01*
X46043368Y40756525D01*
X46217760Y40640000D01*
X46043368Y40523475D01*
X45836525Y40316632D01*
X45674010Y40073411D01*
X45562068Y39803158D01*
X45505000Y39516260D01*
X45505000Y39223740D01*
X45562068Y38936842D01*
X45674010Y38666589D01*
X45836525Y38423368D01*
X46043368Y38216525D01*
X46286589Y38054010D01*
X46556842Y37942068D01*
X46843740Y37885000D01*
X47136260Y37885000D01*
X47423158Y37942068D01*
X47693411Y38054010D01*
X47936632Y38216525D01*
X48143475Y38423368D01*
X48305990Y38666589D01*
X48417932Y38936842D01*
X48433102Y39013110D01*
X50628524Y39013110D01*
X50673175Y38865901D01*
X50798359Y38603080D01*
X50972412Y38369731D01*
X51188645Y38174822D01*
X51438748Y38025843D01*
X51713109Y37928519D01*
X51943000Y38049186D01*
X51943000Y39243000D01*
X52197000Y39243000D01*
X52197000Y38049186D01*
X52426891Y37928519D01*
X52701252Y38025843D01*
X52951355Y38174822D01*
X53167588Y38369731D01*
X53341641Y38603080D01*
X53466825Y38865901D01*
X53511476Y39013110D01*
X54438524Y39013110D01*
X54483175Y38865901D01*
X54608359Y38603080D01*
X54782412Y38369731D01*
X54998645Y38174822D01*
X55248748Y38025843D01*
X55523109Y37928519D01*
X55753000Y38049186D01*
X55753000Y39243000D01*
X56007000Y39243000D01*
X56007000Y38049186D01*
X56236891Y37928519D01*
X56511252Y38025843D01*
X56761355Y38174822D01*
X56977588Y38369731D01*
X57151641Y38603080D01*
X57276825Y38865901D01*
X57321476Y39013110D01*
X58248524Y39013110D01*
X58293175Y38865901D01*
X58418359Y38603080D01*
X58592412Y38369731D01*
X58808645Y38174822D01*
X59058748Y38025843D01*
X59333109Y37928519D01*
X59563000Y38049186D01*
X59563000Y39243000D01*
X59817000Y39243000D01*
X59817000Y38049186D01*
X60046891Y37928519D01*
X60321252Y38025843D01*
X60571355Y38174822D01*
X60787588Y38369731D01*
X60961641Y38603080D01*
X61086825Y38865901D01*
X61131476Y39013110D01*
X62058524Y39013110D01*
X62103175Y38865901D01*
X62228359Y38603080D01*
X62402412Y38369731D01*
X62618645Y38174822D01*
X62868748Y38025843D01*
X63143109Y37928519D01*
X63373000Y38049186D01*
X63373000Y39243000D01*
X63627000Y39243000D01*
X63627000Y38049186D01*
X63856891Y37928519D01*
X64131252Y38025843D01*
X64381355Y38174822D01*
X64597588Y38369731D01*
X64771641Y38603080D01*
X64896825Y38865901D01*
X64941476Y39013110D01*
X64820155Y39243000D01*
X63627000Y39243000D01*
X63373000Y39243000D01*
X62179845Y39243000D01*
X62058524Y39013110D01*
X61131476Y39013110D01*
X61010155Y39243000D01*
X59817000Y39243000D01*
X59563000Y39243000D01*
X58369845Y39243000D01*
X58248524Y39013110D01*
X57321476Y39013110D01*
X57200155Y39243000D01*
X56007000Y39243000D01*
X55753000Y39243000D01*
X54559845Y39243000D01*
X54438524Y39013110D01*
X53511476Y39013110D01*
X53390155Y39243000D01*
X52197000Y39243000D01*
X51943000Y39243000D01*
X50749845Y39243000D01*
X50628524Y39013110D01*
X48433102Y39013110D01*
X48475000Y39223740D01*
X48475000Y39516260D01*
X48417932Y39803158D01*
X48305990Y40073411D01*
X48143475Y40316632D01*
X47936632Y40523475D01*
X47762240Y40640000D01*
X47936632Y40756525D01*
X48143475Y40963368D01*
X48305990Y41206589D01*
X48417932Y41476842D01*
X48475000Y41763740D01*
X48475000Y42056260D01*
X48417932Y42343158D01*
X48305990Y42613411D01*
X48208043Y42760000D01*
X50581928Y42760000D01*
X50581928Y41060000D01*
X50594188Y40935518D01*
X50630498Y40815820D01*
X50689463Y40705506D01*
X50768815Y40608815D01*
X50865506Y40529463D01*
X50975820Y40470498D01*
X51056466Y40446034D01*
X50972412Y40370269D01*
X50798359Y40136920D01*
X50673175Y39874099D01*
X50628524Y39726890D01*
X50749845Y39497000D01*
X51943000Y39497000D01*
X51943000Y39517000D01*
X52197000Y39517000D01*
X52197000Y39497000D01*
X53390155Y39497000D01*
X53511476Y39726890D01*
X53466825Y39874099D01*
X53341641Y40136920D01*
X53167588Y40370269D01*
X53083534Y40446034D01*
X53164180Y40470498D01*
X53274494Y40529463D01*
X53371185Y40608815D01*
X53450537Y40705506D01*
X53509502Y40815820D01*
X53545812Y40935518D01*
X53558072Y41060000D01*
X53558072Y42760000D01*
X54391928Y42760000D01*
X54391928Y41060000D01*
X54404188Y40935518D01*
X54440498Y40815820D01*
X54499463Y40705506D01*
X54578815Y40608815D01*
X54675506Y40529463D01*
X54785820Y40470498D01*
X54866466Y40446034D01*
X54782412Y40370269D01*
X54608359Y40136920D01*
X54483175Y39874099D01*
X54438524Y39726890D01*
X54559845Y39497000D01*
X55753000Y39497000D01*
X55753000Y39517000D01*
X56007000Y39517000D01*
X56007000Y39497000D01*
X57200155Y39497000D01*
X57321476Y39726890D01*
X57276825Y39874099D01*
X57151641Y40136920D01*
X56977588Y40370269D01*
X56893534Y40446034D01*
X56974180Y40470498D01*
X57084494Y40529463D01*
X57181185Y40608815D01*
X57260537Y40705506D01*
X57319502Y40815820D01*
X57355812Y40935518D01*
X57368072Y41060000D01*
X57368072Y42760000D01*
X58201928Y42760000D01*
X58201928Y41060000D01*
X58214188Y40935518D01*
X58250498Y40815820D01*
X58309463Y40705506D01*
X58388815Y40608815D01*
X58485506Y40529463D01*
X58595820Y40470498D01*
X58676466Y40446034D01*
X58592412Y40370269D01*
X58418359Y40136920D01*
X58293175Y39874099D01*
X58248524Y39726890D01*
X58369845Y39497000D01*
X59563000Y39497000D01*
X59563000Y39517000D01*
X59817000Y39517000D01*
X59817000Y39497000D01*
X61010155Y39497000D01*
X61131476Y39726890D01*
X61086825Y39874099D01*
X60961641Y40136920D01*
X60787588Y40370269D01*
X60703534Y40446034D01*
X60784180Y40470498D01*
X60894494Y40529463D01*
X60991185Y40608815D01*
X61070537Y40705506D01*
X61129502Y40815820D01*
X61165812Y40935518D01*
X61178072Y41060000D01*
X61178072Y42760000D01*
X62011928Y42760000D01*
X62011928Y41060000D01*
X62024188Y40935518D01*
X62060498Y40815820D01*
X62119463Y40705506D01*
X62198815Y40608815D01*
X62295506Y40529463D01*
X62405820Y40470498D01*
X62486466Y40446034D01*
X62402412Y40370269D01*
X62228359Y40136920D01*
X62103175Y39874099D01*
X62058524Y39726890D01*
X62179845Y39497000D01*
X63373000Y39497000D01*
X63373000Y39517000D01*
X63627000Y39517000D01*
X63627000Y39497000D01*
X64820155Y39497000D01*
X64941476Y39726890D01*
X64896825Y39874099D01*
X64771641Y40136920D01*
X64597588Y40370269D01*
X64513534Y40446034D01*
X64594180Y40470498D01*
X64704494Y40529463D01*
X64801185Y40608815D01*
X64880537Y40705506D01*
X64939502Y40815820D01*
X64975812Y40935518D01*
X64988072Y41060000D01*
X64988072Y42760000D01*
X64975812Y42884482D01*
X64939502Y43004180D01*
X64880537Y43114494D01*
X64801185Y43211185D01*
X64704494Y43290537D01*
X64594180Y43349502D01*
X64474482Y43385812D01*
X64350000Y43398072D01*
X62650000Y43398072D01*
X62525518Y43385812D01*
X62405820Y43349502D01*
X62295506Y43290537D01*
X62198815Y43211185D01*
X62119463Y43114494D01*
X62060498Y43004180D01*
X62024188Y42884482D01*
X62011928Y42760000D01*
X61178072Y42760000D01*
X61165812Y42884482D01*
X61129502Y43004180D01*
X61070537Y43114494D01*
X60991185Y43211185D01*
X60894494Y43290537D01*
X60784180Y43349502D01*
X60664482Y43385812D01*
X60540000Y43398072D01*
X58840000Y43398072D01*
X58715518Y43385812D01*
X58595820Y43349502D01*
X58485506Y43290537D01*
X58388815Y43211185D01*
X58309463Y43114494D01*
X58250498Y43004180D01*
X58214188Y42884482D01*
X58201928Y42760000D01*
X57368072Y42760000D01*
X57355812Y42884482D01*
X57319502Y43004180D01*
X57260537Y43114494D01*
X57181185Y43211185D01*
X57084494Y43290537D01*
X56974180Y43349502D01*
X56854482Y43385812D01*
X56730000Y43398072D01*
X55030000Y43398072D01*
X54905518Y43385812D01*
X54785820Y43349502D01*
X54675506Y43290537D01*
X54578815Y43211185D01*
X54499463Y43114494D01*
X54440498Y43004180D01*
X54404188Y42884482D01*
X54391928Y42760000D01*
X53558072Y42760000D01*
X53545812Y42884482D01*
X53509502Y43004180D01*
X53450537Y43114494D01*
X53371185Y43211185D01*
X53274494Y43290537D01*
X53164180Y43349502D01*
X53044482Y43385812D01*
X52920000Y43398072D01*
X51220000Y43398072D01*
X51095518Y43385812D01*
X50975820Y43349502D01*
X50865506Y43290537D01*
X50768815Y43211185D01*
X50689463Y43114494D01*
X50630498Y43004180D01*
X50594188Y42884482D01*
X50581928Y42760000D01*
X48208043Y42760000D01*
X48143475Y42856632D01*
X48011620Y42988487D01*
X48084180Y43010498D01*
X48194494Y43069463D01*
X48291185Y43148815D01*
X48370537Y43245506D01*
X48429502Y43355820D01*
X48465812Y43475518D01*
X48478072Y43600000D01*
X48475000Y44164250D01*
X48316250Y44323000D01*
X47117000Y44323000D01*
X47117000Y44303000D01*
X46863000Y44303000D01*
X46863000Y44323000D01*
X45663750Y44323000D01*
X45505000Y44164250D01*
X45501928Y43600000D01*
X44668072Y43600000D01*
X44665000Y44164250D01*
X44506250Y44323000D01*
X43307000Y44323000D01*
X43307000Y44303000D01*
X43053000Y44303000D01*
X43053000Y44323000D01*
X41853750Y44323000D01*
X41695000Y44164250D01*
X41691928Y43600000D01*
X30732110Y43600000D01*
X30724282Y43639352D01*
X30605570Y43925948D01*
X30433227Y44183877D01*
X30213877Y44403227D01*
X29955948Y44575570D01*
X29669352Y44694282D01*
X29365104Y44754800D01*
X29054896Y44754800D01*
X28750648Y44694282D01*
X28464052Y44575570D01*
X28206123Y44403227D01*
X27986773Y44183877D01*
X27814430Y43925948D01*
X27695718Y43639352D01*
X27635200Y43335104D01*
X13004800Y43335104D01*
X12944282Y43639352D01*
X12825570Y43925948D01*
X12653227Y44183877D01*
X12433877Y44403227D01*
X12175948Y44575570D01*
X11889352Y44694282D01*
X11585104Y44754800D01*
X11274896Y44754800D01*
X10970648Y44694282D01*
X10684052Y44575570D01*
X10426123Y44403227D01*
X10206773Y44183877D01*
X10034430Y43925948D01*
X9915718Y43639352D01*
X9855200Y43335104D01*
X4023241Y43335104D01*
X3967932Y43613158D01*
X3855990Y43883411D01*
X3693475Y44126632D01*
X3486632Y44333475D01*
X3243411Y44495990D01*
X2973158Y44607932D01*
X2686260Y44665000D01*
X2393740Y44665000D01*
X2106842Y44607932D01*
X1836589Y44495990D01*
X1593368Y44333475D01*
X1386525Y44126632D01*
X1224010Y43883411D01*
X1112068Y43613158D01*
X1055000Y43326260D01*
X1055000Y43033740D01*
X1112068Y42746842D01*
X1224010Y42476589D01*
X1386525Y42233368D01*
X1593368Y42026525D01*
X1767760Y41910000D01*
X1593368Y41793475D01*
X1386525Y41586632D01*
X1224010Y41343411D01*
X1112068Y41073158D01*
X1055000Y40786260D01*
X1055000Y40493740D01*
X1112068Y40206842D01*
X1224010Y39936589D01*
X1386525Y39693368D01*
X1518380Y39561513D01*
X1445820Y39539502D01*
X1335506Y39480537D01*
X1238815Y39401185D01*
X1159463Y39304494D01*
X1100498Y39194180D01*
X1064188Y39074482D01*
X1051928Y38950000D01*
X710000Y38950000D01*
X710000Y45300000D01*
X41691928Y45300000D01*
X41695000Y44735750D01*
X41853750Y44577000D01*
X43053000Y44577000D01*
X43053000Y45776250D01*
X43307000Y45776250D01*
X43307000Y44577000D01*
X44506250Y44577000D01*
X44665000Y44735750D01*
X44668072Y45300000D01*
X45501928Y45300000D01*
X45505000Y44735750D01*
X45663750Y44577000D01*
X46863000Y44577000D01*
X46863000Y45776250D01*
X47117000Y45776250D01*
X47117000Y44577000D01*
X48316250Y44577000D01*
X48475000Y44735750D01*
X48478072Y45300000D01*
X48465812Y45424482D01*
X48429502Y45544180D01*
X48370537Y45654494D01*
X48291185Y45751185D01*
X48194494Y45830537D01*
X48084180Y45889502D01*
X47964482Y45925812D01*
X47840000Y45938072D01*
X47275750Y45935000D01*
X47117000Y45776250D01*
X46863000Y45776250D01*
X46704250Y45935000D01*
X46140000Y45938072D01*
X46015518Y45925812D01*
X45895820Y45889502D01*
X45785506Y45830537D01*
X45688815Y45751185D01*
X45609463Y45654494D01*
X45550498Y45544180D01*
X45514188Y45424482D01*
X45501928Y45300000D01*
X44668072Y45300000D01*
X44655812Y45424482D01*
X44619502Y45544180D01*
X44560537Y45654494D01*
X44481185Y45751185D01*
X44384494Y45830537D01*
X44274180Y45889502D01*
X44154482Y45925812D01*
X44030000Y45938072D01*
X43465750Y45935000D01*
X43307000Y45776250D01*
X43053000Y45776250D01*
X42894250Y45935000D01*
X42330000Y45938072D01*
X42205518Y45925812D01*
X42085820Y45889502D01*
X41975506Y45830537D01*
X41878815Y45751185D01*
X41799463Y45654494D01*
X41740498Y45544180D01*
X41704188Y45424482D01*
X41691928Y45300000D01*
X710000Y45300000D01*
X710000Y52630000D01*
X13298293Y52630000D01*
X13168406Y52500113D01*
%TA.AperFunction,Conductor*%
D25*
G36*
X13168406Y52500113D02*
G01*
X12876536Y52063298D01*
X12675492Y51577935D01*
X12573000Y51062677D01*
X12573000Y50537323D01*
X12675492Y50022065D01*
X12876536Y49536702D01*
X13168406Y49099887D01*
X13539887Y48728406D01*
X13976702Y48436536D01*
X14462065Y48235492D01*
X14977323Y48133000D01*
X15502677Y48133000D01*
X16017935Y48235492D01*
X16503298Y48436536D01*
X16940113Y48728406D01*
X17311594Y49099887D01*
X17603464Y49536702D01*
X17659001Y49670781D01*
X17731203Y49582803D01*
X17959395Y49395531D01*
X18219737Y49256375D01*
X18502224Y49170684D01*
X18796000Y49141749D01*
X19089777Y49170684D01*
X19372264Y49256375D01*
X19632606Y49395531D01*
X19860797Y49582803D01*
X20048069Y49810994D01*
X20066000Y49844541D01*
X20083931Y49810994D01*
X20271203Y49582803D01*
X20499395Y49395531D01*
X20759737Y49256375D01*
X21042224Y49170684D01*
X21336000Y49141749D01*
X21629777Y49170684D01*
X21912264Y49256375D01*
X22172606Y49395531D01*
X22400797Y49582803D01*
X22588069Y49810994D01*
X22606000Y49844541D01*
X22623931Y49810994D01*
X22811203Y49582803D01*
X23039395Y49395531D01*
X23299737Y49256375D01*
X23582224Y49170684D01*
X23876000Y49141749D01*
X24169777Y49170684D01*
X24452264Y49256375D01*
X24712606Y49395531D01*
X24940797Y49582803D01*
X25128069Y49810994D01*
X25149424Y49850947D01*
X25297514Y49648271D01*
X25513965Y49449267D01*
X25765081Y49296314D01*
X26041211Y49195291D01*
X26056974Y49192642D01*
X26289000Y49313783D01*
X26289000Y50673000D01*
X26269000Y50673000D01*
X26269000Y50927000D01*
X26289000Y50927000D01*
X26289000Y52286217D01*
X26543000Y52286217D01*
X26543000Y50927000D01*
X26563000Y50927000D01*
X26563000Y50673000D01*
X26543000Y50673000D01*
X26543000Y49313783D01*
X26775026Y49192642D01*
X26790789Y49195291D01*
X27066919Y49296314D01*
X27318035Y49449267D01*
X27534486Y49648271D01*
X27682576Y49850947D01*
X27703931Y49810994D01*
X27891203Y49582803D01*
X28119395Y49395531D01*
X28379737Y49256375D01*
X28662224Y49170684D01*
X28956000Y49141749D01*
X29249777Y49170684D01*
X29532264Y49256375D01*
X29792606Y49395531D01*
X30020797Y49582803D01*
X30208069Y49810994D01*
X30226000Y49844541D01*
X30243931Y49810994D01*
X30431203Y49582803D01*
X30659395Y49395531D01*
X30919737Y49256375D01*
X31202224Y49170684D01*
X31496000Y49141749D01*
X31789777Y49170684D01*
X32072264Y49256375D01*
X32332606Y49395531D01*
X32560797Y49582803D01*
X32748069Y49810994D01*
X32766000Y49844541D01*
X32783931Y49810994D01*
X32971203Y49582803D01*
X33199395Y49395531D01*
X33459737Y49256375D01*
X33742224Y49170684D01*
X34036000Y49141749D01*
X34329777Y49170684D01*
X34612264Y49256375D01*
X34872606Y49395531D01*
X35100797Y49582803D01*
X35288069Y49810994D01*
X35306000Y49844541D01*
X35323931Y49810994D01*
X35511203Y49582803D01*
X35739395Y49395531D01*
X35999737Y49256375D01*
X36282224Y49170684D01*
X36576000Y49141749D01*
X36869777Y49170684D01*
X37152264Y49256375D01*
X37412606Y49395531D01*
X37640797Y49582803D01*
X37828069Y49810994D01*
X37846000Y49844541D01*
X37863931Y49810994D01*
X38051203Y49582803D01*
X38279395Y49395531D01*
X38539737Y49256375D01*
X38822224Y49170684D01*
X39116000Y49141749D01*
X39409777Y49170684D01*
X39692264Y49256375D01*
X39952606Y49395531D01*
X40180797Y49582803D01*
X40368069Y49810994D01*
X40386000Y49844541D01*
X40403931Y49810994D01*
X40591203Y49582803D01*
X40819395Y49395531D01*
X41079737Y49256375D01*
X41362224Y49170684D01*
X41656000Y49141749D01*
X41949777Y49170684D01*
X42232264Y49256375D01*
X42492606Y49395531D01*
X42720797Y49582803D01*
X42908069Y49810994D01*
X43047225Y50071337D01*
X43132916Y50353824D01*
X43154600Y50573982D01*
X43154600Y51026018D01*
X44221400Y51026018D01*
X44221400Y50573981D01*
X44243084Y50353823D01*
X44328775Y50071336D01*
X44467931Y49810994D01*
X44655203Y49582803D01*
X44883395Y49395531D01*
X45143737Y49256375D01*
X45426224Y49170684D01*
X45720000Y49141749D01*
X46013777Y49170684D01*
X46296264Y49256375D01*
X46556606Y49395531D01*
X46784797Y49582803D01*
X46972069Y49810994D01*
X46990000Y49844541D01*
X47007931Y49810994D01*
X47195203Y49582803D01*
X47423395Y49395531D01*
X47683737Y49256375D01*
X47966224Y49170684D01*
X48260000Y49141749D01*
X48553777Y49170684D01*
X48836264Y49256375D01*
X49096606Y49395531D01*
X49324797Y49582803D01*
X49512069Y49810994D01*
X49530000Y49844541D01*
X49547931Y49810994D01*
X49735203Y49582803D01*
X49963395Y49395531D01*
X50223737Y49256375D01*
X50506224Y49170684D01*
X50800000Y49141749D01*
X51093777Y49170684D01*
X51376264Y49256375D01*
X51636606Y49395531D01*
X51864797Y49582803D01*
X52052069Y49810994D01*
X52070000Y49844541D01*
X52087931Y49810994D01*
X52275203Y49582803D01*
X52503395Y49395531D01*
X52763737Y49256375D01*
X53046224Y49170684D01*
X53340000Y49141749D01*
X53633777Y49170684D01*
X53916264Y49256375D01*
X54176606Y49395531D01*
X54404797Y49582803D01*
X54592069Y49810994D01*
X54610000Y49844541D01*
X54627931Y49810994D01*
X54815203Y49582803D01*
X55043395Y49395531D01*
X55303737Y49256375D01*
X55586224Y49170684D01*
X55880000Y49141749D01*
X56173777Y49170684D01*
X56456264Y49256375D01*
X56716606Y49395531D01*
X56944797Y49582803D01*
X57132069Y49810994D01*
X57150000Y49844541D01*
X57167931Y49810994D01*
X57355203Y49582803D01*
X57583395Y49395531D01*
X57843737Y49256375D01*
X58126224Y49170684D01*
X58420000Y49141749D01*
X58713777Y49170684D01*
X58996264Y49256375D01*
X59256606Y49395531D01*
X59484797Y49582803D01*
X59672069Y49810994D01*
X59690000Y49844541D01*
X59707931Y49810994D01*
X59895203Y49582803D01*
X60123395Y49395531D01*
X60383737Y49256375D01*
X60666224Y49170684D01*
X60960000Y49141749D01*
X61253777Y49170684D01*
X61536264Y49256375D01*
X61796606Y49395531D01*
X62024797Y49582803D01*
X62212069Y49810994D01*
X62230000Y49844541D01*
X62247931Y49810994D01*
X62435203Y49582803D01*
X62663395Y49395531D01*
X62923737Y49256375D01*
X63206224Y49170684D01*
X63500000Y49141749D01*
X63793777Y49170684D01*
X64076264Y49256375D01*
X64336606Y49395531D01*
X64564797Y49582803D01*
X64752069Y49810994D01*
X64891225Y50071337D01*
X64976916Y50353824D01*
X64998600Y50573982D01*
X64998600Y51026019D01*
X64976916Y51246177D01*
X64891225Y51528664D01*
X64752069Y51789006D01*
X64564797Y52017197D01*
X64336605Y52204469D01*
X64076263Y52343625D01*
X63793776Y52429316D01*
X63500000Y52458251D01*
X63206223Y52429316D01*
X62923736Y52343625D01*
X62663394Y52204469D01*
X62435203Y52017197D01*
X62247931Y51789005D01*
X62230000Y51755459D01*
X62212069Y51789006D01*
X62024797Y52017197D01*
X61796605Y52204469D01*
X61536263Y52343625D01*
X61253776Y52429316D01*
X60960000Y52458251D01*
X60666223Y52429316D01*
X60383736Y52343625D01*
X60123394Y52204469D01*
X59895203Y52017197D01*
X59707931Y51789005D01*
X59690000Y51755459D01*
X59672069Y51789006D01*
X59484797Y52017197D01*
X59256605Y52204469D01*
X58996263Y52343625D01*
X58713776Y52429316D01*
X58420000Y52458251D01*
X58126223Y52429316D01*
X57843736Y52343625D01*
X57583394Y52204469D01*
X57355203Y52017197D01*
X57167931Y51789005D01*
X57150000Y51755459D01*
X57132069Y51789006D01*
X56944797Y52017197D01*
X56716605Y52204469D01*
X56456263Y52343625D01*
X56173776Y52429316D01*
X55880000Y52458251D01*
X55586223Y52429316D01*
X55303736Y52343625D01*
X55043394Y52204469D01*
X54815203Y52017197D01*
X54627931Y51789005D01*
X54610000Y51755459D01*
X54592069Y51789006D01*
X54404797Y52017197D01*
X54176605Y52204469D01*
X53916263Y52343625D01*
X53633776Y52429316D01*
X53340000Y52458251D01*
X53046223Y52429316D01*
X52763736Y52343625D01*
X52503394Y52204469D01*
X52275203Y52017197D01*
X52087931Y51789005D01*
X52070000Y51755459D01*
X52052069Y51789006D01*
X51864797Y52017197D01*
X51636605Y52204469D01*
X51376263Y52343625D01*
X51093776Y52429316D01*
X50800000Y52458251D01*
X50506223Y52429316D01*
X50223736Y52343625D01*
X49963394Y52204469D01*
X49735203Y52017197D01*
X49547931Y51789005D01*
X49530000Y51755459D01*
X49512069Y51789006D01*
X49324797Y52017197D01*
X49096605Y52204469D01*
X48836263Y52343625D01*
X48553776Y52429316D01*
X48260000Y52458251D01*
X47966223Y52429316D01*
X47683736Y52343625D01*
X47423394Y52204469D01*
X47195203Y52017197D01*
X47007931Y51789005D01*
X46990000Y51755459D01*
X46972069Y51789006D01*
X46784797Y52017197D01*
X46556605Y52204469D01*
X46296263Y52343625D01*
X46013776Y52429316D01*
X45720000Y52458251D01*
X45426223Y52429316D01*
X45143736Y52343625D01*
X44883394Y52204469D01*
X44655203Y52017197D01*
X44467931Y51789005D01*
X44328775Y51528663D01*
X44243084Y51246176D01*
X44221400Y51026018D01*
X43154600Y51026018D01*
X43154600Y51026019D01*
X43132916Y51246177D01*
X43047225Y51528664D01*
X42908069Y51789006D01*
X42720797Y52017197D01*
X42492605Y52204469D01*
X42232263Y52343625D01*
X41949776Y52429316D01*
X41656000Y52458251D01*
X41362223Y52429316D01*
X41079736Y52343625D01*
X40819394Y52204469D01*
X40591203Y52017197D01*
X40403931Y51789005D01*
X40386000Y51755459D01*
X40368069Y51789006D01*
X40180797Y52017197D01*
X39952605Y52204469D01*
X39692263Y52343625D01*
X39409776Y52429316D01*
X39116000Y52458251D01*
X38822223Y52429316D01*
X38539736Y52343625D01*
X38279394Y52204469D01*
X38051203Y52017197D01*
X37863931Y51789005D01*
X37846000Y51755459D01*
X37828069Y51789006D01*
X37640797Y52017197D01*
X37412605Y52204469D01*
X37152263Y52343625D01*
X36869776Y52429316D01*
X36576000Y52458251D01*
X36282223Y52429316D01*
X35999736Y52343625D01*
X35739394Y52204469D01*
X35511203Y52017197D01*
X35323931Y51789005D01*
X35306000Y51755459D01*
X35288069Y51789006D01*
X35100797Y52017197D01*
X34872605Y52204469D01*
X34612263Y52343625D01*
X34329776Y52429316D01*
X34036000Y52458251D01*
X33742223Y52429316D01*
X33459736Y52343625D01*
X33199394Y52204469D01*
X32971203Y52017197D01*
X32783931Y51789005D01*
X32766000Y51755459D01*
X32748069Y51789006D01*
X32560797Y52017197D01*
X32332605Y52204469D01*
X32072263Y52343625D01*
X31789776Y52429316D01*
X31496000Y52458251D01*
X31202223Y52429316D01*
X30919736Y52343625D01*
X30659394Y52204469D01*
X30431203Y52017197D01*
X30243931Y51789005D01*
X30226000Y51755459D01*
X30208069Y51789006D01*
X30020797Y52017197D01*
X29792605Y52204469D01*
X29532263Y52343625D01*
X29249776Y52429316D01*
X28956000Y52458251D01*
X28662223Y52429316D01*
X28379736Y52343625D01*
X28119394Y52204469D01*
X27891203Y52017197D01*
X27703931Y51789005D01*
X27682576Y51749053D01*
X27534486Y51951729D01*
X27318035Y52150733D01*
X27066919Y52303686D01*
X26790789Y52404709D01*
X26775026Y52407358D01*
X26543000Y52286217D01*
X26289000Y52286217D01*
X26056974Y52407358D01*
X26041211Y52404709D01*
X25765081Y52303686D01*
X25513965Y52150733D01*
X25297514Y51951729D01*
X25149424Y51749053D01*
X25128069Y51789006D01*
X24940797Y52017197D01*
X24712605Y52204469D01*
X24452263Y52343625D01*
X24169776Y52429316D01*
X23876000Y52458251D01*
X23582223Y52429316D01*
X23299736Y52343625D01*
X23039394Y52204469D01*
X22811203Y52017197D01*
X22623931Y51789005D01*
X22606000Y51755459D01*
X22588069Y51789006D01*
X22400797Y52017197D01*
X22172605Y52204469D01*
X21912263Y52343625D01*
X21629776Y52429316D01*
X21336000Y52458251D01*
X21042223Y52429316D01*
X20759736Y52343625D01*
X20499394Y52204469D01*
X20271203Y52017197D01*
X20083931Y51789005D01*
X20066000Y51755459D01*
X20048069Y51789006D01*
X19860797Y52017197D01*
X19632605Y52204469D01*
X19372263Y52343625D01*
X19089776Y52429316D01*
X18796000Y52458251D01*
X18502223Y52429316D01*
X18219736Y52343625D01*
X17959394Y52204469D01*
X17731203Y52017197D01*
X17659001Y51929219D01*
X17603464Y52063298D01*
X17311594Y52500113D01*
X17181707Y52630000D01*
X67870001Y52630000D01*
X67870000Y40351124D01*
X67870001Y40351114D01*
X67870000Y37811124D01*
X67870001Y37811114D01*
X67870001Y37501706D01*
X67740113Y37631594D01*
X67303298Y37923464D01*
X66817935Y38124508D01*
X66302677Y38227000D01*
X65777323Y38227000D01*
X65262065Y38124508D01*
X64776702Y37923464D01*
X64339887Y37631594D01*
X63968406Y37260113D01*
X63676536Y36823298D01*
X63475492Y36337935D01*
X63373000Y35822677D01*
X63373000Y35297323D01*
X63475492Y34782065D01*
X63676536Y34296702D01*
X63968406Y33859887D01*
X64339887Y33488406D01*
X64776702Y33196536D01*
X65262065Y32995492D01*
X65777323Y32893000D01*
X66302677Y32893000D01*
X66817935Y32995492D01*
X67303298Y33196536D01*
X67740113Y33488406D01*
X67870001Y33618294D01*
X67870000Y9561707D01*
X67740113Y9691594D01*
X67303298Y9983464D01*
X66817935Y10184508D01*
X66302677Y10287000D01*
X65777323Y10287000D01*
X65262065Y10184508D01*
X64776702Y9983464D01*
X64339887Y9691594D01*
X63968406Y9320113D01*
X63676536Y8883298D01*
X63475492Y8397935D01*
X63373000Y7882677D01*
X63373000Y7357323D01*
X63475492Y6842065D01*
X63676536Y6356702D01*
X63968406Y5919887D01*
X64339887Y5548406D01*
X64776702Y5256536D01*
X65262065Y5055492D01*
X65777323Y4953000D01*
X66302677Y4953000D01*
X66817935Y5055492D01*
X67303298Y5256536D01*
X67740113Y5548406D01*
X67870000Y5678293D01*
X67870000Y5045124D01*
X67870001Y5045114D01*
X67870000Y710000D01*
X15911707Y710000D01*
X16041594Y839887D01*
X16333464Y1276702D01*
X16534508Y1762065D01*
X16637000Y2277323D01*
X16637000Y2766018D01*
X26441400Y2766018D01*
X26441400Y2313981D01*
X26463084Y2093823D01*
X26548775Y1811336D01*
X26687931Y1550994D01*
X26875203Y1322803D01*
X27103395Y1135531D01*
X27363737Y996375D01*
X27646224Y910684D01*
X27940000Y881749D01*
X28233777Y910684D01*
X28516264Y996375D01*
X28776606Y1135531D01*
X29004797Y1322803D01*
X29192069Y1550994D01*
X29210000Y1584541D01*
X29227931Y1550994D01*
X29415203Y1322803D01*
X29643395Y1135531D01*
X29903737Y996375D01*
X30186224Y910684D01*
X30480000Y881749D01*
X30773777Y910684D01*
X31056264Y996375D01*
X31316606Y1135531D01*
X31544797Y1322803D01*
X31732069Y1550994D01*
X31750000Y1584541D01*
X31767931Y1550994D01*
X31955203Y1322803D01*
X32183395Y1135531D01*
X32443737Y996375D01*
X32726224Y910684D01*
X33020000Y881749D01*
X33313777Y910684D01*
X33596264Y996375D01*
X33856606Y1135531D01*
X34084797Y1322803D01*
X34272069Y1550994D01*
X34290000Y1584541D01*
X34307931Y1550994D01*
X34495203Y1322803D01*
X34723395Y1135531D01*
X34983737Y996375D01*
X35266224Y910684D01*
X35560000Y881749D01*
X35853777Y910684D01*
X36136264Y996375D01*
X36396606Y1135531D01*
X36624797Y1322803D01*
X36812069Y1550994D01*
X36830000Y1584541D01*
X36847931Y1550994D01*
X37035203Y1322803D01*
X37263395Y1135531D01*
X37523737Y996375D01*
X37806224Y910684D01*
X38100000Y881749D01*
X38393777Y910684D01*
X38676264Y996375D01*
X38936606Y1135531D01*
X39164797Y1322803D01*
X39352069Y1550994D01*
X39373424Y1590947D01*
X39521514Y1388271D01*
X39737965Y1189267D01*
X39989081Y1036314D01*
X40265211Y935291D01*
X40280974Y932642D01*
X40513000Y1053783D01*
X40513000Y2413000D01*
X40767000Y2413000D01*
X40767000Y1053783D01*
X40999026Y932642D01*
X41014789Y935291D01*
X41290919Y1036314D01*
X41542035Y1189267D01*
X41758486Y1388271D01*
X41910000Y1595633D01*
X42061514Y1388271D01*
X42277965Y1189267D01*
X42529081Y1036314D01*
X42805211Y935291D01*
X42820974Y932642D01*
X43053000Y1053783D01*
X43053000Y2413000D01*
X40767000Y2413000D01*
X40513000Y2413000D01*
X40493000Y2413000D01*
X40493000Y2667000D01*
X40513000Y2667000D01*
X40513000Y4026217D01*
X40767000Y4026217D01*
X40767000Y2667000D01*
X43053000Y2667000D01*
X43053000Y4026217D01*
X43307000Y4026217D01*
X43307000Y2667000D01*
X43327000Y2667000D01*
X43327000Y2413000D01*
X43307000Y2413000D01*
X43307000Y1053783D01*
X43539026Y932642D01*
X43554789Y935291D01*
X43830919Y1036314D01*
X44082035Y1189267D01*
X44298486Y1388271D01*
X44446576Y1590947D01*
X44467931Y1550994D01*
X44655203Y1322803D01*
X44883395Y1135531D01*
X45143737Y996375D01*
X45426224Y910684D01*
X45720000Y881749D01*
X46013777Y910684D01*
X46296264Y996375D01*
X46556606Y1135531D01*
X46784797Y1322803D01*
X46972069Y1550994D01*
X47111225Y1811337D01*
X47196916Y2093824D01*
X47218600Y2313982D01*
X47218600Y2766019D01*
X47196916Y2986177D01*
X47111225Y3268664D01*
X46972069Y3529006D01*
X46784797Y3757197D01*
X46556605Y3944469D01*
X46296263Y4083625D01*
X46013776Y4169316D01*
X45720000Y4198251D01*
X45426223Y4169316D01*
X45143736Y4083625D01*
X44883394Y3944469D01*
X44655203Y3757197D01*
X44467931Y3529005D01*
X44446576Y3489053D01*
X44298486Y3691729D01*
X44082035Y3890733D01*
X43830919Y4043686D01*
X43554789Y4144709D01*
X43539026Y4147358D01*
X43307000Y4026217D01*
X43053000Y4026217D01*
X42820974Y4147358D01*
X42805211Y4144709D01*
X42529081Y4043686D01*
X42277965Y3890733D01*
X42061514Y3691729D01*
X41910000Y3484367D01*
X41758486Y3691729D01*
X41542035Y3890733D01*
X41290919Y4043686D01*
X41014789Y4144709D01*
X40999026Y4147358D01*
X40767000Y4026217D01*
X40513000Y4026217D01*
X40280974Y4147358D01*
X40265211Y4144709D01*
X39989081Y4043686D01*
X39737965Y3890733D01*
X39521514Y3691729D01*
X39373424Y3489053D01*
X39352069Y3529006D01*
X39164797Y3757197D01*
X38936605Y3944469D01*
X38676263Y4083625D01*
X38393776Y4169316D01*
X38100000Y4198251D01*
X37806223Y4169316D01*
X37523736Y4083625D01*
X37263394Y3944469D01*
X37035203Y3757197D01*
X36847931Y3529005D01*
X36830000Y3495459D01*
X36812069Y3529006D01*
X36624797Y3757197D01*
X36396605Y3944469D01*
X36136263Y4083625D01*
X35853776Y4169316D01*
X35560000Y4198251D01*
X35266223Y4169316D01*
X34983736Y4083625D01*
X34723394Y3944469D01*
X34495203Y3757197D01*
X34307931Y3529005D01*
X34290000Y3495459D01*
X34272069Y3529006D01*
X34084797Y3757197D01*
X33856605Y3944469D01*
X33596263Y4083625D01*
X33313776Y4169316D01*
X33020000Y4198251D01*
X32726223Y4169316D01*
X32443736Y4083625D01*
X32183394Y3944469D01*
X31955203Y3757197D01*
X31767931Y3529005D01*
X31750000Y3495459D01*
X31732069Y3529006D01*
X31544797Y3757197D01*
X31316605Y3944469D01*
X31056263Y4083625D01*
X30773776Y4169316D01*
X30480000Y4198251D01*
X30186223Y4169316D01*
X29903736Y4083625D01*
X29643394Y3944469D01*
X29415203Y3757197D01*
X29227931Y3529005D01*
X29210000Y3495459D01*
X29192069Y3529006D01*
X29004797Y3757197D01*
X28776605Y3944469D01*
X28516263Y4083625D01*
X28233776Y4169316D01*
X27940000Y4198251D01*
X27646223Y4169316D01*
X27363736Y4083625D01*
X27103394Y3944469D01*
X26875203Y3757197D01*
X26687931Y3529005D01*
X26548775Y3268663D01*
X26463084Y2986176D01*
X26441400Y2766018D01*
X16637000Y2766018D01*
X16637000Y2802677D01*
X16534508Y3317935D01*
X16333464Y3803298D01*
X16041594Y4240113D01*
X15670113Y4611594D01*
X15233298Y4903464D01*
X14747935Y5104508D01*
X14232677Y5207000D01*
X13707323Y5207000D01*
X13192065Y5104508D01*
X12706702Y4903464D01*
X12269887Y4611594D01*
X11898406Y4240113D01*
X11606536Y3803298D01*
X11405492Y3317935D01*
X11303000Y2802677D01*
X11303000Y2277323D01*
X11405492Y1762065D01*
X11606536Y1276702D01*
X11898406Y839887D01*
X12028293Y710000D01*
X710000Y710000D01*
X710000Y8470000D01*
X1051928Y8470000D01*
X1051928Y6770000D01*
X1064188Y6645518D01*
X1100498Y6525820D01*
X1159463Y6415506D01*
X1238815Y6318815D01*
X1335506Y6239463D01*
X1445820Y6180498D01*
X1565518Y6144188D01*
X1690000Y6131928D01*
X3390000Y6131928D01*
X3514482Y6144188D01*
X3634180Y6180498D01*
X3744494Y6239463D01*
X3841185Y6318815D01*
X3920537Y6415506D01*
X3979502Y6525820D01*
X4015812Y6645518D01*
X4028072Y6770000D01*
X4028072Y7790883D01*
X10965000Y7790883D01*
X10965000Y7449117D01*
X11031675Y7113919D01*
X11162463Y6798169D01*
X11352337Y6514002D01*
X11594002Y6272337D01*
X11878169Y6082463D01*
X12193919Y5951675D01*
X12529117Y5885000D01*
X12870883Y5885000D01*
X13206081Y5951675D01*
X13521831Y6082463D01*
X13805998Y6272337D01*
X14047663Y6514002D01*
X14237537Y6798169D01*
X14368325Y7113919D01*
X14435000Y7449117D01*
X14435000Y7790883D01*
X14368325Y8126081D01*
X14237537Y8441831D01*
X14051671Y8720000D01*
X18581928Y8720000D01*
X18581928Y6520000D01*
X18594188Y6395518D01*
X18630498Y6275820D01*
X18689463Y6165506D01*
X18768815Y6068815D01*
X18865506Y5989463D01*
X18975820Y5930498D01*
X19095518Y5894188D01*
X19220000Y5881928D01*
X21420000Y5881928D01*
X21544482Y5894188D01*
X21664180Y5930498D01*
X21774494Y5989463D01*
X21871185Y6068815D01*
X21950537Y6165506D01*
X22009502Y6275820D01*
X22045812Y6395518D01*
X22058072Y6520000D01*
X22058072Y8720000D01*
X22045812Y8844482D01*
X22009502Y8964180D01*
X21950537Y9074494D01*
X21871185Y9171185D01*
X21774494Y9250537D01*
X21664180Y9309502D01*
X21544482Y9345812D01*
X21420000Y9358072D01*
X19220000Y9358072D01*
X19095518Y9345812D01*
X18975820Y9309502D01*
X18865506Y9250537D01*
X18768815Y9171185D01*
X18689463Y9074494D01*
X18630498Y8964180D01*
X18594188Y8844482D01*
X18581928Y8720000D01*
X14051671Y8720000D01*
X14047663Y8725998D01*
X13805998Y8967663D01*
X13521831Y9157537D01*
X13206081Y9288325D01*
X12870883Y9355000D01*
X12529117Y9355000D01*
X12193919Y9288325D01*
X11878169Y9157537D01*
X11594002Y8967663D01*
X11352337Y8725998D01*
X11162463Y8441831D01*
X11031675Y8126081D01*
X10965000Y7790883D01*
X4028072Y7790883D01*
X4028072Y8470000D01*
X4015812Y8594482D01*
X3979502Y8714180D01*
X3920537Y8824494D01*
X3841185Y8921185D01*
X3744494Y9000537D01*
X3634180Y9059502D01*
X3561620Y9081513D01*
X3693475Y9213368D01*
X3855990Y9456589D01*
X3967932Y9726842D01*
X4025000Y10013740D01*
X4025000Y10306260D01*
X3967932Y10593158D01*
X3855990Y10863411D01*
X3693475Y11106632D01*
X3486632Y11313475D01*
X3243411Y11475990D01*
X2973158Y11587932D01*
X2686260Y11645000D01*
X2393740Y11645000D01*
X2106842Y11587932D01*
X1836589Y11475990D01*
X1593368Y11313475D01*
X1386525Y11106632D01*
X1224010Y10863411D01*
X1112068Y10593158D01*
X1055000Y10306260D01*
X1055000Y10013740D01*
X1112068Y9726842D01*
X1224010Y9456589D01*
X1386525Y9213368D01*
X1518380Y9081513D01*
X1445820Y9059502D01*
X1335506Y9000537D01*
X1238815Y8921185D01*
X1159463Y8824494D01*
X1100498Y8714180D01*
X1064188Y8594482D01*
X1051928Y8470000D01*
X710000Y8470000D01*
X710000Y15225000D01*
X3501928Y15225000D01*
X3501928Y13475000D01*
X3531001Y13179814D01*
X3617104Y12895972D01*
X3756927Y12634382D01*
X3945097Y12405097D01*
X4174382Y12216927D01*
X4435972Y12077104D01*
X4719814Y11991001D01*
X5015000Y11961928D01*
X6765000Y11961928D01*
X7060186Y11991001D01*
X7344028Y12077104D01*
X7605618Y12216927D01*
X7834903Y12405097D01*
X8023073Y12634382D01*
X8162896Y12895972D01*
X8248999Y13179814D01*
X8278072Y13475000D01*
X8278072Y14140883D01*
X10965000Y14140883D01*
X10965000Y13799117D01*
X11031675Y13463919D01*
X11162463Y13148169D01*
X11352337Y12864002D01*
X11594002Y12622337D01*
X11878169Y12432463D01*
X12193919Y12301675D01*
X12529117Y12235000D01*
X12870883Y12235000D01*
X13206081Y12301675D01*
X13521831Y12432463D01*
X13805998Y12622337D01*
X14047663Y12864002D01*
X14237537Y13148169D01*
X14368325Y13463919D01*
X14435000Y13799117D01*
X14435000Y14140883D01*
X14368325Y14476081D01*
X14237537Y14791831D01*
X14051671Y15070000D01*
X18581928Y15070000D01*
X18581928Y12870000D01*
X18594188Y12745518D01*
X18630498Y12625820D01*
X18689463Y12515506D01*
X18768815Y12418815D01*
X18865506Y12339463D01*
X18975820Y12280498D01*
X19095518Y12244188D01*
X19220000Y12231928D01*
X21420000Y12231928D01*
X21544482Y12244188D01*
X21664180Y12280498D01*
X21774494Y12339463D01*
X21871185Y12418815D01*
X21950537Y12515506D01*
X22009502Y12625820D01*
X22045812Y12745518D01*
X22058072Y12870000D01*
X22058072Y15070000D01*
X22045812Y15194482D01*
X22009502Y15314180D01*
X21950537Y15424494D01*
X21871185Y15521185D01*
X21774494Y15600537D01*
X21664180Y15659502D01*
X21544482Y15695812D01*
X21420000Y15708072D01*
X19220000Y15708072D01*
X19095518Y15695812D01*
X18975820Y15659502D01*
X18865506Y15600537D01*
X18768815Y15521185D01*
X18689463Y15424494D01*
X18630498Y15314180D01*
X18594188Y15194482D01*
X18581928Y15070000D01*
X14051671Y15070000D01*
X14047663Y15075998D01*
X13805998Y15317663D01*
X13521831Y15507537D01*
X13206081Y15638325D01*
X12870883Y15705000D01*
X12529117Y15705000D01*
X12193919Y15638325D01*
X11878169Y15507537D01*
X11594002Y15317663D01*
X11352337Y15075998D01*
X11162463Y14791831D01*
X11031675Y14476081D01*
X10965000Y14140883D01*
X8278072Y14140883D01*
X8278072Y15225000D01*
X8248999Y15520186D01*
X8162896Y15804028D01*
X8023073Y16065618D01*
X7834903Y16294903D01*
X7605618Y16483073D01*
X7344028Y16622896D01*
X7215357Y16661928D01*
X10640000Y16661928D01*
X10764482Y16674188D01*
X10884180Y16710498D01*
X10994494Y16769463D01*
X11091185Y16848815D01*
X11170537Y16945506D01*
X11229502Y17055820D01*
X11265812Y17175518D01*
X11278072Y17300000D01*
X11278072Y20800000D01*
X11265812Y20924482D01*
X11229502Y21044180D01*
X11170537Y21154494D01*
X11091185Y21251185D01*
X10994494Y21330537D01*
X10884180Y21389502D01*
X10764482Y21425812D01*
X10640000Y21438072D01*
X7140000Y21438072D01*
X7015518Y21425812D01*
X6895820Y21389502D01*
X6785506Y21330537D01*
X6688815Y21251185D01*
X6609463Y21154494D01*
X6550498Y21044180D01*
X6514188Y20924482D01*
X6501928Y20800000D01*
X6501928Y17300000D01*
X6514188Y17175518D01*
X6550498Y17055820D01*
X6609463Y16945506D01*
X6688815Y16848815D01*
X6785506Y16769463D01*
X6862131Y16728506D01*
X6765000Y16738072D01*
X5015000Y16738072D01*
X4719814Y16708999D01*
X4435972Y16622896D01*
X4174382Y16483073D01*
X3945097Y16294903D01*
X3756927Y16065618D01*
X3617104Y15804028D01*
X3531001Y15520186D01*
X3501928Y15225000D01*
X710000Y15225000D01*
X710000Y17300000D01*
X751928Y17300000D01*
X764188Y17175518D01*
X800498Y17055820D01*
X859463Y16945506D01*
X938815Y16848815D01*
X1035506Y16769463D01*
X1145820Y16710498D01*
X1265518Y16674188D01*
X1390000Y16661928D01*
X2604250Y16665000D01*
X2763000Y16823750D01*
X2763000Y18923000D01*
X3017000Y18923000D01*
X3017000Y16823750D01*
X3175750Y16665000D01*
X4390000Y16661928D01*
X4514482Y16674188D01*
X4634180Y16710498D01*
X4744494Y16769463D01*
X4841185Y16848815D01*
X4920537Y16945506D01*
X4979502Y17055820D01*
X5015812Y17175518D01*
X5028072Y17300000D01*
X5025000Y18764250D01*
X4866250Y18923000D01*
X3017000Y18923000D01*
X2763000Y18923000D01*
X913750Y18923000D01*
X755000Y18764250D01*
X751928Y17300000D01*
X710000Y17300000D01*
X710000Y20800000D01*
X751928Y20800000D01*
X755000Y19335750D01*
X913750Y19177000D01*
X2763000Y19177000D01*
X2763000Y21276250D01*
X3017000Y21276250D01*
X3017000Y19177000D01*
X4866250Y19177000D01*
X5025000Y19335750D01*
X5028072Y20800000D01*
X5015812Y20924482D01*
X4979502Y21044180D01*
X4920537Y21154494D01*
X4841185Y21251185D01*
X4744494Y21330537D01*
X4634180Y21389502D01*
X4514482Y21425812D01*
X4390000Y21438072D01*
X3175750Y21435000D01*
X3017000Y21276250D01*
X2763000Y21276250D01*
X2604250Y21435000D01*
X1390000Y21438072D01*
X1265518Y21425812D01*
X1145820Y21389502D01*
X1035506Y21330537D01*
X938815Y21251185D01*
X859463Y21154494D01*
X800498Y21044180D01*
X764188Y20924482D01*
X751928Y20800000D01*
X710000Y20800000D01*
X710000Y28095104D01*
X9855200Y28095104D01*
X9855200Y27784896D01*
X9915718Y27480648D01*
X10034430Y27194052D01*
X10206773Y26936123D01*
X10426123Y26716773D01*
X10684052Y26544430D01*
X10970648Y26425718D01*
X11274896Y26365200D01*
X11585104Y26365200D01*
X11889352Y26425718D01*
X12175948Y26544430D01*
X12433877Y26716773D01*
X12653227Y26936123D01*
X12666083Y26955364D01*
X14786902Y24834545D01*
X14649329Y24807180D01*
X14280803Y24654532D01*
X13949138Y24432920D01*
X13667080Y24150862D01*
X13445468Y23819197D01*
X13292820Y23450671D01*
X13215000Y23059445D01*
X13215000Y22660555D01*
X13292820Y22269329D01*
X13445468Y21900803D01*
X13667080Y21569138D01*
X13949138Y21287080D01*
X14139326Y21160000D01*
X13949138Y21032920D01*
X13667080Y20750862D01*
X13445468Y20419197D01*
X13292820Y20050671D01*
X13215000Y19659445D01*
X13215000Y19260555D01*
X13292820Y18869329D01*
X13445468Y18500803D01*
X13667080Y18169138D01*
X13949138Y17887080D01*
X14280803Y17665468D01*
X14649329Y17512820D01*
X15040555Y17435000D01*
X15439445Y17435000D01*
X15830671Y17512820D01*
X16199197Y17665468D01*
X16530862Y17887080D01*
X16812920Y18169138D01*
X17034532Y18500803D01*
X17187180Y18869329D01*
X17265000Y19260555D01*
X17265000Y19659445D01*
X17187180Y20050671D01*
X17034532Y20419197D01*
X16812920Y20750862D01*
X16530862Y21032920D01*
X16340674Y21160000D01*
X16530862Y21287080D01*
X16812920Y21569138D01*
X17034532Y21900803D01*
X17187180Y22269329D01*
X17214545Y22406902D01*
X34873423Y4748024D01*
X34923355Y4654608D01*
X35018578Y4538578D01*
X35134608Y4443355D01*
X35266985Y4372598D01*
X35410622Y4329026D01*
X35522574Y4318000D01*
X51754370Y4318000D01*
X52297156Y3775213D01*
X52275203Y3757197D01*
X52087931Y3529005D01*
X52070000Y3495459D01*
X52052069Y3529006D01*
X51864797Y3757197D01*
X51636605Y3944469D01*
X51376263Y4083625D01*
X51093776Y4169316D01*
X50800000Y4198251D01*
X50506223Y4169316D01*
X50223736Y4083625D01*
X49963394Y3944469D01*
X49735203Y3757197D01*
X49547931Y3529005D01*
X49408775Y3268663D01*
X49323084Y2986176D01*
X49301400Y2766018D01*
X49301400Y2313981D01*
X49323084Y2093823D01*
X49408775Y1811336D01*
X49547931Y1550994D01*
X49735203Y1322803D01*
X49963395Y1135531D01*
X50223737Y996375D01*
X50506224Y910684D01*
X50800000Y881749D01*
X51093777Y910684D01*
X51376264Y996375D01*
X51636606Y1135531D01*
X51864797Y1322803D01*
X52052069Y1550994D01*
X52070000Y1584541D01*
X52087931Y1550994D01*
X52275203Y1322803D01*
X52503395Y1135531D01*
X52763737Y996375D01*
X53046224Y910684D01*
X53340000Y881749D01*
X53633777Y910684D01*
X53916264Y996375D01*
X54176606Y1135531D01*
X54404797Y1322803D01*
X54592069Y1550994D01*
X54610000Y1584541D01*
X54627931Y1550994D01*
X54815203Y1322803D01*
X55043395Y1135531D01*
X55303737Y996375D01*
X55586224Y910684D01*
X55880000Y881749D01*
X56173777Y910684D01*
X56456264Y996375D01*
X56716606Y1135531D01*
X56944797Y1322803D01*
X57132069Y1550994D01*
X57150000Y1584541D01*
X57167931Y1550994D01*
X57355203Y1322803D01*
X57583395Y1135531D01*
X57843737Y996375D01*
X58126224Y910684D01*
X58420000Y881749D01*
X58713777Y910684D01*
X58996264Y996375D01*
X59256606Y1135531D01*
X59484797Y1322803D01*
X59672069Y1550994D01*
X59690000Y1584541D01*
X59707931Y1550994D01*
X59895203Y1322803D01*
X60123395Y1135531D01*
X60383737Y996375D01*
X60666224Y910684D01*
X60960000Y881749D01*
X61253777Y910684D01*
X61536264Y996375D01*
X61796606Y1135531D01*
X62024797Y1322803D01*
X62212069Y1550994D01*
X62230000Y1584541D01*
X62247931Y1550994D01*
X62435203Y1322803D01*
X62663395Y1135531D01*
X62923737Y996375D01*
X63206224Y910684D01*
X63500000Y881749D01*
X63793777Y910684D01*
X64076264Y996375D01*
X64336606Y1135531D01*
X64564797Y1322803D01*
X64752069Y1550994D01*
X64891225Y1811337D01*
X64976916Y2093824D01*
X64998600Y2313982D01*
X64998600Y2766019D01*
X64976916Y2986177D01*
X64891225Y3268664D01*
X64752069Y3529006D01*
X64564797Y3757197D01*
X64336605Y3944469D01*
X64076263Y4083625D01*
X63793776Y4169316D01*
X63500000Y4198251D01*
X63206223Y4169316D01*
X62923736Y4083625D01*
X62663394Y3944469D01*
X62435203Y3757197D01*
X62247931Y3529005D01*
X62230000Y3495459D01*
X62212069Y3529006D01*
X62024797Y3757197D01*
X61796605Y3944469D01*
X61536263Y4083625D01*
X61253776Y4169316D01*
X60960000Y4198251D01*
X60666223Y4169316D01*
X60383736Y4083625D01*
X60123394Y3944469D01*
X59895203Y3757197D01*
X59707931Y3529005D01*
X59690000Y3495459D01*
X59672069Y3529006D01*
X59484797Y3757197D01*
X59256605Y3944469D01*
X58996263Y4083625D01*
X58713776Y4169316D01*
X58420000Y4198251D01*
X58126223Y4169316D01*
X57843736Y4083625D01*
X57583394Y3944469D01*
X57355203Y3757197D01*
X57167931Y3529005D01*
X57150000Y3495459D01*
X57132069Y3529006D01*
X56944797Y3757197D01*
X56716605Y3944469D01*
X56456263Y4083625D01*
X56173776Y4169316D01*
X55880000Y4198251D01*
X55586223Y4169316D01*
X55303736Y4083625D01*
X55043394Y3944469D01*
X54815203Y3757197D01*
X54627931Y3529005D01*
X54610000Y3495459D01*
X54592069Y3529006D01*
X54404797Y3757197D01*
X54176605Y3944469D01*
X54079800Y3996212D01*
X54047402Y4103015D01*
X53976645Y4235392D01*
X53881422Y4351422D01*
X53852352Y4375279D01*
X52635284Y5592346D01*
X52611422Y5621422D01*
X52495392Y5716645D01*
X52363015Y5787402D01*
X52219378Y5830974D01*
X52107426Y5842000D01*
X52107423Y5842000D01*
X52070000Y5845686D01*
X52032577Y5842000D01*
X39401681Y5842000D01*
X39443314Y5942510D01*
X39497000Y6212408D01*
X39497000Y6487592D01*
X39443314Y6757490D01*
X39338005Y7011727D01*
X39185120Y7240535D01*
X39179500Y7246155D01*
X39179500Y7566971D01*
X39184723Y7620000D01*
X39163880Y7831619D01*
X39102153Y8035105D01*
X39102153Y8035106D01*
X39001914Y8222640D01*
X38867015Y8387015D01*
X38825826Y8420818D01*
X38021644Y9225000D01*
X38192089Y9225000D01*
X38372729Y9260932D01*
X38542889Y9331414D01*
X38642542Y9398000D01*
X57112577Y9398000D01*
X57150000Y9394314D01*
X57187423Y9398000D01*
X57187426Y9398000D01*
X57299378Y9409026D01*
X57443015Y9452598D01*
X57575392Y9523355D01*
X57691422Y9618578D01*
X57715284Y9647654D01*
X64555000Y16487370D01*
X64555000Y16382998D01*
X64719844Y16382998D01*
X64598524Y16153110D01*
X64643175Y16005901D01*
X64768359Y15743080D01*
X64942412Y15509731D01*
X65158645Y15314822D01*
X65275534Y15245195D01*
X65093368Y15123475D01*
X64886525Y14916632D01*
X64724010Y14673411D01*
X64612068Y14403158D01*
X64555000Y14116260D01*
X64555000Y13823740D01*
X64612068Y13536842D01*
X64724010Y13266589D01*
X64886525Y13023368D01*
X65093368Y12816525D01*
X65336589Y12654010D01*
X65606842Y12542068D01*
X65893740Y12485000D01*
X66186260Y12485000D01*
X66473158Y12542068D01*
X66743411Y12654010D01*
X66986632Y12816525D01*
X67193475Y13023368D01*
X67355990Y13266589D01*
X67467932Y13536842D01*
X67525000Y13823740D01*
X67525000Y14116260D01*
X67467932Y14403158D01*
X67355990Y14673411D01*
X67193475Y14916632D01*
X66986632Y15123475D01*
X66804466Y15245195D01*
X66921355Y15314822D01*
X67137588Y15509731D01*
X67311641Y15743080D01*
X67436825Y16005901D01*
X67481476Y16153110D01*
X67360155Y16383000D01*
X66167000Y16383000D01*
X66167000Y16363000D01*
X65913000Y16363000D01*
X65913000Y16383000D01*
X65893000Y16383000D01*
X65893000Y16637000D01*
X65913000Y16637000D01*
X65913000Y16657000D01*
X66167000Y16657000D01*
X66167000Y16637000D01*
X67360155Y16637000D01*
X67481476Y16866890D01*
X67436825Y17014099D01*
X67311641Y17276920D01*
X67137588Y17510269D01*
X67053534Y17586034D01*
X67134180Y17610498D01*
X67244494Y17669463D01*
X67341185Y17748815D01*
X67420537Y17845506D01*
X67479502Y17955820D01*
X67515812Y18075518D01*
X67528072Y18200000D01*
X67528072Y19900000D01*
X67515812Y20024482D01*
X67479502Y20144180D01*
X67420537Y20254494D01*
X67341185Y20351185D01*
X67244494Y20430537D01*
X67134180Y20489502D01*
X67014482Y20525812D01*
X66890000Y20538072D01*
X65190000Y20538072D01*
X65065518Y20525812D01*
X64945820Y20489502D01*
X64835506Y20430537D01*
X64738815Y20351185D01*
X64659463Y20254494D01*
X64600498Y20144180D01*
X64564188Y20024482D01*
X64551928Y19900000D01*
X64551928Y18639558D01*
X56834370Y10922000D01*
X38642542Y10922000D01*
X38542889Y10988586D01*
X38372729Y11059068D01*
X38192089Y11095000D01*
X38007911Y11095000D01*
X37827271Y11059068D01*
X37657111Y10988586D01*
X37503972Y10886262D01*
X37373738Y10756028D01*
X37271414Y10602889D01*
X37200932Y10432729D01*
X37165000Y10252089D01*
X37165000Y10081643D01*
X35369500Y11877142D01*
X35369500Y19850000D01*
X39201928Y19850000D01*
X39201928Y18250000D01*
X39214188Y18125518D01*
X39250498Y18005820D01*
X39309463Y17895506D01*
X39388815Y17798815D01*
X39485506Y17719463D01*
X39595820Y17660498D01*
X39715518Y17624188D01*
X39840000Y17611928D01*
X41440000Y17611928D01*
X41564482Y17624188D01*
X41684180Y17660498D01*
X41794494Y17719463D01*
X41891185Y17798815D01*
X41901807Y17811758D01*
X42153996Y17692429D01*
X42428184Y17623700D01*
X42710512Y17609783D01*
X42990130Y17651213D01*
X43256292Y17746397D01*
X43381514Y17813329D01*
X43453097Y18057298D01*
X42640000Y18870395D01*
X42625858Y18856252D01*
X42446253Y19035857D01*
X42460395Y19050000D01*
X42819605Y19050000D01*
X43632702Y18236903D01*
X43876671Y18308486D01*
X43997571Y18563996D01*
X44066300Y18838184D01*
X44080217Y19120512D01*
X44038787Y19400130D01*
X43943603Y19666292D01*
X43876671Y19791514D01*
X43677340Y19850000D01*
X46821928Y19850000D01*
X46821928Y18250000D01*
X46834188Y18125518D01*
X46870498Y18005820D01*
X46929463Y17895506D01*
X47008815Y17798815D01*
X47105506Y17719463D01*
X47215820Y17660498D01*
X47335518Y17624188D01*
X47460000Y17611928D01*
X49060000Y17611928D01*
X49184482Y17624188D01*
X49304180Y17660498D01*
X49414494Y17719463D01*
X49511185Y17798815D01*
X49521807Y17811758D01*
X49773996Y17692429D01*
X50048184Y17623700D01*
X50330512Y17609783D01*
X50610130Y17651213D01*
X50876292Y17746397D01*
X51001514Y17813329D01*
X51073097Y18057298D01*
X50260000Y18870395D01*
X50245858Y18856252D01*
X50066253Y19035857D01*
X50080395Y19050000D01*
X50439605Y19050000D01*
X51252702Y18236903D01*
X51496671Y18308486D01*
X51617571Y18563996D01*
X51686300Y18838184D01*
X51700217Y19120512D01*
X51658787Y19400130D01*
X51563603Y19666292D01*
X51496671Y19791514D01*
X51252702Y19863097D01*
X50439605Y19050000D01*
X50080395Y19050000D01*
X50066253Y19064142D01*
X50245858Y19243747D01*
X50260000Y19229605D01*
X51073097Y20042702D01*
X51001514Y20286671D01*
X50746004Y20407571D01*
X50471816Y20476300D01*
X50189488Y20490217D01*
X49909870Y20448787D01*
X49643708Y20353603D01*
X49521691Y20288384D01*
X49511185Y20301185D01*
X49414494Y20380537D01*
X49304180Y20439502D01*
X49184482Y20475812D01*
X49060000Y20488072D01*
X47460000Y20488072D01*
X47335518Y20475812D01*
X47215820Y20439502D01*
X47105506Y20380537D01*
X47008815Y20301185D01*
X46929463Y20204494D01*
X46870498Y20094180D01*
X46834188Y19974482D01*
X46821928Y19850000D01*
X43677340Y19850000D01*
X43632702Y19863097D01*
X42819605Y19050000D01*
X42460395Y19050000D01*
X42446253Y19064142D01*
X42625858Y19243747D01*
X42640000Y19229605D01*
X43453097Y20042702D01*
X43381514Y20286671D01*
X43126004Y20407571D01*
X42851816Y20476300D01*
X42569488Y20490217D01*
X42289870Y20448787D01*
X42023708Y20353603D01*
X41901691Y20288384D01*
X41891185Y20301185D01*
X41794494Y20380537D01*
X41684180Y20439502D01*
X41564482Y20475812D01*
X41440000Y20488072D01*
X39840000Y20488072D01*
X39715518Y20475812D01*
X39595820Y20439502D01*
X39485506Y20380537D01*
X39388815Y20301185D01*
X39309463Y20204494D01*
X39250498Y20094180D01*
X39214188Y19974482D01*
X39201928Y19850000D01*
X35369500Y19850000D01*
X35369500Y24503845D01*
X35375120Y24509465D01*
X35528005Y24738273D01*
X35633314Y24992510D01*
X35687000Y25262408D01*
X35687000Y25537592D01*
X35633314Y25807490D01*
X35528005Y26061727D01*
X35375120Y26290535D01*
X35180535Y26485120D01*
X34951727Y26638005D01*
X34697490Y26743314D01*
X34427592Y26797000D01*
X34152408Y26797000D01*
X33882510Y26743314D01*
X33628273Y26638005D01*
X33399465Y26485120D01*
X33204880Y26290535D01*
X33051995Y26061727D01*
X32946686Y25807490D01*
X32893000Y25537592D01*
X32893000Y25262408D01*
X32946686Y24992510D01*
X33051995Y24738273D01*
X33204880Y24509465D01*
X33210501Y24503844D01*
X33210500Y11483029D01*
X33205277Y11430000D01*
X33210500Y11376972D01*
X33226120Y11218382D01*
X33287847Y11014895D01*
X33388086Y10827360D01*
X33522985Y10662985D01*
X33564184Y10629173D01*
X36990023Y7203334D01*
X36861995Y7011727D01*
X36756686Y6757490D01*
X36703000Y6487592D01*
X36703000Y6212408D01*
X36756686Y5942510D01*
X36798319Y5842000D01*
X35934707Y5842000D01*
X23930885Y17845822D01*
X24200803Y17665468D01*
X24569329Y17512820D01*
X24960555Y17435000D01*
X25359445Y17435000D01*
X25750671Y17512820D01*
X26119197Y17665468D01*
X26450862Y17887080D01*
X26732920Y18169138D01*
X26954532Y18500803D01*
X27107180Y18869329D01*
X27185000Y19260555D01*
X27185000Y19659445D01*
X27107180Y20050671D01*
X26954532Y20419197D01*
X26732920Y20750862D01*
X26450862Y21032920D01*
X26260674Y21160000D01*
X26450862Y21287080D01*
X26732920Y21569138D01*
X26954532Y21900803D01*
X27107180Y22269329D01*
X27185000Y22660555D01*
X27185000Y23059445D01*
X27107180Y23450671D01*
X26954532Y23819197D01*
X26732920Y24150862D01*
X26450862Y24432920D01*
X26119197Y24654532D01*
X25750671Y24807180D01*
X25359445Y24885000D01*
X24960555Y24885000D01*
X24569329Y24807180D01*
X24200803Y24654532D01*
X23869138Y24432920D01*
X23587080Y24150862D01*
X23365468Y23819197D01*
X23212820Y23450671D01*
X23135000Y23059445D01*
X23135000Y22660555D01*
X23212820Y22269329D01*
X23365468Y21900803D01*
X23587080Y21569138D01*
X23869138Y21287080D01*
X24059326Y21160000D01*
X23869138Y21032920D01*
X23587080Y20750862D01*
X23365468Y20419197D01*
X23212820Y20050671D01*
X23135000Y19659445D01*
X23135000Y19260555D01*
X23212820Y18869329D01*
X23365468Y18500803D01*
X23545822Y18230885D01*
X13681603Y28095104D01*
X27635200Y28095104D01*
X27635200Y27784896D01*
X27695718Y27480648D01*
X27814430Y27194052D01*
X27986773Y26936123D01*
X28206123Y26716773D01*
X28464052Y26544430D01*
X28750648Y26425718D01*
X29054896Y26365200D01*
X29365104Y26365200D01*
X29669352Y26425718D01*
X29955948Y26544430D01*
X30213877Y26716773D01*
X30433227Y26936123D01*
X30594844Y27178000D01*
X64454370Y27178000D01*
X64598321Y27034049D01*
X64555000Y26816260D01*
X64555000Y26523740D01*
X64612068Y26236842D01*
X64724010Y25966589D01*
X64886525Y25723368D01*
X65093368Y25516525D01*
X65336589Y25354010D01*
X65606842Y25242068D01*
X65893740Y25185000D01*
X66186260Y25185000D01*
X66473158Y25242068D01*
X66743411Y25354010D01*
X66986632Y25516525D01*
X67193475Y25723368D01*
X67355990Y25966589D01*
X67467932Y26236842D01*
X67525000Y26523740D01*
X67525000Y26816260D01*
X67467932Y27103158D01*
X67355990Y27373411D01*
X67193475Y27616632D01*
X67061620Y27748487D01*
X67134180Y27770498D01*
X67244494Y27829463D01*
X67341185Y27908815D01*
X67420537Y28005506D01*
X67479502Y28115820D01*
X67515812Y28235518D01*
X67528072Y28360000D01*
X67525000Y28924250D01*
X67366250Y29083000D01*
X66167000Y29083000D01*
X66167000Y29063000D01*
X65913000Y29063000D01*
X65913000Y29083000D01*
X64713750Y29083000D01*
X64555000Y28924250D01*
X64553790Y28702000D01*
X30594844Y28702000D01*
X30433227Y28943877D01*
X30213877Y29163227D01*
X30077286Y29254495D01*
X30122871Y29387524D01*
X29210000Y30300395D01*
X28297129Y29387524D01*
X28342714Y29254495D01*
X28206123Y29163227D01*
X27986773Y28943877D01*
X27814430Y28685948D01*
X27695718Y28399352D01*
X27635200Y28095104D01*
X13681603Y28095104D01*
X13324361Y28452346D01*
X13300499Y28481422D01*
X13184469Y28576645D01*
X13052092Y28647402D01*
X12908455Y28690974D01*
X12816136Y28700066D01*
X12653227Y28943877D01*
X12433877Y29163227D01*
X12297286Y29254495D01*
X12342871Y29387524D01*
X11430000Y30300395D01*
X10517129Y29387524D01*
X10562714Y29254495D01*
X10426123Y29163227D01*
X10206773Y28943877D01*
X10034430Y28685948D01*
X9915718Y28399352D01*
X9855200Y28095104D01*
X710000Y28095104D01*
X710000Y30415023D01*
X9848916Y30415023D01*
X9891973Y30107816D01*
X9994135Y29814914D01*
X10079277Y29655623D01*
X10337524Y29567129D01*
X11250395Y30480000D01*
X11609605Y30480000D01*
X12522476Y29567129D01*
X12780723Y29655623D01*
X12915597Y29934976D01*
X12993381Y30235275D01*
X13003655Y30415023D01*
X27628916Y30415023D01*
X27671973Y30107816D01*
X27774135Y29814914D01*
X27859277Y29655623D01*
X28117524Y29567129D01*
X29030395Y30480000D01*
X29389605Y30480000D01*
X30302476Y29567129D01*
X30560723Y29655623D01*
X30695597Y29934976D01*
X30727980Y30060000D01*
X64551928Y30060000D01*
X64555000Y29495750D01*
X64713750Y29337000D01*
X65913000Y29337000D01*
X65913000Y30536250D01*
X66167000Y30536250D01*
X66167000Y29337000D01*
X67366250Y29337000D01*
X67525000Y29495750D01*
X67528072Y30060000D01*
X67515812Y30184482D01*
X67479502Y30304180D01*
X67420537Y30414494D01*
X67341185Y30511185D01*
X67244494Y30590537D01*
X67134180Y30649502D01*
X67014482Y30685812D01*
X66890000Y30698072D01*
X66325750Y30695000D01*
X66167000Y30536250D01*
X65913000Y30536250D01*
X65754250Y30695000D01*
X65190000Y30698072D01*
X65065518Y30685812D01*
X64945820Y30649502D01*
X64835506Y30590537D01*
X64738815Y30511185D01*
X64659463Y30414494D01*
X64600498Y30304180D01*
X64564188Y30184482D01*
X64551928Y30060000D01*
X30727980Y30060000D01*
X30773381Y30235275D01*
X30791084Y30544977D01*
X30748027Y30852184D01*
X30645865Y31145086D01*
X30560723Y31304377D01*
X30302476Y31392871D01*
X29389605Y30480000D01*
X29030395Y30480000D01*
X28117524Y31392871D01*
X27859277Y31304377D01*
X27724403Y31025024D01*
X27646619Y30724725D01*
X27628916Y30415023D01*
X13003655Y30415023D01*
X13011084Y30544977D01*
X12968027Y30852184D01*
X12865865Y31145086D01*
X12780723Y31304377D01*
X12522476Y31392871D01*
X11609605Y30480000D01*
X11250395Y30480000D01*
X10337524Y31392871D01*
X10079277Y31304377D01*
X9944403Y31025024D01*
X9866619Y30724725D01*
X9848916Y30415023D01*
X710000Y30415023D01*
X710000Y31572476D01*
X10517129Y31572476D01*
X11430000Y30659605D01*
X12342871Y31572476D01*
X28297129Y31572476D01*
X29210000Y30659605D01*
X30122871Y31572476D01*
X30034377Y31830723D01*
X29755024Y31965597D01*
X29454725Y32043381D01*
X29145023Y32061084D01*
X28837816Y32018027D01*
X28544914Y31915865D01*
X28385623Y31830723D01*
X28297129Y31572476D01*
X12342871Y31572476D01*
X12254377Y31830723D01*
X11975024Y31965597D01*
X11674725Y32043381D01*
X11365023Y32061084D01*
X11057816Y32018027D01*
X10764914Y31915865D01*
X10605623Y31830723D01*
X10517129Y31572476D01*
X710000Y31572476D01*
X710000Y38950000D01*
X1051928Y38950000D01*
X1051928Y37250000D01*
X1064188Y37125518D01*
X1100498Y37005820D01*
X1159463Y36895506D01*
X1238815Y36798815D01*
X1335506Y36719463D01*
X1445820Y36660498D01*
X1565518Y36624188D01*
X1690000Y36611928D01*
X3390000Y36611928D01*
X3514482Y36624188D01*
X3634180Y36660498D01*
X3744494Y36719463D01*
X3841185Y36798815D01*
X3920537Y36895506D01*
X3979502Y37005820D01*
X4015812Y37125518D01*
X4028072Y37250000D01*
X4028072Y38950000D01*
X4015812Y39074482D01*
X3979502Y39194180D01*
X3920537Y39304494D01*
X3841185Y39401185D01*
X3744494Y39480537D01*
X3634180Y39539502D01*
X3561620Y39561513D01*
X3693475Y39693368D01*
X3855990Y39936589D01*
X3967932Y40206842D01*
X4025000Y40493740D01*
X4025000Y40786260D01*
X3967932Y41073158D01*
X3855990Y41343411D01*
X3693475Y41586632D01*
X3486632Y41793475D01*
X3312240Y41910000D01*
X3486632Y42026525D01*
X3693475Y42233368D01*
X3855990Y42476589D01*
X3967932Y42746842D01*
X4025000Y43033740D01*
X4025000Y43326260D01*
X4023241Y43335104D01*
X9855200Y43335104D01*
X9855200Y43024896D01*
X9915718Y42720648D01*
X10034430Y42434052D01*
X10206773Y42176123D01*
X10426123Y41956773D01*
X10496124Y41910000D01*
X10426123Y41863227D01*
X10206773Y41643877D01*
X10034430Y41385948D01*
X9915718Y41099352D01*
X9855200Y40795104D01*
X9855200Y40484896D01*
X9915718Y40180648D01*
X10034430Y39894052D01*
X10206773Y39636123D01*
X10426123Y39416773D01*
X10496124Y39370000D01*
X10426123Y39323227D01*
X10206773Y39103877D01*
X10034430Y38845948D01*
X9915718Y38559352D01*
X9855200Y38255104D01*
X9855200Y37944896D01*
X9915718Y37640648D01*
X10034430Y37354052D01*
X10206773Y37096123D01*
X10426123Y36876773D01*
X10684052Y36704430D01*
X10970648Y36585718D01*
X11274896Y36525200D01*
X11585104Y36525200D01*
X11889352Y36585718D01*
X12175948Y36704430D01*
X12433877Y36876773D01*
X12564628Y37007524D01*
X28297129Y37007524D01*
X28385623Y36749277D01*
X28664976Y36614403D01*
X28965275Y36536619D01*
X29274977Y36518916D01*
X29582184Y36561973D01*
X29875086Y36664135D01*
X30034377Y36749277D01*
X30122871Y37007524D01*
X29210000Y37920395D01*
X28297129Y37007524D01*
X12564628Y37007524D01*
X12653227Y37096123D01*
X12825570Y37354052D01*
X12944282Y37640648D01*
X13004800Y37944896D01*
X13004800Y38035023D01*
X27628916Y38035023D01*
X27671973Y37727816D01*
X27774135Y37434914D01*
X27859277Y37275623D01*
X28117524Y37187129D01*
X29030395Y38100000D01*
X29389605Y38100000D01*
X30302476Y37187129D01*
X30560723Y37275623D01*
X30695597Y37554976D01*
X30773381Y37855275D01*
X30791084Y38164977D01*
X30748027Y38472184D01*
X30645865Y38765086D01*
X30560723Y38924377D01*
X30302476Y39012871D01*
X29389605Y38100000D01*
X29030395Y38100000D01*
X28117524Y39012871D01*
X27859277Y38924377D01*
X27724403Y38645024D01*
X27646619Y38344725D01*
X27628916Y38035023D01*
X13004800Y38035023D01*
X13004800Y38255104D01*
X12944282Y38559352D01*
X12825570Y38845948D01*
X12653227Y39103877D01*
X12433877Y39323227D01*
X12363876Y39370000D01*
X12433877Y39416773D01*
X12653227Y39636123D01*
X12825570Y39894052D01*
X12944282Y40180648D01*
X13004800Y40484896D01*
X13004800Y40795104D01*
X12944282Y41099352D01*
X12825570Y41385948D01*
X12653227Y41643877D01*
X12433877Y41863227D01*
X12363876Y41910000D01*
X12433877Y41956773D01*
X12653227Y42176123D01*
X12825570Y42434052D01*
X12944282Y42720648D01*
X13004800Y43024896D01*
X13004800Y43335104D01*
X27635200Y43335104D01*
X27635200Y43024896D01*
X27695718Y42720648D01*
X27814430Y42434052D01*
X27986773Y42176123D01*
X28206123Y41956773D01*
X28276124Y41910000D01*
X28206123Y41863227D01*
X27986773Y41643877D01*
X27814430Y41385948D01*
X27695718Y41099352D01*
X27635200Y40795104D01*
X27635200Y40484896D01*
X27695718Y40180648D01*
X27814430Y39894052D01*
X27986773Y39636123D01*
X28206123Y39416773D01*
X28342714Y39325505D01*
X28297129Y39192476D01*
X29210000Y38279605D01*
X30122871Y39192476D01*
X30077286Y39325505D01*
X30213877Y39416773D01*
X30433227Y39636123D01*
X30605570Y39894052D01*
X30724282Y40180648D01*
X30784800Y40484896D01*
X30784800Y40795104D01*
X30724282Y41099352D01*
X30605570Y41385948D01*
X30433227Y41643877D01*
X30213877Y41863227D01*
X30143876Y41910000D01*
X30213877Y41956773D01*
X30433227Y42176123D01*
X30605570Y42434052D01*
X30724282Y42720648D01*
X30784800Y43024896D01*
X30784800Y43335104D01*
X30732110Y43600000D01*
X41691928Y43600000D01*
X41704188Y43475518D01*
X41740498Y43355820D01*
X41799463Y43245506D01*
X41878815Y43148815D01*
X41975506Y43069463D01*
X42085820Y43010498D01*
X42158380Y42988487D01*
X42026525Y42856632D01*
X41864010Y42613411D01*
X41752068Y42343158D01*
X41695000Y42056260D01*
X41695000Y41763740D01*
X41752068Y41476842D01*
X41864010Y41206589D01*
X42026525Y40963368D01*
X42233368Y40756525D01*
X42407760Y40640000D01*
X42233368Y40523475D01*
X42026525Y40316632D01*
X41864010Y40073411D01*
X41752068Y39803158D01*
X41695000Y39516260D01*
X41695000Y39223740D01*
X41752068Y38936842D01*
X41864010Y38666589D01*
X42026525Y38423368D01*
X42233368Y38216525D01*
X42476589Y38054010D01*
X42746842Y37942068D01*
X43033740Y37885000D01*
X43326260Y37885000D01*
X43613158Y37942068D01*
X43883411Y38054010D01*
X44126632Y38216525D01*
X44333475Y38423368D01*
X44495990Y38666589D01*
X44607932Y38936842D01*
X44665000Y39223740D01*
X44665000Y39516260D01*
X44607932Y39803158D01*
X44495990Y40073411D01*
X44333475Y40316632D01*
X44126632Y40523475D01*
X43952240Y40640000D01*
X44126632Y40756525D01*
X44333475Y40963368D01*
X44495990Y41206589D01*
X44607932Y41476842D01*
X44665000Y41763740D01*
X44665000Y42056260D01*
X44607932Y42343158D01*
X44495990Y42613411D01*
X44333475Y42856632D01*
X44201620Y42988487D01*
X44274180Y43010498D01*
X44384494Y43069463D01*
X44481185Y43148815D01*
X44560537Y43245506D01*
X44619502Y43355820D01*
X44655812Y43475518D01*
X44668072Y43600000D01*
X45501928Y43600000D01*
X45514188Y43475518D01*
X45550498Y43355820D01*
X45609463Y43245506D01*
X45688815Y43148815D01*
X45785506Y43069463D01*
X45895820Y43010498D01*
X45968380Y42988487D01*
X45836525Y42856632D01*
X45674010Y42613411D01*
X45562068Y42343158D01*
X45505000Y42056260D01*
X45505000Y41763740D01*
X45562068Y41476842D01*
X45674010Y41206589D01*
X45836525Y40963368D01*
X46043368Y40756525D01*
X46217760Y40640000D01*
X46043368Y40523475D01*
X45836525Y40316632D01*
X45674010Y40073411D01*
X45562068Y39803158D01*
X45505000Y39516260D01*
X45505000Y39223740D01*
X45562068Y38936842D01*
X45674010Y38666589D01*
X45836525Y38423368D01*
X46043368Y38216525D01*
X46286589Y38054010D01*
X46556842Y37942068D01*
X46843740Y37885000D01*
X47136260Y37885000D01*
X47423158Y37942068D01*
X47693411Y38054010D01*
X47936632Y38216525D01*
X48143475Y38423368D01*
X48305990Y38666589D01*
X48417932Y38936842D01*
X48433102Y39013110D01*
X50628524Y39013110D01*
X50673175Y38865901D01*
X50798359Y38603080D01*
X50972412Y38369731D01*
X51188645Y38174822D01*
X51438748Y38025843D01*
X51713109Y37928519D01*
X51943000Y38049186D01*
X51943000Y39243000D01*
X52197000Y39243000D01*
X52197000Y38049186D01*
X52426891Y37928519D01*
X52701252Y38025843D01*
X52951355Y38174822D01*
X53167588Y38369731D01*
X53341641Y38603080D01*
X53466825Y38865901D01*
X53511476Y39013110D01*
X54438524Y39013110D01*
X54483175Y38865901D01*
X54608359Y38603080D01*
X54782412Y38369731D01*
X54998645Y38174822D01*
X55248748Y38025843D01*
X55523109Y37928519D01*
X55753000Y38049186D01*
X55753000Y39243000D01*
X56007000Y39243000D01*
X56007000Y38049186D01*
X56236891Y37928519D01*
X56511252Y38025843D01*
X56761355Y38174822D01*
X56977588Y38369731D01*
X57151641Y38603080D01*
X57276825Y38865901D01*
X57321476Y39013110D01*
X58248524Y39013110D01*
X58293175Y38865901D01*
X58418359Y38603080D01*
X58592412Y38369731D01*
X58808645Y38174822D01*
X59058748Y38025843D01*
X59333109Y37928519D01*
X59563000Y38049186D01*
X59563000Y39243000D01*
X59817000Y39243000D01*
X59817000Y38049186D01*
X60046891Y37928519D01*
X60321252Y38025843D01*
X60571355Y38174822D01*
X60787588Y38369731D01*
X60961641Y38603080D01*
X61086825Y38865901D01*
X61131476Y39013110D01*
X62058524Y39013110D01*
X62103175Y38865901D01*
X62228359Y38603080D01*
X62402412Y38369731D01*
X62618645Y38174822D01*
X62868748Y38025843D01*
X63143109Y37928519D01*
X63373000Y38049186D01*
X63373000Y39243000D01*
X63627000Y39243000D01*
X63627000Y38049186D01*
X63856891Y37928519D01*
X64131252Y38025843D01*
X64381355Y38174822D01*
X64597588Y38369731D01*
X64771641Y38603080D01*
X64896825Y38865901D01*
X64941476Y39013110D01*
X64820155Y39243000D01*
X63627000Y39243000D01*
X63373000Y39243000D01*
X62179845Y39243000D01*
X62058524Y39013110D01*
X61131476Y39013110D01*
X61010155Y39243000D01*
X59817000Y39243000D01*
X59563000Y39243000D01*
X58369845Y39243000D01*
X58248524Y39013110D01*
X57321476Y39013110D01*
X57200155Y39243000D01*
X56007000Y39243000D01*
X55753000Y39243000D01*
X54559845Y39243000D01*
X54438524Y39013110D01*
X53511476Y39013110D01*
X53390155Y39243000D01*
X52197000Y39243000D01*
X51943000Y39243000D01*
X50749845Y39243000D01*
X50628524Y39013110D01*
X48433102Y39013110D01*
X48475000Y39223740D01*
X48475000Y39516260D01*
X48417932Y39803158D01*
X48305990Y40073411D01*
X48143475Y40316632D01*
X47936632Y40523475D01*
X47762240Y40640000D01*
X47936632Y40756525D01*
X48143475Y40963368D01*
X48305990Y41206589D01*
X48417932Y41476842D01*
X48475000Y41763740D01*
X48475000Y42056260D01*
X48417932Y42343158D01*
X48305990Y42613411D01*
X48208043Y42760000D01*
X50581928Y42760000D01*
X50581928Y41060000D01*
X50594188Y40935518D01*
X50630498Y40815820D01*
X50689463Y40705506D01*
X50768815Y40608815D01*
X50865506Y40529463D01*
X50975820Y40470498D01*
X51056466Y40446034D01*
X50972412Y40370269D01*
X50798359Y40136920D01*
X50673175Y39874099D01*
X50628524Y39726890D01*
X50749845Y39497000D01*
X51943000Y39497000D01*
X51943000Y39517000D01*
X52197000Y39517000D01*
X52197000Y39497000D01*
X53390155Y39497000D01*
X53511476Y39726890D01*
X53466825Y39874099D01*
X53341641Y40136920D01*
X53167588Y40370269D01*
X53083534Y40446034D01*
X53164180Y40470498D01*
X53274494Y40529463D01*
X53371185Y40608815D01*
X53450537Y40705506D01*
X53509502Y40815820D01*
X53545812Y40935518D01*
X53558072Y41060000D01*
X53558072Y42760000D01*
X54391928Y42760000D01*
X54391928Y41060000D01*
X54404188Y40935518D01*
X54440498Y40815820D01*
X54499463Y40705506D01*
X54578815Y40608815D01*
X54675506Y40529463D01*
X54785820Y40470498D01*
X54866466Y40446034D01*
X54782412Y40370269D01*
X54608359Y40136920D01*
X54483175Y39874099D01*
X54438524Y39726890D01*
X54559845Y39497000D01*
X55753000Y39497000D01*
X55753000Y39517000D01*
X56007000Y39517000D01*
X56007000Y39497000D01*
X57200155Y39497000D01*
X57321476Y39726890D01*
X57276825Y39874099D01*
X57151641Y40136920D01*
X56977588Y40370269D01*
X56893534Y40446034D01*
X56974180Y40470498D01*
X57084494Y40529463D01*
X57181185Y40608815D01*
X57260537Y40705506D01*
X57319502Y40815820D01*
X57355812Y40935518D01*
X57368072Y41060000D01*
X57368072Y42760000D01*
X58201928Y42760000D01*
X58201928Y41060000D01*
X58214188Y40935518D01*
X58250498Y40815820D01*
X58309463Y40705506D01*
X58388815Y40608815D01*
X58485506Y40529463D01*
X58595820Y40470498D01*
X58676466Y40446034D01*
X58592412Y40370269D01*
X58418359Y40136920D01*
X58293175Y39874099D01*
X58248524Y39726890D01*
X58369845Y39497000D01*
X59563000Y39497000D01*
X59563000Y39517000D01*
X59817000Y39517000D01*
X59817000Y39497000D01*
X61010155Y39497000D01*
X61131476Y39726890D01*
X61086825Y39874099D01*
X60961641Y40136920D01*
X60787588Y40370269D01*
X60703534Y40446034D01*
X60784180Y40470498D01*
X60894494Y40529463D01*
X60991185Y40608815D01*
X61070537Y40705506D01*
X61129502Y40815820D01*
X61165812Y40935518D01*
X61178072Y41060000D01*
X61178072Y42760000D01*
X62011928Y42760000D01*
X62011928Y41060000D01*
X62024188Y40935518D01*
X62060498Y40815820D01*
X62119463Y40705506D01*
X62198815Y40608815D01*
X62295506Y40529463D01*
X62405820Y40470498D01*
X62486466Y40446034D01*
X62402412Y40370269D01*
X62228359Y40136920D01*
X62103175Y39874099D01*
X62058524Y39726890D01*
X62179845Y39497000D01*
X63373000Y39497000D01*
X63373000Y39517000D01*
X63627000Y39517000D01*
X63627000Y39497000D01*
X64820155Y39497000D01*
X64941476Y39726890D01*
X64896825Y39874099D01*
X64771641Y40136920D01*
X64597588Y40370269D01*
X64513534Y40446034D01*
X64594180Y40470498D01*
X64704494Y40529463D01*
X64801185Y40608815D01*
X64880537Y40705506D01*
X64939502Y40815820D01*
X64975812Y40935518D01*
X64988072Y41060000D01*
X64988072Y42760000D01*
X64975812Y42884482D01*
X64939502Y43004180D01*
X64880537Y43114494D01*
X64801185Y43211185D01*
X64704494Y43290537D01*
X64594180Y43349502D01*
X64474482Y43385812D01*
X64350000Y43398072D01*
X62650000Y43398072D01*
X62525518Y43385812D01*
X62405820Y43349502D01*
X62295506Y43290537D01*
X62198815Y43211185D01*
X62119463Y43114494D01*
X62060498Y43004180D01*
X62024188Y42884482D01*
X62011928Y42760000D01*
X61178072Y42760000D01*
X61165812Y42884482D01*
X61129502Y43004180D01*
X61070537Y43114494D01*
X60991185Y43211185D01*
X60894494Y43290537D01*
X60784180Y43349502D01*
X60664482Y43385812D01*
X60540000Y43398072D01*
X58840000Y43398072D01*
X58715518Y43385812D01*
X58595820Y43349502D01*
X58485506Y43290537D01*
X58388815Y43211185D01*
X58309463Y43114494D01*
X58250498Y43004180D01*
X58214188Y42884482D01*
X58201928Y42760000D01*
X57368072Y42760000D01*
X57355812Y42884482D01*
X57319502Y43004180D01*
X57260537Y43114494D01*
X57181185Y43211185D01*
X57084494Y43290537D01*
X56974180Y43349502D01*
X56854482Y43385812D01*
X56730000Y43398072D01*
X55030000Y43398072D01*
X54905518Y43385812D01*
X54785820Y43349502D01*
X54675506Y43290537D01*
X54578815Y43211185D01*
X54499463Y43114494D01*
X54440498Y43004180D01*
X54404188Y42884482D01*
X54391928Y42760000D01*
X53558072Y42760000D01*
X53545812Y42884482D01*
X53509502Y43004180D01*
X53450537Y43114494D01*
X53371185Y43211185D01*
X53274494Y43290537D01*
X53164180Y43349502D01*
X53044482Y43385812D01*
X52920000Y43398072D01*
X51220000Y43398072D01*
X51095518Y43385812D01*
X50975820Y43349502D01*
X50865506Y43290537D01*
X50768815Y43211185D01*
X50689463Y43114494D01*
X50630498Y43004180D01*
X50594188Y42884482D01*
X50581928Y42760000D01*
X48208043Y42760000D01*
X48143475Y42856632D01*
X48011620Y42988487D01*
X48084180Y43010498D01*
X48194494Y43069463D01*
X48291185Y43148815D01*
X48370537Y43245506D01*
X48429502Y43355820D01*
X48465812Y43475518D01*
X48478072Y43600000D01*
X48475000Y44164250D01*
X48316250Y44323000D01*
X47117000Y44323000D01*
X47117000Y44303000D01*
X46863000Y44303000D01*
X46863000Y44323000D01*
X45663750Y44323000D01*
X45505000Y44164250D01*
X45501928Y43600000D01*
X44668072Y43600000D01*
X44665000Y44164250D01*
X44506250Y44323000D01*
X43307000Y44323000D01*
X43307000Y44303000D01*
X43053000Y44303000D01*
X43053000Y44323000D01*
X41853750Y44323000D01*
X41695000Y44164250D01*
X41691928Y43600000D01*
X30732110Y43600000D01*
X30724282Y43639352D01*
X30605570Y43925948D01*
X30433227Y44183877D01*
X30213877Y44403227D01*
X29955948Y44575570D01*
X29669352Y44694282D01*
X29365104Y44754800D01*
X29054896Y44754800D01*
X28750648Y44694282D01*
X28464052Y44575570D01*
X28206123Y44403227D01*
X27986773Y44183877D01*
X27814430Y43925948D01*
X27695718Y43639352D01*
X27635200Y43335104D01*
X13004800Y43335104D01*
X12944282Y43639352D01*
X12825570Y43925948D01*
X12653227Y44183877D01*
X12433877Y44403227D01*
X12175948Y44575570D01*
X11889352Y44694282D01*
X11585104Y44754800D01*
X11274896Y44754800D01*
X10970648Y44694282D01*
X10684052Y44575570D01*
X10426123Y44403227D01*
X10206773Y44183877D01*
X10034430Y43925948D01*
X9915718Y43639352D01*
X9855200Y43335104D01*
X4023241Y43335104D01*
X3967932Y43613158D01*
X3855990Y43883411D01*
X3693475Y44126632D01*
X3486632Y44333475D01*
X3243411Y44495990D01*
X2973158Y44607932D01*
X2686260Y44665000D01*
X2393740Y44665000D01*
X2106842Y44607932D01*
X1836589Y44495990D01*
X1593368Y44333475D01*
X1386525Y44126632D01*
X1224010Y43883411D01*
X1112068Y43613158D01*
X1055000Y43326260D01*
X1055000Y43033740D01*
X1112068Y42746842D01*
X1224010Y42476589D01*
X1386525Y42233368D01*
X1593368Y42026525D01*
X1767760Y41910000D01*
X1593368Y41793475D01*
X1386525Y41586632D01*
X1224010Y41343411D01*
X1112068Y41073158D01*
X1055000Y40786260D01*
X1055000Y40493740D01*
X1112068Y40206842D01*
X1224010Y39936589D01*
X1386525Y39693368D01*
X1518380Y39561513D01*
X1445820Y39539502D01*
X1335506Y39480537D01*
X1238815Y39401185D01*
X1159463Y39304494D01*
X1100498Y39194180D01*
X1064188Y39074482D01*
X1051928Y38950000D01*
X710000Y38950000D01*
X710000Y45300000D01*
X41691928Y45300000D01*
X41695000Y44735750D01*
X41853750Y44577000D01*
X43053000Y44577000D01*
X43053000Y45776250D01*
X43307000Y45776250D01*
X43307000Y44577000D01*
X44506250Y44577000D01*
X44665000Y44735750D01*
X44668072Y45300000D01*
X45501928Y45300000D01*
X45505000Y44735750D01*
X45663750Y44577000D01*
X46863000Y44577000D01*
X46863000Y45776250D01*
X47117000Y45776250D01*
X47117000Y44577000D01*
X48316250Y44577000D01*
X48475000Y44735750D01*
X48478072Y45300000D01*
X48465812Y45424482D01*
X48429502Y45544180D01*
X48370537Y45654494D01*
X48291185Y45751185D01*
X48194494Y45830537D01*
X48084180Y45889502D01*
X47964482Y45925812D01*
X47840000Y45938072D01*
X47275750Y45935000D01*
X47117000Y45776250D01*
X46863000Y45776250D01*
X46704250Y45935000D01*
X46140000Y45938072D01*
X46015518Y45925812D01*
X45895820Y45889502D01*
X45785506Y45830537D01*
X45688815Y45751185D01*
X45609463Y45654494D01*
X45550498Y45544180D01*
X45514188Y45424482D01*
X45501928Y45300000D01*
X44668072Y45300000D01*
X44655812Y45424482D01*
X44619502Y45544180D01*
X44560537Y45654494D01*
X44481185Y45751185D01*
X44384494Y45830537D01*
X44274180Y45889502D01*
X44154482Y45925812D01*
X44030000Y45938072D01*
X43465750Y45935000D01*
X43307000Y45776250D01*
X43053000Y45776250D01*
X42894250Y45935000D01*
X42330000Y45938072D01*
X42205518Y45925812D01*
X42085820Y45889502D01*
X41975506Y45830537D01*
X41878815Y45751185D01*
X41799463Y45654494D01*
X41740498Y45544180D01*
X41704188Y45424482D01*
X41691928Y45300000D01*
X710000Y45300000D01*
X710000Y52630000D01*
X13298293Y52630000D01*
X13168406Y52500113D01*
G37*
%TD.AperFunction*%
%TD*%
M02*
