%TF.GenerationSoftware,KiCad,Pcbnew,(5.1.10)-1*%
%TF.CreationDate,2021-10-12T20:12:19-04:00*%
%TF.ProjectId,monkey_arduino_shield,6d6f6e6b-6579-45f6-9172-6475696e6f5f,rev?*%
%TF.SameCoordinates,PX69db1f0PY7882d48*%
%TF.FileFunction,Legend,Top*%
%TF.FilePolarity,Positive*%
%FSLAX46Y46*%
G04 Gerber Fmt 4.6, Leading zero omitted, Abs format (unit mm)*
G04 Created by KiCad (PCBNEW (5.1.10)-1) date 2021-10-12 20:12:19*
%MOMM*%
%LPD*%
G01*
G04 APERTURE LIST*
%ADD10C,0.150000*%
%ADD11C,0.120000*%
G04 APERTURE END LIST*
D10*
X33632857Y31583334D02*
X34109047Y31583334D01*
X33537619Y31297620D02*
X33870952Y32297620D01*
X34204285Y31297620D01*
X34537619Y31964286D02*
X34537619Y31297620D01*
X34537619Y31869048D02*
X34585238Y31916667D01*
X34680476Y31964286D01*
X34823333Y31964286D01*
X34918571Y31916667D01*
X34966190Y31821429D01*
X34966190Y31297620D01*
X35870952Y31297620D02*
X35870952Y32297620D01*
X35870952Y31345239D02*
X35775714Y31297620D01*
X35585238Y31297620D01*
X35490000Y31345239D01*
X35442380Y31392858D01*
X35394761Y31488096D01*
X35394761Y31773810D01*
X35442380Y31869048D01*
X35490000Y31916667D01*
X35585238Y31964286D01*
X35775714Y31964286D01*
X35870952Y31916667D01*
X36347142Y31297620D02*
X36347142Y31964286D01*
X36347142Y31773810D02*
X36394761Y31869048D01*
X36442380Y31916667D01*
X36537619Y31964286D01*
X36632857Y31964286D01*
X37347142Y31345239D02*
X37251904Y31297620D01*
X37061428Y31297620D01*
X36966190Y31345239D01*
X36918571Y31440477D01*
X36918571Y31821429D01*
X36966190Y31916667D01*
X37061428Y31964286D01*
X37251904Y31964286D01*
X37347142Y31916667D01*
X37394761Y31821429D01*
X37394761Y31726191D01*
X36918571Y31630953D01*
X37728095Y31964286D02*
X37918571Y31297620D01*
X38109047Y31773810D01*
X38299523Y31297620D01*
X38490000Y31964286D01*
X38918571Y31345239D02*
X38918571Y31297620D01*
X38870952Y31202381D01*
X38823333Y31154762D01*
X40109047Y31297620D02*
X40109047Y32297620D01*
X40109047Y31821429D02*
X40680476Y31821429D01*
X40680476Y31297620D02*
X40680476Y32297620D01*
X41537619Y31345239D02*
X41442380Y31297620D01*
X41251904Y31297620D01*
X41156666Y31345239D01*
X41109047Y31440477D01*
X41109047Y31821429D01*
X41156666Y31916667D01*
X41251904Y31964286D01*
X41442380Y31964286D01*
X41537619Y31916667D01*
X41585238Y31821429D01*
X41585238Y31726191D01*
X41109047Y31630953D01*
X42156666Y31297620D02*
X42061428Y31345239D01*
X42013809Y31440477D01*
X42013809Y32297620D01*
X42537619Y31297620D02*
X42537619Y31964286D01*
X42537619Y31869048D02*
X42585238Y31916667D01*
X42680476Y31964286D01*
X42823333Y31964286D01*
X42918571Y31916667D01*
X42966190Y31821429D01*
X42966190Y31297620D01*
X42966190Y31821429D02*
X43013809Y31916667D01*
X43109047Y31964286D01*
X43251904Y31964286D01*
X43347142Y31916667D01*
X43394761Y31821429D01*
X43394761Y31297620D01*
X44299523Y31964286D02*
X44299523Y31297620D01*
X43870952Y31964286D02*
X43870952Y31440477D01*
X43918571Y31345239D01*
X44013809Y31297620D01*
X44156666Y31297620D01*
X44251904Y31345239D01*
X44299523Y31392858D01*
X44632857Y31964286D02*
X45013809Y31964286D01*
X44775714Y32297620D02*
X44775714Y31440477D01*
X44823333Y31345239D01*
X44918571Y31297620D01*
X45013809Y31297620D01*
X45394761Y31345239D02*
X45394761Y31297620D01*
X45347142Y31202381D01*
X45299523Y31154762D01*
X46870952Y32297620D02*
X46870952Y31583334D01*
X46823333Y31440477D01*
X46728095Y31345239D01*
X46585238Y31297620D01*
X46490000Y31297620D01*
X47728095Y31345239D02*
X47632857Y31297620D01*
X47442380Y31297620D01*
X47347142Y31345239D01*
X47299523Y31440477D01*
X47299523Y31821429D01*
X47347142Y31916667D01*
X47442380Y31964286D01*
X47632857Y31964286D01*
X47728095Y31916667D01*
X47775714Y31821429D01*
X47775714Y31726191D01*
X47299523Y31630953D01*
X48204285Y31964286D02*
X48204285Y31297620D01*
X48204285Y31869048D02*
X48251904Y31916667D01*
X48347142Y31964286D01*
X48490000Y31964286D01*
X48585238Y31916667D01*
X48632857Y31821429D01*
X48632857Y31297620D01*
X49109047Y31964286D02*
X49109047Y31297620D01*
X49109047Y31869048D02*
X49156666Y31916667D01*
X49251904Y31964286D01*
X49394761Y31964286D01*
X49490000Y31916667D01*
X49537619Y31821429D01*
X49537619Y31297620D01*
X50013809Y31297620D02*
X50013809Y31964286D01*
X50013809Y32297620D02*
X49966190Y32250000D01*
X50013809Y32202381D01*
X50061428Y32250000D01*
X50013809Y32297620D01*
X50013809Y32202381D01*
X50347142Y31964286D02*
X50728095Y31964286D01*
X50490000Y31297620D02*
X50490000Y32154762D01*
X50537619Y32250000D01*
X50632857Y32297620D01*
X50728095Y32297620D01*
X51442380Y31345239D02*
X51347142Y31297620D01*
X51156666Y31297620D01*
X51061428Y31345239D01*
X51013809Y31440477D01*
X51013809Y31821429D01*
X51061428Y31916667D01*
X51156666Y31964286D01*
X51347142Y31964286D01*
X51442380Y31916667D01*
X51490000Y31821429D01*
X51490000Y31726191D01*
X51013809Y31630953D01*
X51918571Y31297620D02*
X51918571Y31964286D01*
X51918571Y31773810D02*
X51966190Y31869048D01*
X52013809Y31916667D01*
X52109047Y31964286D01*
X52204285Y31964286D01*
X52585238Y31345239D02*
X52585238Y31297620D01*
X52537619Y31202381D01*
X52490000Y31154762D01*
X54204285Y31297620D02*
X54204285Y31821429D01*
X54156666Y31916667D01*
X54061428Y31964286D01*
X53870952Y31964286D01*
X53775714Y31916667D01*
X54204285Y31345239D02*
X54109047Y31297620D01*
X53870952Y31297620D01*
X53775714Y31345239D01*
X53728095Y31440477D01*
X53728095Y31535715D01*
X53775714Y31630953D01*
X53870952Y31678572D01*
X54109047Y31678572D01*
X54204285Y31726191D01*
X54680476Y31964286D02*
X54680476Y31297620D01*
X54680476Y31869048D02*
X54728095Y31916667D01*
X54823333Y31964286D01*
X54966190Y31964286D01*
X55061428Y31916667D01*
X55109047Y31821429D01*
X55109047Y31297620D01*
X56013809Y31297620D02*
X56013809Y32297620D01*
X56013809Y31345239D02*
X55918571Y31297620D01*
X55728095Y31297620D01*
X55632857Y31345239D01*
X55585238Y31392858D01*
X55537619Y31488096D01*
X55537619Y31773810D01*
X55585238Y31869048D01*
X55632857Y31916667D01*
X55728095Y31964286D01*
X55918571Y31964286D01*
X56013809Y31916667D01*
X57109047Y32297620D02*
X57680476Y32297620D01*
X57394761Y31297620D02*
X57394761Y32297620D01*
X57918571Y31964286D02*
X58156666Y31297620D01*
X58394761Y31964286D02*
X58156666Y31297620D01*
X58061428Y31059524D01*
X58013809Y31011905D01*
X57918571Y30964286D01*
X58918571Y31297620D02*
X58823333Y31345239D01*
X58775714Y31440477D01*
X58775714Y32297620D01*
X59680476Y31345239D02*
X59585238Y31297620D01*
X59394761Y31297620D01*
X59299523Y31345239D01*
X59251904Y31440477D01*
X59251904Y31821429D01*
X59299523Y31916667D01*
X59394761Y31964286D01*
X59585238Y31964286D01*
X59680476Y31916667D01*
X59728095Y31821429D01*
X59728095Y31726191D01*
X59251904Y31630953D01*
X60156666Y31297620D02*
X60156666Y31964286D01*
X60156666Y31773810D02*
X60204285Y31869048D01*
X60251904Y31916667D01*
X60347142Y31964286D01*
X60442380Y31964286D01*
X33981904Y34361429D02*
X34315238Y34361429D01*
X34458095Y33837620D02*
X33981904Y33837620D01*
X33981904Y34837620D01*
X34458095Y34837620D01*
X35458095Y33932858D02*
X35410476Y33885239D01*
X35267619Y33837620D01*
X35172380Y33837620D01*
X35029523Y33885239D01*
X34934285Y33980477D01*
X34886666Y34075715D01*
X34839047Y34266191D01*
X34839047Y34409048D01*
X34886666Y34599524D01*
X34934285Y34694762D01*
X35029523Y34790000D01*
X35172380Y34837620D01*
X35267619Y34837620D01*
X35410476Y34790000D01*
X35458095Y34742381D01*
X35886666Y34361429D02*
X36220000Y34361429D01*
X36362857Y33837620D02*
X35886666Y33837620D01*
X35886666Y34837620D01*
X36362857Y34837620D01*
X36696190Y34837620D02*
X37315238Y34837620D01*
X36981904Y34456667D01*
X37124761Y34456667D01*
X37220000Y34409048D01*
X37267619Y34361429D01*
X37315238Y34266191D01*
X37315238Y34028096D01*
X37267619Y33932858D01*
X37220000Y33885239D01*
X37124761Y33837620D01*
X36839047Y33837620D01*
X36743809Y33885239D01*
X36696190Y33932858D01*
X37886666Y34409048D02*
X37791428Y34456667D01*
X37743809Y34504286D01*
X37696190Y34599524D01*
X37696190Y34647143D01*
X37743809Y34742381D01*
X37791428Y34790000D01*
X37886666Y34837620D01*
X38077142Y34837620D01*
X38172380Y34790000D01*
X38220000Y34742381D01*
X38267619Y34647143D01*
X38267619Y34599524D01*
X38220000Y34504286D01*
X38172380Y34456667D01*
X38077142Y34409048D01*
X37886666Y34409048D01*
X37791428Y34361429D01*
X37743809Y34313810D01*
X37696190Y34218572D01*
X37696190Y34028096D01*
X37743809Y33932858D01*
X37791428Y33885239D01*
X37886666Y33837620D01*
X38077142Y33837620D01*
X38172380Y33885239D01*
X38220000Y33932858D01*
X38267619Y34028096D01*
X38267619Y34218572D01*
X38220000Y34313810D01*
X38172380Y34361429D01*
X38077142Y34409048D01*
X38600952Y34837620D02*
X39267619Y34837620D01*
X38839047Y33837620D01*
X39600952Y34742381D02*
X39648571Y34790000D01*
X39743809Y34837620D01*
X39981904Y34837620D01*
X40077142Y34790000D01*
X40124761Y34742381D01*
X40172380Y34647143D01*
X40172380Y34551905D01*
X40124761Y34409048D01*
X39553333Y33837620D01*
X40172380Y33837620D01*
X41362857Y34218572D02*
X42124761Y34218572D01*
X43315238Y33885239D02*
X43458095Y33837620D01*
X43696190Y33837620D01*
X43791428Y33885239D01*
X43839047Y33932858D01*
X43886666Y34028096D01*
X43886666Y34123334D01*
X43839047Y34218572D01*
X43791428Y34266191D01*
X43696190Y34313810D01*
X43505714Y34361429D01*
X43410476Y34409048D01*
X43362857Y34456667D01*
X43315238Y34551905D01*
X43315238Y34647143D01*
X43362857Y34742381D01*
X43410476Y34790000D01*
X43505714Y34837620D01*
X43743809Y34837620D01*
X43886666Y34790000D01*
X44696190Y33885239D02*
X44600952Y33837620D01*
X44410476Y33837620D01*
X44315238Y33885239D01*
X44267619Y33980477D01*
X44267619Y34361429D01*
X44315238Y34456667D01*
X44410476Y34504286D01*
X44600952Y34504286D01*
X44696190Y34456667D01*
X44743809Y34361429D01*
X44743809Y34266191D01*
X44267619Y34170953D01*
X45600952Y33885239D02*
X45505714Y33837620D01*
X45315238Y33837620D01*
X45220000Y33885239D01*
X45172380Y33932858D01*
X45124761Y34028096D01*
X45124761Y34313810D01*
X45172380Y34409048D01*
X45220000Y34456667D01*
X45315238Y34504286D01*
X45505714Y34504286D01*
X45600952Y34456667D01*
X45886666Y34504286D02*
X46267619Y34504286D01*
X46029523Y34837620D02*
X46029523Y33980477D01*
X46077142Y33885239D01*
X46172380Y33837620D01*
X46267619Y33837620D01*
X46600952Y33837620D02*
X46600952Y34504286D01*
X46600952Y34837620D02*
X46553333Y34790000D01*
X46600952Y34742381D01*
X46648571Y34790000D01*
X46600952Y34837620D01*
X46600952Y34742381D01*
X47220000Y33837620D02*
X47124761Y33885239D01*
X47077142Y33932858D01*
X47029523Y34028096D01*
X47029523Y34313810D01*
X47077142Y34409048D01*
X47124761Y34456667D01*
X47220000Y34504286D01*
X47362857Y34504286D01*
X47458095Y34456667D01*
X47505714Y34409048D01*
X47553333Y34313810D01*
X47553333Y34028096D01*
X47505714Y33932858D01*
X47458095Y33885239D01*
X47362857Y33837620D01*
X47220000Y33837620D01*
X47981904Y34504286D02*
X47981904Y33837620D01*
X47981904Y34409048D02*
X48029523Y34456667D01*
X48124761Y34504286D01*
X48267619Y34504286D01*
X48362857Y34456667D01*
X48410476Y34361429D01*
X48410476Y33837620D01*
X50220000Y33932858D02*
X50172380Y33885239D01*
X50029523Y33837620D01*
X49934285Y33837620D01*
X49791428Y33885239D01*
X49696190Y33980477D01*
X49648571Y34075715D01*
X49600952Y34266191D01*
X49600952Y34409048D01*
X49648571Y34599524D01*
X49696190Y34694762D01*
X49791428Y34790000D01*
X49934285Y34837620D01*
X50029523Y34837620D01*
X50172380Y34790000D01*
X50220000Y34742381D01*
X50696190Y33885239D02*
X50696190Y33837620D01*
X50648571Y33742381D01*
X50600952Y33694762D01*
X52410476Y34790000D02*
X52315238Y34837620D01*
X52172380Y34837620D01*
X52029523Y34790000D01*
X51934285Y34694762D01*
X51886666Y34599524D01*
X51839047Y34409048D01*
X51839047Y34266191D01*
X51886666Y34075715D01*
X51934285Y33980477D01*
X52029523Y33885239D01*
X52172380Y33837620D01*
X52267619Y33837620D01*
X52410476Y33885239D01*
X52458095Y33932858D01*
X52458095Y34266191D01*
X52267619Y34266191D01*
X52886666Y33837620D02*
X52886666Y34504286D01*
X52886666Y34313810D02*
X52934285Y34409048D01*
X52981904Y34456667D01*
X53077142Y34504286D01*
X53172380Y34504286D01*
X53648571Y33837620D02*
X53553333Y33885239D01*
X53505714Y33932858D01*
X53458095Y34028096D01*
X53458095Y34313810D01*
X53505714Y34409048D01*
X53553333Y34456667D01*
X53648571Y34504286D01*
X53791428Y34504286D01*
X53886666Y34456667D01*
X53934285Y34409048D01*
X53981904Y34313810D01*
X53981904Y34028096D01*
X53934285Y33932858D01*
X53886666Y33885239D01*
X53791428Y33837620D01*
X53648571Y33837620D01*
X54839047Y34504286D02*
X54839047Y33837620D01*
X54410476Y34504286D02*
X54410476Y33980477D01*
X54458095Y33885239D01*
X54553333Y33837620D01*
X54696190Y33837620D01*
X54791428Y33885239D01*
X54839047Y33932858D01*
X55315238Y34504286D02*
X55315238Y33504286D01*
X55315238Y34456667D02*
X55410476Y34504286D01*
X55600952Y34504286D01*
X55696190Y34456667D01*
X55743809Y34409048D01*
X55791428Y34313810D01*
X55791428Y34028096D01*
X55743809Y33932858D01*
X55696190Y33885239D01*
X55600952Y33837620D01*
X55410476Y33837620D01*
X55315238Y33885239D01*
X56934285Y34742381D02*
X56981904Y34790000D01*
X57077142Y34837620D01*
X57315238Y34837620D01*
X57410476Y34790000D01*
X57458095Y34742381D01*
X57505714Y34647143D01*
X57505714Y34551905D01*
X57458095Y34409048D01*
X56886666Y33837620D01*
X57505714Y33837620D01*
X28392380Y5365715D02*
X28392380Y4794286D01*
X28392380Y5080000D02*
X27392380Y5080000D01*
X27535238Y4984762D01*
X27630476Y4889524D01*
X27678095Y4794286D01*
D11*
%TO.C,J2*%
X9790000Y23650000D02*
X9790000Y21050000D01*
X9790000Y14450000D02*
X7890000Y14450000D01*
X9790000Y17150000D02*
X9790000Y14450000D01*
X8940000Y23850000D02*
X9990000Y23850000D01*
X9990000Y22800000D02*
X9990000Y23850000D01*
%TO.C,FB1*%
X19230000Y12630000D02*
X19230000Y12500000D01*
X19230000Y12500000D02*
X13790000Y12500000D01*
X13790000Y12500000D02*
X13790000Y12630000D01*
X19230000Y15310000D02*
X19230000Y15440000D01*
X19230000Y15440000D02*
X13790000Y15440000D01*
X13790000Y15440000D02*
X13790000Y15310000D01*
X18330000Y12500000D02*
X18330000Y15440000D01*
X18210000Y12500000D02*
X18210000Y15440000D01*
X18450000Y12500000D02*
X18450000Y15440000D01*
%TO.C,D1*%
X19230000Y6280000D02*
X19230000Y6150000D01*
X19230000Y6150000D02*
X13790000Y6150000D01*
X13790000Y6150000D02*
X13790000Y6280000D01*
X19230000Y8960000D02*
X19230000Y9090000D01*
X19230000Y9090000D02*
X13790000Y9090000D01*
X13790000Y9090000D02*
X13790000Y8960000D01*
X18330000Y6150000D02*
X18330000Y9090000D01*
X18210000Y6150000D02*
X18210000Y9090000D01*
X18450000Y6150000D02*
X18450000Y9090000D01*
%TO.C,U1*%
X31750000Y25400000D02*
X8890000Y25400000D01*
X8890000Y25400000D02*
X8890000Y46990000D01*
X8890000Y46990000D02*
X31750000Y46990000D01*
X31750000Y46990000D02*
X31750000Y25400000D01*
%TO.C,J11*%
X50740000Y40640000D02*
X53400000Y40640000D01*
X50740000Y40640000D02*
X50740000Y38040000D01*
X50740000Y38040000D02*
X53400000Y38040000D01*
X53400000Y40640000D02*
X53400000Y38040000D01*
X53400000Y43240000D02*
X53400000Y41910000D01*
X52070000Y43240000D02*
X53400000Y43240000D01*
%TO.C,J10*%
X54550000Y40640000D02*
X57210000Y40640000D01*
X54550000Y40640000D02*
X54550000Y38040000D01*
X54550000Y38040000D02*
X57210000Y38040000D01*
X57210000Y40640000D02*
X57210000Y38040000D01*
X57210000Y43240000D02*
X57210000Y41910000D01*
X55880000Y43240000D02*
X57210000Y43240000D01*
%TO.C,J9*%
X58360000Y40640000D02*
X61020000Y40640000D01*
X58360000Y40640000D02*
X58360000Y38040000D01*
X58360000Y38040000D02*
X61020000Y38040000D01*
X61020000Y40640000D02*
X61020000Y38040000D01*
X61020000Y43240000D02*
X61020000Y41910000D01*
X59690000Y43240000D02*
X61020000Y43240000D01*
%TO.C,J8*%
X62170000Y40640000D02*
X64830000Y40640000D01*
X62170000Y40640000D02*
X62170000Y38040000D01*
X62170000Y38040000D02*
X64830000Y38040000D01*
X64830000Y40640000D02*
X64830000Y38040000D01*
X64830000Y43240000D02*
X64830000Y41910000D01*
X63500000Y43240000D02*
X64830000Y43240000D01*
%TO.C,J7*%
X3870000Y8890000D02*
X1210000Y8890000D01*
X3870000Y8890000D02*
X3870000Y11490000D01*
X3870000Y11490000D02*
X1210000Y11490000D01*
X1210000Y8890000D02*
X1210000Y11490000D01*
X1210000Y6290000D02*
X1210000Y7620000D01*
X2540000Y6290000D02*
X1210000Y6290000D01*
%TO.C,J6*%
X3870000Y39370000D02*
X1210000Y39370000D01*
X3870000Y39370000D02*
X3870000Y44510000D01*
X3870000Y44510000D02*
X1210000Y44510000D01*
X1210000Y39370000D02*
X1210000Y44510000D01*
X1210000Y36770000D02*
X1210000Y38100000D01*
X2540000Y36770000D02*
X1210000Y36770000D01*
%TO.C,J5*%
X64710000Y17780000D02*
X67370000Y17780000D01*
X64710000Y17780000D02*
X64710000Y12640000D01*
X64710000Y12640000D02*
X67370000Y12640000D01*
X67370000Y17780000D02*
X67370000Y12640000D01*
X67370000Y20380000D02*
X67370000Y19050000D01*
X66040000Y20380000D02*
X67370000Y20380000D01*
%TO.C,J4*%
X45660000Y43180000D02*
X48320000Y43180000D01*
X45660000Y43180000D02*
X45660000Y38040000D01*
X45660000Y38040000D02*
X48320000Y38040000D01*
X48320000Y43180000D02*
X48320000Y38040000D01*
X48320000Y45780000D02*
X48320000Y44450000D01*
X46990000Y45780000D02*
X48320000Y45780000D01*
%TO.C,J3*%
X41850000Y43180000D02*
X44510000Y43180000D01*
X41850000Y43180000D02*
X41850000Y38040000D01*
X41850000Y38040000D02*
X44510000Y38040000D01*
X44510000Y43180000D02*
X44510000Y38040000D01*
X44510000Y45780000D02*
X44510000Y44450000D01*
X43180000Y45780000D02*
X44510000Y45780000D01*
%TO.C,J1*%
X64710000Y27940000D02*
X67370000Y27940000D01*
X64710000Y27940000D02*
X64710000Y25340000D01*
X64710000Y25340000D02*
X67370000Y25340000D01*
X67370000Y27940000D02*
X67370000Y25340000D01*
X67370000Y30540000D02*
X67370000Y29210000D01*
X66040000Y30540000D02*
X67370000Y30540000D01*
%TO.C,F1*%
X12100000Y24630000D02*
X12100000Y17690000D01*
X12100000Y17690000D02*
X28300000Y17690000D01*
X28300000Y17690000D02*
X28300000Y24630000D01*
X28300000Y24630000D02*
X12100000Y24630000D01*
X19450000Y21160000D02*
X20950000Y21160000D01*
X21800000Y19160000D02*
X18600000Y19160000D01*
X18600000Y23160000D02*
X21800000Y23160000D01*
%TO.C,C4*%
X51880000Y19050000D02*
G75*
G03*
X51880000Y19050000I-2620000J0D01*
G01*
X49260000Y18010000D02*
X49260000Y16470000D01*
X49260000Y21630000D02*
X49260000Y20090000D01*
X49300000Y18010000D02*
X49300000Y16470000D01*
X49300000Y21630000D02*
X49300000Y20090000D01*
X49340000Y21629000D02*
X49340000Y20090000D01*
X49340000Y18010000D02*
X49340000Y16471000D01*
X49380000Y21628000D02*
X49380000Y20090000D01*
X49380000Y18010000D02*
X49380000Y16472000D01*
X49420000Y21626000D02*
X49420000Y20090000D01*
X49420000Y18010000D02*
X49420000Y16474000D01*
X49460000Y21623000D02*
X49460000Y20090000D01*
X49460000Y18010000D02*
X49460000Y16477000D01*
X49500000Y21619000D02*
X49500000Y20090000D01*
X49500000Y18010000D02*
X49500000Y16481000D01*
X49540000Y21615000D02*
X49540000Y20090000D01*
X49540000Y18010000D02*
X49540000Y16485000D01*
X49580000Y21611000D02*
X49580000Y20090000D01*
X49580000Y18010000D02*
X49580000Y16489000D01*
X49620000Y21606000D02*
X49620000Y20090000D01*
X49620000Y18010000D02*
X49620000Y16494000D01*
X49660000Y21600000D02*
X49660000Y20090000D01*
X49660000Y18010000D02*
X49660000Y16500000D01*
X49700000Y21593000D02*
X49700000Y20090000D01*
X49700000Y18010000D02*
X49700000Y16507000D01*
X49740000Y21586000D02*
X49740000Y20090000D01*
X49740000Y18010000D02*
X49740000Y16514000D01*
X49780000Y21578000D02*
X49780000Y20090000D01*
X49780000Y18010000D02*
X49780000Y16522000D01*
X49820000Y21570000D02*
X49820000Y20090000D01*
X49820000Y18010000D02*
X49820000Y16530000D01*
X49860000Y21561000D02*
X49860000Y20090000D01*
X49860000Y18010000D02*
X49860000Y16539000D01*
X49900000Y21551000D02*
X49900000Y20090000D01*
X49900000Y18010000D02*
X49900000Y16549000D01*
X49940000Y21541000D02*
X49940000Y20090000D01*
X49940000Y18010000D02*
X49940000Y16559000D01*
X49981000Y21530000D02*
X49981000Y20090000D01*
X49981000Y18010000D02*
X49981000Y16570000D01*
X50021000Y21518000D02*
X50021000Y20090000D01*
X50021000Y18010000D02*
X50021000Y16582000D01*
X50061000Y21505000D02*
X50061000Y20090000D01*
X50061000Y18010000D02*
X50061000Y16595000D01*
X50101000Y21492000D02*
X50101000Y20090000D01*
X50101000Y18010000D02*
X50101000Y16608000D01*
X50141000Y21478000D02*
X50141000Y20090000D01*
X50141000Y18010000D02*
X50141000Y16622000D01*
X50181000Y21464000D02*
X50181000Y20090000D01*
X50181000Y18010000D02*
X50181000Y16636000D01*
X50221000Y21448000D02*
X50221000Y20090000D01*
X50221000Y18010000D02*
X50221000Y16652000D01*
X50261000Y21432000D02*
X50261000Y20090000D01*
X50261000Y18010000D02*
X50261000Y16668000D01*
X50301000Y21415000D02*
X50301000Y20090000D01*
X50301000Y18010000D02*
X50301000Y16685000D01*
X50341000Y21398000D02*
X50341000Y20090000D01*
X50341000Y18010000D02*
X50341000Y16702000D01*
X50381000Y21379000D02*
X50381000Y20090000D01*
X50381000Y18010000D02*
X50381000Y16721000D01*
X50421000Y21360000D02*
X50421000Y20090000D01*
X50421000Y18010000D02*
X50421000Y16740000D01*
X50461000Y21340000D02*
X50461000Y20090000D01*
X50461000Y18010000D02*
X50461000Y16760000D01*
X50501000Y21318000D02*
X50501000Y20090000D01*
X50501000Y18010000D02*
X50501000Y16782000D01*
X50541000Y21297000D02*
X50541000Y20090000D01*
X50541000Y18010000D02*
X50541000Y16803000D01*
X50581000Y21274000D02*
X50581000Y20090000D01*
X50581000Y18010000D02*
X50581000Y16826000D01*
X50621000Y21250000D02*
X50621000Y20090000D01*
X50621000Y18010000D02*
X50621000Y16850000D01*
X50661000Y21225000D02*
X50661000Y20090000D01*
X50661000Y18010000D02*
X50661000Y16875000D01*
X50701000Y21199000D02*
X50701000Y20090000D01*
X50701000Y18010000D02*
X50701000Y16901000D01*
X50741000Y21172000D02*
X50741000Y20090000D01*
X50741000Y18010000D02*
X50741000Y16928000D01*
X50781000Y21145000D02*
X50781000Y20090000D01*
X50781000Y18010000D02*
X50781000Y16955000D01*
X50821000Y21115000D02*
X50821000Y20090000D01*
X50821000Y18010000D02*
X50821000Y16985000D01*
X50861000Y21085000D02*
X50861000Y20090000D01*
X50861000Y18010000D02*
X50861000Y17015000D01*
X50901000Y21054000D02*
X50901000Y20090000D01*
X50901000Y18010000D02*
X50901000Y17046000D01*
X50941000Y21021000D02*
X50941000Y20090000D01*
X50941000Y18010000D02*
X50941000Y17079000D01*
X50981000Y20987000D02*
X50981000Y20090000D01*
X50981000Y18010000D02*
X50981000Y17113000D01*
X51021000Y20951000D02*
X51021000Y20090000D01*
X51021000Y18010000D02*
X51021000Y17149000D01*
X51061000Y20914000D02*
X51061000Y20090000D01*
X51061000Y18010000D02*
X51061000Y17186000D01*
X51101000Y20876000D02*
X51101000Y20090000D01*
X51101000Y18010000D02*
X51101000Y17224000D01*
X51141000Y20835000D02*
X51141000Y20090000D01*
X51141000Y18010000D02*
X51141000Y17265000D01*
X51181000Y20793000D02*
X51181000Y20090000D01*
X51181000Y18010000D02*
X51181000Y17307000D01*
X51221000Y20749000D02*
X51221000Y20090000D01*
X51221000Y18010000D02*
X51221000Y17351000D01*
X51261000Y20703000D02*
X51261000Y20090000D01*
X51261000Y18010000D02*
X51261000Y17397000D01*
X51301000Y20655000D02*
X51301000Y17445000D01*
X51341000Y20604000D02*
X51341000Y17496000D01*
X51381000Y20550000D02*
X51381000Y17550000D01*
X51421000Y20493000D02*
X51421000Y17607000D01*
X51461000Y20433000D02*
X51461000Y17667000D01*
X51501000Y20369000D02*
X51501000Y17731000D01*
X51541000Y20301000D02*
X51541000Y17799000D01*
X51581000Y20228000D02*
X51581000Y17872000D01*
X51621000Y20148000D02*
X51621000Y17952000D01*
X51661000Y20061000D02*
X51661000Y18039000D01*
X51701000Y19965000D02*
X51701000Y18135000D01*
X51741000Y19855000D02*
X51741000Y18245000D01*
X51781000Y19727000D02*
X51781000Y18373000D01*
X51821000Y19568000D02*
X51821000Y18532000D01*
X51861000Y19334000D02*
X51861000Y18766000D01*
X46455225Y20525000D02*
X46955225Y20525000D01*
X46705225Y20775000D02*
X46705225Y20275000D01*
%TO.C,C3*%
X44260000Y19050000D02*
G75*
G03*
X44260000Y19050000I-2620000J0D01*
G01*
X41640000Y18010000D02*
X41640000Y16470000D01*
X41640000Y21630000D02*
X41640000Y20090000D01*
X41680000Y18010000D02*
X41680000Y16470000D01*
X41680000Y21630000D02*
X41680000Y20090000D01*
X41720000Y21629000D02*
X41720000Y20090000D01*
X41720000Y18010000D02*
X41720000Y16471000D01*
X41760000Y21628000D02*
X41760000Y20090000D01*
X41760000Y18010000D02*
X41760000Y16472000D01*
X41800000Y21626000D02*
X41800000Y20090000D01*
X41800000Y18010000D02*
X41800000Y16474000D01*
X41840000Y21623000D02*
X41840000Y20090000D01*
X41840000Y18010000D02*
X41840000Y16477000D01*
X41880000Y21619000D02*
X41880000Y20090000D01*
X41880000Y18010000D02*
X41880000Y16481000D01*
X41920000Y21615000D02*
X41920000Y20090000D01*
X41920000Y18010000D02*
X41920000Y16485000D01*
X41960000Y21611000D02*
X41960000Y20090000D01*
X41960000Y18010000D02*
X41960000Y16489000D01*
X42000000Y21606000D02*
X42000000Y20090000D01*
X42000000Y18010000D02*
X42000000Y16494000D01*
X42040000Y21600000D02*
X42040000Y20090000D01*
X42040000Y18010000D02*
X42040000Y16500000D01*
X42080000Y21593000D02*
X42080000Y20090000D01*
X42080000Y18010000D02*
X42080000Y16507000D01*
X42120000Y21586000D02*
X42120000Y20090000D01*
X42120000Y18010000D02*
X42120000Y16514000D01*
X42160000Y21578000D02*
X42160000Y20090000D01*
X42160000Y18010000D02*
X42160000Y16522000D01*
X42200000Y21570000D02*
X42200000Y20090000D01*
X42200000Y18010000D02*
X42200000Y16530000D01*
X42240000Y21561000D02*
X42240000Y20090000D01*
X42240000Y18010000D02*
X42240000Y16539000D01*
X42280000Y21551000D02*
X42280000Y20090000D01*
X42280000Y18010000D02*
X42280000Y16549000D01*
X42320000Y21541000D02*
X42320000Y20090000D01*
X42320000Y18010000D02*
X42320000Y16559000D01*
X42361000Y21530000D02*
X42361000Y20090000D01*
X42361000Y18010000D02*
X42361000Y16570000D01*
X42401000Y21518000D02*
X42401000Y20090000D01*
X42401000Y18010000D02*
X42401000Y16582000D01*
X42441000Y21505000D02*
X42441000Y20090000D01*
X42441000Y18010000D02*
X42441000Y16595000D01*
X42481000Y21492000D02*
X42481000Y20090000D01*
X42481000Y18010000D02*
X42481000Y16608000D01*
X42521000Y21478000D02*
X42521000Y20090000D01*
X42521000Y18010000D02*
X42521000Y16622000D01*
X42561000Y21464000D02*
X42561000Y20090000D01*
X42561000Y18010000D02*
X42561000Y16636000D01*
X42601000Y21448000D02*
X42601000Y20090000D01*
X42601000Y18010000D02*
X42601000Y16652000D01*
X42641000Y21432000D02*
X42641000Y20090000D01*
X42641000Y18010000D02*
X42641000Y16668000D01*
X42681000Y21415000D02*
X42681000Y20090000D01*
X42681000Y18010000D02*
X42681000Y16685000D01*
X42721000Y21398000D02*
X42721000Y20090000D01*
X42721000Y18010000D02*
X42721000Y16702000D01*
X42761000Y21379000D02*
X42761000Y20090000D01*
X42761000Y18010000D02*
X42761000Y16721000D01*
X42801000Y21360000D02*
X42801000Y20090000D01*
X42801000Y18010000D02*
X42801000Y16740000D01*
X42841000Y21340000D02*
X42841000Y20090000D01*
X42841000Y18010000D02*
X42841000Y16760000D01*
X42881000Y21318000D02*
X42881000Y20090000D01*
X42881000Y18010000D02*
X42881000Y16782000D01*
X42921000Y21297000D02*
X42921000Y20090000D01*
X42921000Y18010000D02*
X42921000Y16803000D01*
X42961000Y21274000D02*
X42961000Y20090000D01*
X42961000Y18010000D02*
X42961000Y16826000D01*
X43001000Y21250000D02*
X43001000Y20090000D01*
X43001000Y18010000D02*
X43001000Y16850000D01*
X43041000Y21225000D02*
X43041000Y20090000D01*
X43041000Y18010000D02*
X43041000Y16875000D01*
X43081000Y21199000D02*
X43081000Y20090000D01*
X43081000Y18010000D02*
X43081000Y16901000D01*
X43121000Y21172000D02*
X43121000Y20090000D01*
X43121000Y18010000D02*
X43121000Y16928000D01*
X43161000Y21145000D02*
X43161000Y20090000D01*
X43161000Y18010000D02*
X43161000Y16955000D01*
X43201000Y21115000D02*
X43201000Y20090000D01*
X43201000Y18010000D02*
X43201000Y16985000D01*
X43241000Y21085000D02*
X43241000Y20090000D01*
X43241000Y18010000D02*
X43241000Y17015000D01*
X43281000Y21054000D02*
X43281000Y20090000D01*
X43281000Y18010000D02*
X43281000Y17046000D01*
X43321000Y21021000D02*
X43321000Y20090000D01*
X43321000Y18010000D02*
X43321000Y17079000D01*
X43361000Y20987000D02*
X43361000Y20090000D01*
X43361000Y18010000D02*
X43361000Y17113000D01*
X43401000Y20951000D02*
X43401000Y20090000D01*
X43401000Y18010000D02*
X43401000Y17149000D01*
X43441000Y20914000D02*
X43441000Y20090000D01*
X43441000Y18010000D02*
X43441000Y17186000D01*
X43481000Y20876000D02*
X43481000Y20090000D01*
X43481000Y18010000D02*
X43481000Y17224000D01*
X43521000Y20835000D02*
X43521000Y20090000D01*
X43521000Y18010000D02*
X43521000Y17265000D01*
X43561000Y20793000D02*
X43561000Y20090000D01*
X43561000Y18010000D02*
X43561000Y17307000D01*
X43601000Y20749000D02*
X43601000Y20090000D01*
X43601000Y18010000D02*
X43601000Y17351000D01*
X43641000Y20703000D02*
X43641000Y20090000D01*
X43641000Y18010000D02*
X43641000Y17397000D01*
X43681000Y20655000D02*
X43681000Y17445000D01*
X43721000Y20604000D02*
X43721000Y17496000D01*
X43761000Y20550000D02*
X43761000Y17550000D01*
X43801000Y20493000D02*
X43801000Y17607000D01*
X43841000Y20433000D02*
X43841000Y17667000D01*
X43881000Y20369000D02*
X43881000Y17731000D01*
X43921000Y20301000D02*
X43921000Y17799000D01*
X43961000Y20228000D02*
X43961000Y17872000D01*
X44001000Y20148000D02*
X44001000Y17952000D01*
X44041000Y20061000D02*
X44041000Y18039000D01*
X44081000Y19965000D02*
X44081000Y18135000D01*
X44121000Y19855000D02*
X44121000Y18245000D01*
X44161000Y19727000D02*
X44161000Y18373000D01*
X44201000Y19568000D02*
X44201000Y18532000D01*
X44241000Y19334000D02*
X44241000Y18766000D01*
X38835225Y20525000D02*
X39335225Y20525000D01*
X39085225Y20775000D02*
X39085225Y20275000D01*
%TO.C,U5*%
X42310000Y8250000D02*
X43570000Y8250000D01*
X49130000Y8250000D02*
X47870000Y8250000D01*
X42310000Y12010000D02*
X42310000Y8250000D01*
X49130000Y14260000D02*
X49130000Y8250000D01*
D10*
%TO.C,P1*%
X26390000Y4090000D02*
X26390000Y990000D01*
X27940000Y4090000D02*
X26390000Y4090000D01*
X29210000Y1270000D02*
X29210000Y3810000D01*
X26390000Y990000D02*
X27940000Y990000D01*
X46990000Y3810000D02*
X29210000Y3810000D01*
X46990000Y1270000D02*
X46990000Y3810000D01*
X29210000Y1270000D02*
X46990000Y1270000D01*
%TO.C,P2*%
X49250000Y4090000D02*
X49250000Y990000D01*
X50800000Y4090000D02*
X49250000Y4090000D01*
X52070000Y1270000D02*
X52070000Y3810000D01*
X49250000Y990000D02*
X50800000Y990000D01*
X64770000Y3810000D02*
X52070000Y3810000D01*
X64770000Y1270000D02*
X64770000Y3810000D01*
X52070000Y1270000D02*
X64770000Y1270000D01*
%TO.C,P3*%
X17246000Y52350000D02*
X17246000Y49250000D01*
X18796000Y52350000D02*
X17246000Y52350000D01*
X20066000Y49530000D02*
X20066000Y52070000D01*
X17246000Y49250000D02*
X18796000Y49250000D01*
X42926000Y52070000D02*
X20066000Y52070000D01*
X42926000Y49530000D02*
X42926000Y52070000D01*
X20066000Y49530000D02*
X42926000Y49530000D01*
%TO.C,P4*%
X44170000Y52350000D02*
X44170000Y49250000D01*
X45720000Y52350000D02*
X44170000Y52350000D01*
X46990000Y49530000D02*
X46990000Y52070000D01*
X44170000Y49250000D02*
X45720000Y49250000D01*
X64770000Y52070000D02*
X46990000Y52070000D01*
X64770000Y49530000D02*
X64770000Y52070000D01*
X46990000Y49530000D02*
X64770000Y49530000D01*
%TO.C,P5*%
X16256000Y2540000D02*
G75*
G03*
X16256000Y2540000I-2286000J0D01*
G01*
%TO.C,P6*%
X68326000Y7620000D02*
G75*
G03*
X68326000Y7620000I-2286000J0D01*
G01*
%TO.C,P7*%
X17526000Y50800000D02*
G75*
G03*
X17526000Y50800000I-2286000J0D01*
G01*
%TO.C,P8*%
X68326000Y35560000D02*
G75*
G03*
X68326000Y35560000I-2286000J0D01*
G01*
%TO.C,J2*%
X106666Y13847620D02*
X106666Y13133334D01*
X59047Y12990477D01*
X-36191Y12895239D01*
X-179048Y12847620D01*
X-274286Y12847620D01*
X535238Y13752381D02*
X582857Y13800000D01*
X678095Y13847620D01*
X916190Y13847620D01*
X1011428Y13800000D01*
X1059047Y13752381D01*
X1106666Y13657143D01*
X1106666Y13561905D01*
X1059047Y13419048D01*
X487619Y12847620D01*
X1106666Y12847620D01*
%TO.C,FB1*%
X15676666Y11571429D02*
X15343333Y11571429D01*
X15343333Y11047620D02*
X15343333Y12047620D01*
X15819523Y12047620D01*
X16533809Y11571429D02*
X16676666Y11523810D01*
X16724285Y11476191D01*
X16771904Y11380953D01*
X16771904Y11238096D01*
X16724285Y11142858D01*
X16676666Y11095239D01*
X16581428Y11047620D01*
X16200476Y11047620D01*
X16200476Y12047620D01*
X16533809Y12047620D01*
X16629047Y12000000D01*
X16676666Y11952381D01*
X16724285Y11857143D01*
X16724285Y11761905D01*
X16676666Y11666667D01*
X16629047Y11619048D01*
X16533809Y11571429D01*
X16200476Y11571429D01*
X17724285Y11047620D02*
X17152857Y11047620D01*
X17438571Y11047620D02*
X17438571Y12047620D01*
X17343333Y11904762D01*
X17248095Y11809524D01*
X17152857Y11761905D01*
X20058095Y11417620D02*
X20058095Y12417620D01*
X20629523Y11417620D02*
X20200952Y11989048D01*
X20629523Y12417620D02*
X20058095Y11846191D01*
%TO.C,D1*%
X15771904Y4697620D02*
X15771904Y5697620D01*
X16010000Y5697620D01*
X16152857Y5650000D01*
X16248095Y5554762D01*
X16295714Y5459524D01*
X16343333Y5269048D01*
X16343333Y5126191D01*
X16295714Y4935715D01*
X16248095Y4840477D01*
X16152857Y4745239D01*
X16010000Y4697620D01*
X15771904Y4697620D01*
X17295714Y4697620D02*
X16724285Y4697620D01*
X17010000Y4697620D02*
X17010000Y5697620D01*
X16914761Y5554762D01*
X16819523Y5459524D01*
X16724285Y5411905D01*
X20058095Y5067620D02*
X20058095Y6067620D01*
X20629523Y5067620D02*
X20200952Y5639048D01*
X20629523Y6067620D02*
X20058095Y5496191D01*
%TO.C,U1*%
X19558095Y37377620D02*
X19558095Y36568096D01*
X19605714Y36472858D01*
X19653333Y36425239D01*
X19748571Y36377620D01*
X19939047Y36377620D01*
X20034285Y36425239D01*
X20081904Y36472858D01*
X20129523Y36568096D01*
X20129523Y37377620D01*
X21129523Y36377620D02*
X20558095Y36377620D01*
X20843809Y36377620D02*
X20843809Y37377620D01*
X20748571Y37234762D01*
X20653333Y37139524D01*
X20558095Y37091905D01*
%TO.C,J11*%
X51260476Y45227620D02*
X51260476Y44513334D01*
X51212857Y44370477D01*
X51117619Y44275239D01*
X50974761Y44227620D01*
X50879523Y44227620D01*
X52260476Y44227620D02*
X51689047Y44227620D01*
X51974761Y44227620D02*
X51974761Y45227620D01*
X51879523Y45084762D01*
X51784285Y44989524D01*
X51689047Y44941905D01*
X53212857Y44227620D02*
X52641428Y44227620D01*
X52927142Y44227620D02*
X52927142Y45227620D01*
X52831904Y45084762D01*
X52736666Y44989524D01*
X52641428Y44941905D01*
%TO.C,J10*%
X55070476Y45227620D02*
X55070476Y44513334D01*
X55022857Y44370477D01*
X54927619Y44275239D01*
X54784761Y44227620D01*
X54689523Y44227620D01*
X56070476Y44227620D02*
X55499047Y44227620D01*
X55784761Y44227620D02*
X55784761Y45227620D01*
X55689523Y45084762D01*
X55594285Y44989524D01*
X55499047Y44941905D01*
X56689523Y45227620D02*
X56784761Y45227620D01*
X56880000Y45180000D01*
X56927619Y45132381D01*
X56975238Y45037143D01*
X57022857Y44846667D01*
X57022857Y44608572D01*
X56975238Y44418096D01*
X56927619Y44322858D01*
X56880000Y44275239D01*
X56784761Y44227620D01*
X56689523Y44227620D01*
X56594285Y44275239D01*
X56546666Y44322858D01*
X56499047Y44418096D01*
X56451428Y44608572D01*
X56451428Y44846667D01*
X56499047Y45037143D01*
X56546666Y45132381D01*
X56594285Y45180000D01*
X56689523Y45227620D01*
%TO.C,J9*%
X59356666Y45227620D02*
X59356666Y44513334D01*
X59309047Y44370477D01*
X59213809Y44275239D01*
X59070952Y44227620D01*
X58975714Y44227620D01*
X59880476Y44227620D02*
X60070952Y44227620D01*
X60166190Y44275239D01*
X60213809Y44322858D01*
X60309047Y44465715D01*
X60356666Y44656191D01*
X60356666Y45037143D01*
X60309047Y45132381D01*
X60261428Y45180000D01*
X60166190Y45227620D01*
X59975714Y45227620D01*
X59880476Y45180000D01*
X59832857Y45132381D01*
X59785238Y45037143D01*
X59785238Y44799048D01*
X59832857Y44703810D01*
X59880476Y44656191D01*
X59975714Y44608572D01*
X60166190Y44608572D01*
X60261428Y44656191D01*
X60309047Y44703810D01*
X60356666Y44799048D01*
%TO.C,J8*%
X63166666Y45227620D02*
X63166666Y44513334D01*
X63119047Y44370477D01*
X63023809Y44275239D01*
X62880952Y44227620D01*
X62785714Y44227620D01*
X63785714Y44799048D02*
X63690476Y44846667D01*
X63642857Y44894286D01*
X63595238Y44989524D01*
X63595238Y45037143D01*
X63642857Y45132381D01*
X63690476Y45180000D01*
X63785714Y45227620D01*
X63976190Y45227620D01*
X64071428Y45180000D01*
X64119047Y45132381D01*
X64166666Y45037143D01*
X64166666Y44989524D01*
X64119047Y44894286D01*
X64071428Y44846667D01*
X63976190Y44799048D01*
X63785714Y44799048D01*
X63690476Y44751429D01*
X63642857Y44703810D01*
X63595238Y44608572D01*
X63595238Y44418096D01*
X63642857Y44322858D01*
X63690476Y44275239D01*
X63785714Y44227620D01*
X63976190Y44227620D01*
X64071428Y44275239D01*
X64119047Y44322858D01*
X64166666Y44418096D01*
X64166666Y44608572D01*
X64119047Y44703810D01*
X64071428Y44751429D01*
X63976190Y44799048D01*
%TO.C,J7*%
X2206666Y5397620D02*
X2206666Y4683334D01*
X2159047Y4540477D01*
X2063809Y4445239D01*
X1920952Y4397620D01*
X1825714Y4397620D01*
X2587619Y5397620D02*
X3254285Y5397620D01*
X2825714Y4397620D01*
%TO.C,J6*%
X2206666Y35877620D02*
X2206666Y35163334D01*
X2159047Y35020477D01*
X2063809Y34925239D01*
X1920952Y34877620D01*
X1825714Y34877620D01*
X3111428Y35877620D02*
X2920952Y35877620D01*
X2825714Y35830000D01*
X2778095Y35782381D01*
X2682857Y35639524D01*
X2635238Y35449048D01*
X2635238Y35068096D01*
X2682857Y34972858D01*
X2730476Y34925239D01*
X2825714Y34877620D01*
X3016190Y34877620D01*
X3111428Y34925239D01*
X3159047Y34972858D01*
X3206666Y35068096D01*
X3206666Y35306191D01*
X3159047Y35401429D01*
X3111428Y35449048D01*
X3016190Y35496667D01*
X2825714Y35496667D01*
X2730476Y35449048D01*
X2682857Y35401429D01*
X2635238Y35306191D01*
%TO.C,J5*%
X61896666Y19597620D02*
X61896666Y18883334D01*
X61849047Y18740477D01*
X61753809Y18645239D01*
X61610952Y18597620D01*
X61515714Y18597620D01*
X62849047Y19597620D02*
X62372857Y19597620D01*
X62325238Y19121429D01*
X62372857Y19169048D01*
X62468095Y19216667D01*
X62706190Y19216667D01*
X62801428Y19169048D01*
X62849047Y19121429D01*
X62896666Y19026191D01*
X62896666Y18788096D01*
X62849047Y18692858D01*
X62801428Y18645239D01*
X62706190Y18597620D01*
X62468095Y18597620D01*
X62372857Y18645239D01*
X62325238Y18692858D01*
%TO.C,J4*%
X46656666Y47767620D02*
X46656666Y47053334D01*
X46609047Y46910477D01*
X46513809Y46815239D01*
X46370952Y46767620D01*
X46275714Y46767620D01*
X47561428Y47434286D02*
X47561428Y46767620D01*
X47323333Y47815239D02*
X47085238Y47100953D01*
X47704285Y47100953D01*
%TO.C,J3*%
X42846666Y47767620D02*
X42846666Y47053334D01*
X42799047Y46910477D01*
X42703809Y46815239D01*
X42560952Y46767620D01*
X42465714Y46767620D01*
X43227619Y47767620D02*
X43846666Y47767620D01*
X43513333Y47386667D01*
X43656190Y47386667D01*
X43751428Y47339048D01*
X43799047Y47291429D01*
X43846666Y47196191D01*
X43846666Y46958096D01*
X43799047Y46862858D01*
X43751428Y46815239D01*
X43656190Y46767620D01*
X43370476Y46767620D01*
X43275238Y46815239D01*
X43227619Y46862858D01*
%TO.C,J1*%
X61896666Y29757620D02*
X61896666Y29043334D01*
X61849047Y28900477D01*
X61753809Y28805239D01*
X61610952Y28757620D01*
X61515714Y28757620D01*
X62896666Y28757620D02*
X62325238Y28757620D01*
X62610952Y28757620D02*
X62610952Y29757620D01*
X62515714Y29614762D01*
X62420476Y29519524D01*
X62325238Y29471905D01*
%TO.C,F1*%
X30146666Y21661429D02*
X29813333Y21661429D01*
X29813333Y21137620D02*
X29813333Y22137620D01*
X30289523Y22137620D01*
X31194285Y21137620D02*
X30622857Y21137620D01*
X30908571Y21137620D02*
X30908571Y22137620D01*
X30813333Y21994762D01*
X30718095Y21899524D01*
X30622857Y21851905D01*
%TO.C,C4*%
X49093333Y22442858D02*
X49045714Y22395239D01*
X48902857Y22347620D01*
X48807619Y22347620D01*
X48664761Y22395239D01*
X48569523Y22490477D01*
X48521904Y22585715D01*
X48474285Y22776191D01*
X48474285Y22919048D01*
X48521904Y23109524D01*
X48569523Y23204762D01*
X48664761Y23300000D01*
X48807619Y23347620D01*
X48902857Y23347620D01*
X49045714Y23300000D01*
X49093333Y23252381D01*
X49950476Y23014286D02*
X49950476Y22347620D01*
X49712380Y23395239D02*
X49474285Y22680953D01*
X50093333Y22680953D01*
%TO.C,C3*%
X41473333Y22442858D02*
X41425714Y22395239D01*
X41282857Y22347620D01*
X41187619Y22347620D01*
X41044761Y22395239D01*
X40949523Y22490477D01*
X40901904Y22585715D01*
X40854285Y22776191D01*
X40854285Y22919048D01*
X40901904Y23109524D01*
X40949523Y23204762D01*
X41044761Y23300000D01*
X41187619Y23347620D01*
X41282857Y23347620D01*
X41425714Y23300000D01*
X41473333Y23252381D01*
X41806666Y23347620D02*
X42425714Y23347620D01*
X42092380Y22966667D01*
X42235238Y22966667D01*
X42330476Y22919048D01*
X42378095Y22871429D01*
X42425714Y22776191D01*
X42425714Y22538096D01*
X42378095Y22442858D01*
X42330476Y22395239D01*
X42235238Y22347620D01*
X41949523Y22347620D01*
X41854285Y22395239D01*
X41806666Y22442858D01*
%TO.C,U5*%
X49672380Y10668096D02*
X50481904Y10668096D01*
X50577142Y10715715D01*
X50624761Y10763334D01*
X50672380Y10858572D01*
X50672380Y11049048D01*
X50624761Y11144286D01*
X50577142Y11191905D01*
X50481904Y11239524D01*
X49672380Y11239524D01*
X49672380Y12191905D02*
X49672380Y11715715D01*
X50148571Y11668096D01*
X50100952Y11715715D01*
X50053333Y11810953D01*
X50053333Y12049048D01*
X50100952Y12144286D01*
X50148571Y12191905D01*
X50243809Y12239524D01*
X50481904Y12239524D01*
X50577142Y12191905D01*
X50624761Y12144286D01*
X50672380Y12049048D01*
X50672380Y11810953D01*
X50624761Y11715715D01*
X50577142Y11668096D01*
%TO.C,P1*%
X36091904Y4627620D02*
X36091904Y5627620D01*
X36472857Y5627620D01*
X36568095Y5580000D01*
X36615714Y5532381D01*
X36663333Y5437143D01*
X36663333Y5294286D01*
X36615714Y5199048D01*
X36568095Y5151429D01*
X36472857Y5103810D01*
X36091904Y5103810D01*
X37615714Y4627620D02*
X37044285Y4627620D01*
X37330000Y4627620D02*
X37330000Y5627620D01*
X37234761Y5484762D01*
X37139523Y5389524D01*
X37044285Y5341905D01*
%TO.C,P2*%
X56665904Y4627620D02*
X56665904Y5627620D01*
X57046857Y5627620D01*
X57142095Y5580000D01*
X57189714Y5532381D01*
X57237333Y5437143D01*
X57237333Y5294286D01*
X57189714Y5199048D01*
X57142095Y5151429D01*
X57046857Y5103810D01*
X56665904Y5103810D01*
X57618285Y5532381D02*
X57665904Y5580000D01*
X57761142Y5627620D01*
X57999238Y5627620D01*
X58094476Y5580000D01*
X58142095Y5532381D01*
X58189714Y5437143D01*
X58189714Y5341905D01*
X58142095Y5199048D01*
X57570666Y4627620D01*
X58189714Y4627620D01*
%TO.C,P3*%
X29487904Y47553620D02*
X29487904Y48553620D01*
X29868857Y48553620D01*
X29964095Y48506000D01*
X30011714Y48458381D01*
X30059333Y48363143D01*
X30059333Y48220286D01*
X30011714Y48125048D01*
X29964095Y48077429D01*
X29868857Y48029810D01*
X29487904Y48029810D01*
X30392666Y48553620D02*
X31011714Y48553620D01*
X30678380Y48172667D01*
X30821238Y48172667D01*
X30916476Y48125048D01*
X30964095Y48077429D01*
X31011714Y47982191D01*
X31011714Y47744096D01*
X30964095Y47648858D01*
X30916476Y47601239D01*
X30821238Y47553620D01*
X30535523Y47553620D01*
X30440285Y47601239D01*
X30392666Y47648858D01*
%TO.C,P4*%
X53871904Y47553620D02*
X53871904Y48553620D01*
X54252857Y48553620D01*
X54348095Y48506000D01*
X54395714Y48458381D01*
X54443333Y48363143D01*
X54443333Y48220286D01*
X54395714Y48125048D01*
X54348095Y48077429D01*
X54252857Y48029810D01*
X53871904Y48029810D01*
X55300476Y48220286D02*
X55300476Y47553620D01*
X55062380Y48601239D02*
X54824285Y47886953D01*
X55443333Y47886953D01*
%TD*%
M02*
